<?xml version="1.0" standalone="no"?>
<!DOCTYPE svg PUBLIC "-//W3C//DTD SVG 1.1//EN" "http://www.w3.org/Graphics/SVG/1.1/DTD/svg11.dtd" >
<svg>
<metadata>
Created by FontForge 20090914 at Thu Aug 12 16:28:19 2021
 By www-data
Published by Die Gestalten Verlag GmbH &#38; Co. KG, 2008Copyright &#194;&#169; by Binnenland and re-p.org, 2008. All rights reserved. This software may not be reproduced, used, displayed, modified, disclosed or transferred without the express written approval of (Binnenland). 
</metadata>
<defs>
<font id="BlenderPro-Bold" horiz-adv-x="555" >
  <font-face 
    font-family="Blender Pro Bold"
    font-weight="700"
    font-stretch="normal"
    units-per-em="1000"
    panose-1="2 0 8 6 3 0 0 2 0 4"
    ascent="800"
    descent="-200"
    x-height="432"
    cap-height="598"
    bbox="-72 -215 1087 842.999"
    underline-thickness="20"
    underline-position="-153"
    unicode-range="U+000D-U+FB02"
  />
<missing-glyph horiz-adv-x="1000" 
 />
    <glyph glyph-name=".notdef" horiz-adv-x="1000" 
 />
    <glyph glyph-name="CR" unicode="&#xd;" horiz-adv-x="500" 
 />
    <glyph glyph-name="space" unicode=" " horiz-adv-x="235" 
 />
    <glyph glyph-name="exclam" unicode="!" horiz-adv-x="266" 
d="M155 162h-100v436h100v-436zM166 -3h-122v118h122v-118z" />
    <glyph glyph-name="quotedbl" unicode="&#x22;" horiz-adv-x="381" 
d="M298 500l-8 -68h-99l9 81v127h98v-140zM149 500l-8 -68h-99l9 81v127h98v-140z" />
    <glyph glyph-name="numbersign" unicode="#" horiz-adv-x="534" 
d="M467 409l-17 -95h-84l-10 -54h84l-17 -94h-84l-18 -95h-98l18 95h-41l-18 -95h-98l17 95h-83l17 94h84l10 54h-84l17 95h84l17 91h98l-17 -91h41l17 91h98l-17 -91h84zM268 314h-41l-10 -54h41z" />
    <glyph glyph-name="dollar" unicode="$" horiz-adv-x="546" 
d="M486 143c0 -23.333 -5.33301 -42.334 -16 -57.001c-6.66699 -10 -18 -23.167 -34 -39.5s-29 -27.166 -39 -32.499c-21.333 -12 -42 -18 -62 -18h-44v-86h-58v86h-57c-43.333 0 -85.666 27.667 -126.999 83c-3.33301 5.33301 -9.33301 15.666 -18 30.999l99 33
c13.333 -18.667 28 -34 44 -46c1.33301 -0.666992 3.66602 -1 6.99902 -1h52l1 160l-125 34c-24.667 6.66699 -43.834 20.334 -57.501 41.001s-20.5 43.334 -20.5 68.001v57c0 22.667 5 41.667 15 57c6.66699 9.33301 18.167 22.166 34.5 38.499s29.5 27.5 39.5 33.5
c21.333 12 42 18 62 18h53v66h58v-66h37c42.667 0 85 -27.667 127 -83c6.66699 -9.33301 13.334 -21 20.001 -35l-101 -29c-15.333 22 -30 37.333 -44 46c-0.666992 0.666992 -2.66699 1 -6 1h-34v-157l116 -31c24 -6.66699 43 -20.5 57 -41.5s21 -43.5 21 -67.5v-63z
M136 402.999c0 -10 3.66699 -15.667 11 -17l87 -24v141h-47l-6 -1c-8 -4 -17.5 -11.667 -28.5 -23s-16.5 -19 -16.5 -23v-53zM369 219.999l-76.999 21l-1 -145h39l6 1c7.33301 4 16.666 11.667 27.999 23s17 19 17 23v60c0 10 -4 15.667 -12 17z" />
    <glyph glyph-name="percent" unicode="%" horiz-adv-x="836" 
d="M617 598l-330 -599h-115l331 599h114zM751 92c0 -20 -4.33301 -35.998 -13 -47.998c-9.33301 -12 -21.666 -24.333 -36.999 -37c-18 -11.333 -36.667 -17 -56 -17h-64c-19.333 0 -37.666 5.66699 -54.999 17c-14.667 11.333 -27.334 23.666 -38.001 36.999
c-8.66699 12 -13 28 -13 48v128c0 20 4.33301 36 13 48c10.667 13.333 23.334 25.666 38.001 36.999c17.333 11.333 35.666 17 54.999 17h64c19.333 0 38 -5.66699 56 -17c15.333 -12 27.666 -24.333 36.999 -37c8.66699 -12 13 -28 13 -48v-128zM668 212.002
c0 2.66699 -0.333008 4.33008 -1 4.99707c-8.66699 10.667 -16.334 18 -23.001 22c-0.666992 0.666992 -2.33398 1 -5.00098 1h-52c-2.66699 0 -4.33398 -0.333008 -5.00098 -1c-8.66699 -5.33301 -16.334 -12.666 -23.001 -21.999l-1 -5v-112c0 -2 0.333008 -3.66699 1 -5
c6.66699 -9.33301 14.334 -16.666 23.001 -21.999c0.666992 -0.666992 2.33398 -1 5.00098 -1h52c2.66699 0 4.33398 0.333008 5.00098 1c6.66699 4 14.334 11.333 23.001 22c0.666992 0.666992 1 2.33398 1 5.00098v112zM311 376.998c0 -20 -4.33301 -35.998 -13 -47.998
c-9.33301 -12.667 -21.666 -25 -36.999 -37c-18 -11.333 -36.667 -17 -56 -17h-64c-19.333 0 -37.666 5.66699 -54.999 17c-14.667 11.333 -27.334 23.666 -38.001 36.999c-8.66699 12 -13 28 -13 48v128c0 20 4.33301 36 13 48c10.667 13.333 23.334 25.666 38.001 36.999
c17.333 11.333 35.666 17 54.999 17h64c19.333 0 38 -5.66699 56 -17c15.333 -12 27.666 -24.333 36.999 -37c8.66699 -12 13 -28 13 -48v-128zM228 497c0 2.66699 -0.333008 4.33008 -1 4.99707c-8.66699 10.667 -16.334 18 -23.001 22
c-0.666992 0.666992 -2.33398 1 -5.00098 1h-52c-2.66699 0 -4.33398 -0.333008 -5.00098 -1c-8.66699 -5.33301 -16.334 -12.666 -23.001 -21.999l-1 -5v-112c0 -2 0.333008 -3.66699 1 -5c6.66699 -9.33301 14.334 -16.666 23.001 -21.999
c0.666992 -0.666992 2.33398 -1 5.00098 -1h52c2.66699 0 4.33398 0.333008 5.00098 1c6.66699 4 14.334 11.333 23.001 22c0.666992 0.666992 1 2.33398 1 5.00098v112z" />
    <glyph glyph-name="ampersand" unicode="&#x26;" horiz-adv-x="561" 
d="M322 96c4.66699 0 11.3301 3.99316 19.9971 11.9932s15.334 16 20.001 24c0.666992 1.33301 1 3.66602 1 6.99902v147h130v-102h-28v-53c0 -23.333 -6 -43.333 -18 -60c-4.66699 -6.66699 -13 -16 -25 -28s-21.333 -20.333 -28 -25c-20 -14.667 -44 -22 -72 -22h-56v-1
h-80c-26 0 -49.333 7.33301 -70 22c-6.66699 4.66699 -16.167 13.334 -28.5 26.001s-20.833 22.334 -25.5 29.001c-12 18 -18 38.333 -18 61v78c0 30 13.333 58.333 40 85c-26.667 26.667 -40 55.334 -40 86.001v81c0 22.667 6 43 18 61
c4.66699 6.66699 13.167 16.334 25.5 29.001s21.833 21.334 28.5 26.001c20.667 14.667 44 22 70 22h98c43.333 0 86 -27.333 128 -82c12.667 -17.333 21 -31.666 25 -42.999l-102 -27c-18 26.667 -34.333 43.667 -49 51c-1.33301 0.666992 -3 1 -5 1h-94
c-4 0 -10 -3.66699 -18 -11s-14.333 -15 -19 -23c-0.666992 -1.33301 -1 -3 -1 -5v-78c0 -2 0.333008 -3.66699 1 -5c4 -7.33301 9.83301 -14.666 17.5 -21.999s13.834 -11 18.501 -11h128v-99h-128c-4.66699 0 -10.834 -3.66699 -18.501 -11s-13.5 -14.666 -17.5 -21.999
l-1 -5v-75l1 -5c4.66699 -8 10.834 -15.5 18.501 -22.5s13.834 -10.5 18.501 -10.5h135z" />
    <glyph glyph-name="quotesingle" unicode="'" horiz-adv-x="232" 
d="M149 500l-8 -68h-99l9 81v127h98v-140z" />
    <glyph glyph-name="parenleft" unicode="(" horiz-adv-x="345" 
d="M267 16l-76.001 -71.998l-30.5 29.5l-36.5 34.5c-38 36.667 -62 62 -72 76c-11.333 17.333 -17 36.666 -17 57.999v306c0 20.667 5.66699 39.667 17 57c12 17.333 34 41.333 66 72c1.33301 1.33301 11.666 11.166 30.999 29.499l42 40.5l75 -71
c-1.33301 -1.33301 -14.166 -13.166 -38.499 -35.499s-45.166 -42.333 -62.499 -60s-26 -29.167 -26 -34.5v-302c0 -6.66699 17.167 -26.334 51.5 -59.001s59.833 -55.667 76.5 -69z" />
    <glyph glyph-name="parenright" unicode=")" horiz-adv-x="354" 
d="M263 142c0 -22.667 -5.33301 -41.998 -16 -57.998s-34.667 -41.333 -72 -76s-60.333 -56.334 -69 -65.001l-74 74c16.667 13.333 42 36.166 76 68.499s51 51.833 51 58.5v302c0 5.33301 -8.66699 16.833 -26 34.5s-38 37.5 -62 59.5s-36.667 33.667 -38 35l73 71l30 -26
l45 -42c31.333 -30 53.333 -54.333 66 -73c10.667 -16 16 -35 16 -57v-306z" />
    <glyph glyph-name="asterisk" unicode="*" horiz-adv-x="457" 
d="M249 633l-2 -113l109 38l26 -84l-107 -33l69 -91l-71 -51l-65 92l-65 -94l-71 52l67 90l-109 33l28 84l106 -37l-2 114h87z" />
    <glyph glyph-name="plus" unicode="+" horiz-adv-x="514" 
d="M432 196h-142v-139h-97v139h-142v94h142v141h97v-141h142v-94z" />
    <glyph glyph-name="comma" unicode="," horiz-adv-x="271" 
d="M186 75l-74 -160h-112l89 190z" />
    <glyph glyph-name="hyphen" unicode="-" horiz-adv-x="319" 
d="M247 196h-222v94h222v-94z" />
    <glyph glyph-name="period" unicode="." horiz-adv-x="267" 
d="M168 0h-123v126h123v-126z" />
    <glyph glyph-name="slash" unicode="/" horiz-adv-x="442" 
d="M418 598l-325 -598h-115l326 598h114z" />
    <glyph glyph-name="zero" unicode="0" horiz-adv-x="519" 
d="M451 142c0 -22 -5.33301 -41 -16 -57c-7.33301 -10 -18.833 -23.167 -34.5 -39.5s-28.5 -27.166 -38.5 -32.499c-19.333 -12 -39.666 -18 -60.999 -18h-111c-22 0 -42.667 6 -62 18c-9.33301 5.33301 -22.166 16.166 -38.499 32.499s-27.833 29.5 -34.5 39.5
c-10.667 16 -16 35 -16 57v313c0 22 5.33301 41 16 57c6.66699 10 18.167 23.167 34.5 39.5s29.166 27.166 38.499 32.499c19.333 12 40 18 62 18h111c21.333 0 41.666 -6 60.999 -18c10 -5.33301 22.833 -16.166 38.5 -32.499s27.167 -29.5 34.5 -39.5
c10.667 -16 16 -35 16 -57v-313zM144 453l0.000976562 -310.002c0 -2 0.333008 -3.33301 1 -4c14 -20.667 28.667 -35 44 -43c1.33301 -0.666992 3 -1 5 -1h103c2 0 3.66699 0.333008 5 1c15.333 8 29.666 22.333 42.999 43l1 4v310c0 2.66699 -0.333008 4.33398 -1 5.00098
c-13.333 20.667 -27.666 35 -42.999 43c-1.33301 0.666992 -3 1 -5 1h-103c-2.66699 0 -4.33398 -0.333008 -5.00098 -1c-15.333 -7.33301 -30 -21.666 -44 -42.999z" />
    <glyph glyph-name="one" unicode="1" horiz-adv-x="519" 
d="M322 0h-105v497h-119v101h224v-598z" />
    <glyph glyph-name="two" unicode="2" horiz-adv-x="519" 
d="M303 501h-100.999c-2.66699 0 -4.66699 -0.333008 -6 -1c-24 -14 -40 -31.333 -48 -52l-100 30c6 16 13 29.333 21 40c42.667 55.333 85.667 83 129 83h106c26 0 49.333 -7.66699 70 -23c7.33301 -4.66699 17.166 -13.167 29.499 -25.5s20.833 -21.833 25.5 -28.5
c12 -18 18 -38.333 18 -61v-64c0 -46.667 -24.667 -82.667 -74 -108l-197 -102c-10.667 -6 -16 -13 -16 -21v-68h280v-100h-385v172c0 45.333 25 81 75 107l199 103c8.66699 4 13 10.667 13 20v61l-1 5c-4.66699 8 -11 15.5 -19 22.5s-14.333 10.5 -19 10.5z" />
    <glyph glyph-name="three" unicode="3" horiz-adv-x="519" 
d="M331 134v81.0059c0 2 -0.333008 3.66699 -1 5c-4 7.33301 -9.83301 14.666 -17.5 21.999s-13.834 11 -18.501 11h-1h-127v99h127h1c4.66699 0 10.834 3.66699 18.501 11s13.5 14.666 17.5 21.999l1 5v72l-1 5c-4.66699 8 -10.834 15.5 -18.501 22.5
s-13.834 10.5 -18.501 10.5h-114c-1.33301 0 -2.66602 -0.333008 -3.99902 -1c-8.66699 -4 -18.167 -10.833 -28.5 -20.5s-17.166 -19.834 -20.499 -30.501l-102 28c8.66699 18 16.667 32.333 24 43c43.333 54.667 86 82 128 82h118c26 0 49.333 -7.33301 70 -22
c20.667 -15.333 38.667 -33.666 54 -54.999c12 -18 18 -38.333 18 -61v-75c0 -30 -13.333 -58.333 -40 -85c26.667 -26.667 40 -55.334 40 -86.001v-84c0 -22.667 -6 -43 -18 -61c-4.66699 -6.66699 -13.167 -16.334 -25.5 -29.001s-21.833 -21.334 -28.5 -26.001
c-20.667 -14.667 -44 -22 -70 -22h-118c-43.333 0 -86 27.333 -128 82c-12.667 17.333 -21 31.666 -25 42.999l102 27c18 -26.667 34.333 -43.667 49 -51c1.33301 -0.666992 3 -1 5 -1h114c4 0 10 3.66699 18 11s14.333 15 19 23c0.666992 1.33301 1 3 1 5z" />
    <glyph glyph-name="four" unicode="4" horiz-adv-x="519" 
d="M448 119h-61v-119h-105v119h-268v90l252 389h121v-379h61v-100zM282 219v227l-145 -227h145z" />
    <glyph glyph-name="five" unicode="5" horiz-adv-x="519" 
d="M439 133c0 -22.667 -5.99805 -42.999 -17.998 -60.999c-4.66699 -7.33301 -13 -17.166 -25 -29.499s-21.667 -20.833 -29 -25.5c-20 -14.667 -43.667 -22 -71 -22h-110c-43.333 0 -86.333 27.333 -129 82c-9.33301 12.667 -17 27 -23 43l102 27
c13.333 -25.333 28.666 -42.333 45.999 -51c1.33301 -0.666992 3.66602 -1 6.99902 -1h106c2.66699 0 4.66699 0.333008 6 1c13.333 8.66699 24 19.667 32 33c0.666992 1.33301 1 3 1 5v101l-1 5c-7.33301 14 -18 25.333 -32 34c-1.33301 0.666992 -3.33301 1 -6 1h-236v323
h351v-100h-246v-123h132c27.333 0 51 -8 71 -24c7.33301 -4.66699 17 -12.834 29 -24.501s20.333 -20.834 25 -27.501c12 -18 18 -38.667 18 -62v-104z" />
    <glyph glyph-name="six" unicode="6" horiz-adv-x="519" 
d="M150 471c-2 -2 -2.99609 -5.66602 -2.99609 -10.999v-104c23.333 20 42.666 30 57.999 30h98c26 0 49 -7 69 -21c7.33301 -5.33301 17.166 -14 29.499 -26s20.833 -21.333 25.5 -28c12 -18 18 -38.667 18 -62v-116c0 -22.667 -6 -43 -18 -61
c-4.66699 -6.66699 -13.334 -16.167 -26.001 -28.5s-22.334 -21.166 -29.001 -26.499c-20 -14.667 -43 -22 -69 -22h-119c-26 0 -49 7.33301 -69 22c-6.66699 5.33301 -16.334 14.166 -29.001 26.499s-21.334 21.833 -26.001 28.5c-12 18 -18 38 -18 60v331
c0 22.667 6 43 18 61c4.66699 6.66699 13.334 16.167 26.001 28.5s22.334 21.166 29.001 26.499c20 14.667 43 22 69 22h108c42.667 0 85 -27.333 127 -82c10.667 -14 19 -28.667 25 -44l-102 -28l-2 4c-10.667 22 -25.667 38 -45 48c-2.66699 1.33301 -4.66699 2 -6 2h-103
c-2.66699 0 -7 -2.5 -13 -7.5s-11.333 -10.167 -16 -15.5zM340.004 248.001l-1 6c-4.66699 8 -10.834 15.667 -18.501 23s-13.834 11 -18.501 11h-94c-8 0 -13.333 -1 -16 -3c-24 -17.333 -39 -31.666 -45 -42.999v-99l1 -14c4.66699 -8 11 -15.667 19 -23
s14.333 -11 19 -11h116c4.66699 0 10.834 3.5 18.501 10.5s13.834 14.5 18.501 22.5c0.666992 1.33301 1 5.66602 1 12.999v107z" />
    <glyph glyph-name="seven" unicode="7" horiz-adv-x="519" 
d="M457 516l-246 -516h-119l245 498h-295v100h415v-82z" />
    <glyph glyph-name="eight" unicode="8" horiz-adv-x="519" 
d="M440 133c0 -22.667 -6 -42.9961 -18 -60.9961c-4.66699 -6.66699 -13.167 -16.334 -25.5 -29.001s-22.166 -21.334 -29.499 -26.001c-20 -14.667 -43 -22 -69 -22h-11h-94h-11c-26.667 0 -50 7.33301 -70 22c-6.66699 5.33301 -16.334 14.166 -29.001 26.499
s-21.334 21.833 -26.001 28.5c-12 18 -18 38.333 -18 61v82c0 31.333 13.667 60 41 86c-27.333 26 -41 54.333 -41 85v78c0 22.667 6 43 18 61c4.66699 6.66699 13.334 16.334 26.001 29.001s22.334 21.334 29.001 26.001c20 14.667 43.333 22 70 22h116
c26 0 49 -7.33301 69 -22c7.33301 -4.66699 17.166 -13.334 29.499 -26.001s20.833 -22.334 25.5 -29.001c12 -18 18 -38.333 18 -61v-78c0 -30 -13.333 -58.333 -40 -85c26.667 -26.667 40 -55.334 40 -86.001v-82zM334 381.004
c0.666992 0.666992 1.00098 2.33398 1.00098 5.00098v78l-1 5c-4.66699 8 -10.834 15.5 -18.501 22.5s-13.834 10.5 -18.501 10.5h-114c-4.66699 0 -11 -3.5 -19 -10.5s-14.333 -14.5 -19 -22.5c-0.666992 -1.33301 -1 -3 -1 -5v-78l1 -5c4 -8 10 -15.5 18 -22.5
s14.333 -10.5 19 -10.5h3h3h3h3h3h3h2h3h3h3h3h3h3h3h3h3h3h3h2h3h3h3h3h3h3h3h3h2h3h3h3h3h3h3h2h3h3h9c4.66699 0 10.834 3.66699 18.501 11s13.5 14.666 17.5 21.999zM334.001 127.004c0.666992 0.666992 1 2.33398 1 5.00098v80l-1 5
c-4.66699 7.33301 -11 14.666 -19 21.999s-14.333 11 -19 11h-114c-4.66699 0 -10.834 -3.5 -18.501 -10.5s-13.834 -14.5 -18.501 -22.5c-0.666992 -1.33301 -1 -3 -1 -5v-80l1 -5c4 -8 9.83301 -15.333 17.5 -22s13.834 -10 18.501 -10h3h3h3h3h2h3h3h3h3h3h3h3h3h3h2h3h3
h3h3h3h3h3h2h3h3h3h3h3h3h2h3h3h3h3h2h3h3h3h8c4.66699 0 10.834 3.5 18.501 10.5s13.5 14.167 17.5 21.5z" />
    <glyph glyph-name="nine" unicode="9" horiz-adv-x="519" 
d="M335 127c0.666992 1.33301 0.996094 4.00488 0.996094 8.00488v106c-23.333 -20.667 -42.333 -31 -57 -31h-98c-26.667 0 -50 7 -70 21c-7.33301 5.33301 -17.166 14 -29.499 26s-20.833 21.333 -25.5 28c-12 18 -18 38.333 -18 61v117c0 22.667 6 43 18 61
c4.66699 6.66699 13.334 16.167 26.001 28.5s22.334 21.166 29.001 26.499c20 14.667 43.333 22 70 22h118c26 0 49 -7.33301 69 -22c7.33301 -4.66699 17.166 -13.334 29.499 -26.001s20.833 -22.334 25.5 -29.001c12 -18 18 -38 18 -60v-331c0 -22.667 -6 -43 -18 -61
c-4.66699 -6.66699 -13.167 -16.334 -25.5 -29.001s-22.166 -21.334 -29.499 -26.001c-20 -14.667 -43 -22 -69 -22h-107c-43.333 0 -86 27.333 -128 82c-10 13.333 -18.333 28.333 -25 45l102 27l2 -5c4 -10 10.667 -19.5 20 -28.5s17.666 -15.167 24.999 -18.5
c2.66699 -1.33301 5 -2 7 -2h103c4.66699 0 10.834 3.5 18.501 10.5s13.834 14.167 18.501 21.5zM335.996 354.005l0.00390625 109.001l-1 5c-4.66699 8 -10.834 15.5 -18.501 22.5s-13.834 10.5 -18.501 10.5h-116c-4.66699 0 -10.834 -3.16699 -18.501 -9.5
s-13.834 -13.5 -18.501 -21.5c-0.666992 -1.33301 -1 -4.33301 -1 -9l-1 -114l1 -5c4.66699 -8 11 -15.667 19 -23s14.333 -11 19 -11h93c9.33301 0 15.333 1 18 3c22.667 17.333 37 31.666 43 42.999z" />
    <glyph glyph-name="colon" unicode=":" horiz-adv-x="267" 
d="M168 249h-123v126h123v-126zM168 0h-123v126h123v-126z" />
    <glyph glyph-name="semicolon" unicode=";" horiz-adv-x="267" 
d="M178 248h-123v126h123v-126zM183 75l-74 -160h-112l89 190z" />
    <glyph glyph-name="less" unicode="&#x3c;" horiz-adv-x="722" 
d="M627 249h-454l260 -248h-138l-308 296l308 298h138l-263 -249h457v-97z" />
    <glyph glyph-name="equal" unicode="=" horiz-adv-x="486" 
d="M402 283h-373v93h373v-93zM402 133h-373v92h373v-92z" />
    <glyph glyph-name="greater" unicode="&#x3e;" horiz-adv-x="722" 
d="M668 297l-309 -296h-137l259 248h-453v97h456l-263 249h138z" />
    <glyph glyph-name="question" unicode="?" horiz-adv-x="464" 
d="M432 395c0 -23.333 -6.83008 -44.498 -20.4971 -63.498s-30.834 -33.5 -51.501 -43.5c-2 -0.666992 -6.66699 -2.66699 -14 -6l-21 -10c-6.66699 -3.33301 -13.5 -7 -20.5 -11s-12.667 -8.16699 -17 -12.5s-6.5 -8.5 -6.5 -12.5v-73h-105v77
c0 13.333 2.33301 25.666 7 36.999s9.5 20.666 14.5 27.999s13.667 15.333 26 24s21.5 14.667 27.5 18s17.167 8.83301 33.5 16.5s26.166 12.5 29.499 14.5c8.66699 4 13 10.667 13 20v65l-1 5c-4.66699 8 -10.834 15.5 -18.501 22.5s-13.834 10.5 -18.501 10.5h-112
c-2 0 -4.66699 -1 -8 -3c-18.667 -12.667 -32.667 -27 -42 -43l-4 -7l-99 29c8.66699 18 16.334 32 23.001 42c38 54.667 80.333 82 127 82h119c26 0 49.333 -7.66699 70 -23c18.667 -13.333 35.667 -31 51 -53c12 -18 18 -38.333 18 -61v-69zM289.003 0.00195312h-121v117
h121v-117z" />
    <glyph glyph-name="at" unicode="@" horiz-adv-x="641" 
d="M246 -71l15.001 -94.999h-75c-22 0 -42.667 6 -62 18c-9.33301 5.33301 -22.166 16.166 -38.499 32.499s-27.833 29.5 -34.5 39.5c-10.667 16 -16 35 -16 57v474c0 22 5.33301 41 16 57c6.66699 10 18.167 23.167 34.5 39.5s29.166 27.166 38.499 32.499
c19.333 12 40 18 62 18h215c22 0 42.667 -6 62 -18c9.33301 -5.33301 21.833 -16 37.5 -32s27.5 -29.333 35.5 -40c10.667 -16 16 -35 16 -57v-366l8 -89h-100l-2 22c-23.333 -18 -45 -27 -65 -27h-42c-28 0 -52 7.33301 -72 22s-36 31 -48 49c-12 17.333 -18 38 -18 62v170
c0 24.667 6 45.334 18 62.001c15.333 21.333 31.333 37.666 48 48.999c20 14 44 21 72 21h42c17.333 0 37 -7.66699 59 -23v45c0 2.66699 -0.333008 4.33398 -1 5.00098c-6 8.66699 -14.167 18.167 -24.5 28.5s-18.5 17.166 -24.5 20.499c-1.33301 0.666992 -3 1 -5 1h-207
c-2.66699 0 -4.33398 -0.333008 -5.00098 -1c-6 -3.33301 -14.167 -10.166 -24.5 -20.499s-18.5 -19.833 -24.5 -28.5l-1 -5v-470c0 -2 0.333008 -3.33301 1 -4c6 -8.66699 14.167 -18 24.5 -28s18.5 -16.667 24.5 -20c1.33301 -0.666992 3 -1 5 -1h56zM452.001 135.001
l-0.000976562 156c-7.33301 8.66699 -18.166 18.5 -32.499 29.5s-24.166 16.5 -29.499 16.5h-38c-3.33301 0 -5.33301 -0.333008 -6 -1c-12 -8 -22.667 -19.667 -32 -35c-0.666992 -1.33301 -1 -3 -1 -5v-166l1 -6c8.66699 -14.667 19.334 -26 32.001 -34
c2.66699 -1.33301 4.66699 -2 6 -2h38c5.33301 0 15.166 5.66699 29.499 17s25.166 21.333 32.499 30z" />
    <glyph glyph-name="A" unicode="A" horiz-adv-x="549" 
d="M515 0h-112l-44 127h-227l-44 -127h-112l209 598h122zM326 227l-80 236l-81 -236h161z" />
    <glyph glyph-name="B" unicode="B" 
d="M467 136c0 -23.333 -5.66699 -43.332 -17 -59.999c-4.66699 -6.66699 -13 -16.167 -25 -28.5s-21.333 -20.833 -28 -25.5c-20.667 -14.667 -44.667 -22 -72 -22h-281v598h281c26 0 50 -7.66699 72 -23c6.66699 -4.66699 16 -13.167 28 -25.5s20.333 -21.833 25 -28.5
c11.333 -16.667 17 -37.334 17 -62.001v-74c0 -32 -13 -61 -39 -87c26 -26 39 -54.667 39 -86v-76zM361 380.001c0.666992 1.33301 1.00195 3.66797 1.00195 7.00098v71l-1 5c-4.66699 8 -10.834 15.833 -18.501 23.5s-13.834 11.5 -18.501 11.5h-175v-151h176
c4.66699 0 11 3.66699 19 11s13.667 14.666 17 21.999zM361.002 133.003c0.666992 2 1.00195 4.33398 1.00195 7.00098v71l-1 5c-4.66699 8 -10.834 15.667 -18.501 23s-13.834 11 -18.501 11h-175v-150h176c4.66699 0 11 3.66699 19 11s13.667 14.666 17 21.999z" />
    <glyph glyph-name="C" unicode="C" horiz-adv-x="553" 
d="M468 116c-6.66699 -15.333 -13.668 -28 -21.001 -38c-41.333 -55.333 -83.666 -83 -126.999 -83h-125c-22 0 -42.667 6 -62 18c-10 6 -23 17 -39 33s-27.333 28.667 -34 38c-10.667 16 -16 35 -16 57v315c0 21.333 5.33301 40 16 56c6.66699 10 18.167 23.167 34.5 39.5
s29.166 27.166 38.499 32.499c21.333 12 42 18 62 18h125c42.667 0 85 -27.667 127 -83c4 -5.33301 11 -17 21 -35l-102 -29c-20 24.667 -35 40 -45 46c-0.666992 0.666992 -2 1 -4 1h-118l-4 -1c-17.333 -9.33301 -32.333 -24 -45 -44c-0.666992 -1.33301 -1 -5 -1 -11
v-304c0 -5.33301 5.5 -13.166 16.5 -23.499s20.833 -17.833 29.5 -22.5c0.666992 -0.666992 3 -1 7 -1h114c2 0 3.66699 0.333008 5 1c6 2.66699 12.833 8 20.5 16s13.834 15.333 18.501 22l6 9z" />
    <glyph glyph-name="D" unicode="D" horiz-adv-x="563" 
d="M467 145c0 -23.333 -4.99805 -42.333 -14.998 -57c-6.66699 -9.33301 -18 -21.833 -34 -37.5s-29.333 -26.5 -40 -32.5c-21.333 -12 -41.333 -18 -60 -18h-274v598h274c23.333 0 43.666 -5.66699 60.999 -17c10 -6 22.667 -17 38 -33s26.666 -29.333 33.999 -40
c10.667 -14.667 16 -33.667 16 -57v-306zM149.002 100h162.001c4 0 6.33301 0.333008 7 1c8 4.66699 17.333 12.167 28 22.5s16 18.166 16 23.499v301c0 2 -0.333008 3.66699 -1 5c-12.667 20.667 -27.334 35.334 -44.001 44.001c-0.666992 0.666992 -3.66699 1 -9 1h-159
v-398z" />
    <glyph glyph-name="E" unicode="E" horiz-adv-x="516" 
d="M420 0h-376v598h376v-100h-271v-151h252v-100h-252v-147h271v-100z" />
    <glyph glyph-name="F" unicode="F" horiz-adv-x="494" 
d="M419 498h-270v-151h252v-100h-252v-247h-105v598h375v-100z" />
    <glyph glyph-name="G" unicode="G" horiz-adv-x="598" 
d="M149 455l0.00390625 -312.999c0 -5.33301 5.5 -13.166 16.5 -23.499s20.833 -17.833 29.5 -22.5h1c1.33301 -0.666992 2.66602 -1 3.99902 -1h136l5 1c8 4.66699 17.667 12.667 29 24s17 19.666 17 24.999v97h-129v100h234v-202c4.66699 -44 11 -90.667 19 -140h-103
l-5 24c-27.333 -19.333 -48 -29 -62 -29h-146c-22 0 -42.667 6 -62 18c-10 6 -23 16.833 -39 32.5s-27.333 28.167 -34 37.5c-10.667 16 -16 35.333 -16 58v316c0 22 5.33301 41 16 57c6.66699 10 18.167 23.167 34.5 39.5s29.166 27.166 38.499 32.499
c18 11.333 38.667 17 62 17h146c46 0 88.333 -27.667 127 -83c10 -14 17 -25.667 21 -35l-101 -29c-14.667 20 -30.334 35.333 -47.001 46c-0.666992 0.666992 -2.33398 1 -5.00098 1h-136l-5 -1c-18 -10 -33 -24.333 -45 -43z" />
    <glyph glyph-name="H" unicode="H" horiz-adv-x="572" 
d="M472 0h-105v247h-218v-247h-105v598h105v-251h218v251h105v-598z" />
    <glyph glyph-name="I" unicode="I" horiz-adv-x="249" 
d="M149 0h-105v598h105v-598z" />
    <glyph glyph-name="J" unicode="J" horiz-adv-x="472" 
d="M369 141c0 -20.667 -5.66895 -39.665 -17.002 -56.998c-7.33301 -10 -18.666 -23 -33.999 -39s-27.666 -26.667 -36.999 -32c-20.667 -12 -41.334 -18 -62.001 -18h-74c-44 0 -86.667 27.667 -128 83c-4 6 -10.667 18.667 -20 38l101 27c10.667 -23.333 24 -39 40 -47
c0.666992 -0.666992 3.33398 -1 8.00098 -1h68c3.33301 -0.666992 12.5 6.16602 27.5 20.499s22.5 23.166 22.5 26.499v456h105v-457z" />
    <glyph glyph-name="K" unicode="K" horiz-adv-x="539" 
d="M496 0h-129l-207 250h-11v-250h-105v598h105v-249h10l105 126l102 123h129l-249 -298l111.5 -134z" />
    <glyph glyph-name="L" unicode="L" horiz-adv-x="480" 
d="M414 0h-370v598h105v-498h265v-100z" />
    <glyph glyph-name="M" unicode="M" horiz-adv-x="661" 
d="M561 0h-105v409l-119 -262h-69l-119 261v-408h-105v598h120l140 -295l138 295h119v-598z" />
    <glyph glyph-name="N" unicode="N" horiz-adv-x="567" 
d="M467 0h-111l-207 397v-397h-105v598h113l205 -402v402h105v-598z" />
    <glyph glyph-name="O" unicode="O" horiz-adv-x="589" 
d="M499 142c0 -22 -5.33301 -40.998 -16 -56.998c-8 -10.667 -19.833 -24 -35.5 -40s-28.167 -26.667 -37.5 -32c-19.333 -12 -40 -18 -62 -18h-152c-22 0 -42.667 6 -62 18c-9.33301 5.33301 -22.166 16.166 -38.499 32.499s-27.833 29.5 -34.5 39.5
c-10.667 16 -16 35 -16 57v313c0 22 5.33301 41 16 57c6.66699 10 18.167 23.167 34.5 39.5s29.166 27.166 38.499 32.499c19.333 12 40 18 62 18h152c22 0 42.667 -6 62 -18c9.33301 -5.33301 21.833 -16 37.5 -32s27.5 -29.333 35.5 -40c10.667 -16 16 -35 16 -57v-313z
M150 452.002l0.000976562 -309.001c0 -2 0.333008 -3.33301 1 -4c13.333 -20 28 -34.333 44 -43c1.33301 -0.666992 3 -1 5 -1h144c2 0 3.66699 0.333008 5 1c16 8.66699 30.667 23 44 43l1 4v309c0 2.66699 -0.333008 4.33398 -1 5.00098
c-14 20.667 -28.667 35.334 -44 44.001c-1.33301 0.666992 -3 1 -5 1h-144c-2.66699 0 -4.33398 -0.333008 -5.00098 -1c-15.333 -8.66699 -30 -23.334 -44 -44.001z" />
    <glyph glyph-name="P" unicode="P" horiz-adv-x="537" 
d="M468 372c0 -22.667 -6 -42.9971 -18 -60.9971c-4.66699 -6.66699 -13 -15.834 -25 -27.501s-21.667 -20.167 -29 -25.5c-20.667 -14.667 -44.334 -22 -71.001 -22h-176v-236h-105v598h281c26.667 0 50.334 -7.33301 71.001 -22
c6.66699 -4.66699 16.167 -13.334 28.5 -26.001s20.833 -22.334 25.5 -29.001c12 -18 18 -38.333 18 -61v-88zM363 373.003v86.0029c0 3.33301 -0.333008 5.66602 -1 6.99902c-11.333 20 -22 30.667 -32 32h-5h-176v-162h176c4.66699 0 11 3.66699 19 11
s14 14.666 18 21.999c0.666992 1.33301 1 2.66602 1 3.99902z" />
    <glyph glyph-name="Q" unicode="Q" horiz-adv-x="593" 
d="M150 455l0.00195312 -309.001c0 -2 0.333008 -3.33301 1 -4c15.333 -23.333 30 -38.666 44 -45.999c1.33301 -0.666992 3 -1 5 -1h23l-6 15l96 32l20 -47h13c2 0 3.66699 0.333008 5 1c12 6.66699 26 22 42 46l1 4v309c0 2 -0.333008 3.33301 -1 4
c-13.333 20 -27.333 34 -42 42c-1.33301 0.666992 -3 1 -5 1h-146c-2.66699 0 -4.33398 -0.333008 -5.00098 -1c-16.667 -9.33301 -31.334 -23.333 -44.001 -42zM370.002 -3.00098l1 -1.99902l39 -87h-111l-37 87h-66c-22 0 -42.667 6 -62 18
c-9.33301 5.33301 -22.166 16.166 -38.499 32.499s-27.833 29.5 -34.5 39.5c-10.667 16 -16 35 -16 57v313c0 22 5.33301 41 16 57c6.66699 10 18.167 23.167 34.5 39.5s29.166 27.166 38.499 32.499c19.333 12 40 18 62 18h152c22 0 42.667 -6 62 -18
c9.33301 -5.33301 21.833 -16 37.5 -32s27.5 -29.333 35.5 -40c10.667 -16 16 -35 16 -57v-313c0 -22 -5.33301 -41 -16 -57c-8 -10.667 -19.833 -24 -35.5 -40s-28.167 -26.667 -37.5 -32c-18 -9.33301 -31.333 -14.666 -40 -15.999z" />
    <glyph glyph-name="R" unicode="R" horiz-adv-x="579" 
d="M468 372c0 -22.667 -6 -42.9961 -18 -60.9961c-4.66699 -6.66699 -13 -15.834 -25 -27.501s-21.667 -20.167 -29 -25.5c-8.66699 -6.66699 -17.334 -11.334 -26.001 -14.001l119 -244h-114l-111 236h-115v-236h-105v598h281c26.667 0 50.334 -7.33301 71.001 -22
c6.66699 -4.66699 16.167 -13.334 28.5 -26.001s20.833 -22.334 25.5 -29.001c12 -18 18 -38.333 18 -61v-88zM363 373.004v86.0029c0 3.33301 -0.333008 5.66602 -1 6.99902c-11.333 20 -22 30.667 -32 32h-181v-162h176c4.66699 0 11 3.66699 19 11s14 14.666 18 21.999
c0.666992 1.33301 1 2.66602 1 3.99902z" />
    <glyph glyph-name="S" unicode="S" horiz-adv-x="571" 
d="M486 142c0 -23.333 -5.33203 -42.334 -15.999 -57.001c-6.66699 -10 -18 -23.167 -34 -39.5s-29 -27.166 -39 -32.499c-21.333 -12 -42 -18 -62 -18h-174c-43.333 0 -85.666 27.667 -126.999 83c-4 5.33301 -10 15.666 -18 30.999l99 33c13.333 -18.667 28 -34 44 -46
c1.33301 -0.666992 3.66602 -1 6.99902 -1h164l6 1c7.33301 4 16.666 11.667 27.999 23s17 19 17 23v59c0 10 -4 15.667 -12 17l-260 74c-24.667 6.66699 -43.834 20.334 -57.501 41.001s-20.5 43.334 -20.5 68.001v54c0 23.333 5 42.333 15 57
c6.66699 9.33301 18.167 22.166 34.5 38.499s29.5 27.5 39.5 33.5c21.333 12 42 18 62 18h148c42.667 0 85 -27.667 127 -83c6.66699 -9.33301 13.334 -21 20.001 -35l-101 -29c-15.333 22 -30 37.333 -44 46c-0.666992 0.666992 -2.66699 1 -6 1h-141l-6 -1
c-8 -4 -17.167 -11.333 -27.5 -22s-15.5 -18 -15.5 -22v-50c0 -10 3.66699 -15.667 11 -17l261 -76c24 -6.66699 43 -20.5 57 -41.5s21 -43.5 21 -67.5v-63z" />
    <glyph glyph-name="T" unicode="T" horiz-adv-x="504" 
d="M441 498h-162v-498h-105v498h-162v100h429v-100z" />
    <glyph glyph-name="U" unicode="U" 
d="M358 143l-0.000976562 455.001h105v-456c0 -22 -5.33301 -41 -16 -57c-7.33301 -10 -18.833 -23.167 -34.5 -39.5s-28.5 -27.166 -38.5 -32.499c-19.333 -12 -39.666 -18 -60.999 -18h-127c-22 0 -42.667 6 -62 18c-9.33301 5.33301 -22.166 16.166 -38.499 32.499
s-27.833 29.5 -34.5 39.5c-10.667 16 -16 35 -16 57v456h105v-454c0 -2.66699 0.333008 -4.33398 1 -5.00098c14 -20.667 28.667 -35 44 -43l5 -1h119c2 0 3.66699 0.333008 5 1c15.333 8 29.666 22.333 42.999 43z" />
    <glyph glyph-name="V" unicode="V" horiz-adv-x="523" 
d="M493 598l-198 -598h-123l-197 598h112l147 -463l148 463h111z" />
    <glyph glyph-name="W" unicode="W" horiz-adv-x="738" 
d="M702 598l-139 -598h-119l-96 401l-97 -401h-120l-137 598h108l90 -420l99 420h112l99 -420l89 420h111z" />
    <glyph glyph-name="X" unicode="X" horiz-adv-x="532" 
d="M479 598l-181 -292l191 -306h-117l-132 213l-131 -213h-117l190 306l-180 292h116l122 -199l123 199h116z" />
    <glyph glyph-name="Y" unicode="Y" horiz-adv-x="520" 
d="M482 598l-198 -337v-261h-105v261l-196 337h116l133 -227l133 227h117z" />
    <glyph glyph-name="Z" unicode="Z" horiz-adv-x="491" 
d="M423 0h-394v85l263 413h-263v100h394v-87l-259 -411h259v-100z" />
    <glyph glyph-name="bracketleft" unicode="[" horiz-adv-x="324" 
d="M241 0h-197v598h197v-95h-92v-408h92v-95z" />
    <glyph glyph-name="backslash" unicode="\" horiz-adv-x="436" 
d="M422 0h-117l-326 600h116z" />
    <glyph glyph-name="bracketright" unicode="]" horiz-adv-x="329" 
d="M229 0h-197v95h92v408h-92v95h197v-598z" />
    <glyph glyph-name="asciicircum" unicode="^" horiz-adv-x="345" 
d="M-10 281l109 319h96l113 -319h-97l-63 192l-62 -192h-96z" />
    <glyph glyph-name="underscore" unicode="_" horiz-adv-x="462" 
d="M419 -94h-389v94h389v-94z" />
    <glyph glyph-name="grave" unicode="`" horiz-adv-x="381" 
d="M302 515l-92 -27l-118 146h118z" />
    <glyph glyph-name="a" unicode="a" horiz-adv-x="479" 
d="M292 271l-0.00195312 33.999c0 2.66699 -0.333008 4.33398 -1 5.00098c-6.66699 11.333 -17.334 21.333 -32.001 30c-2.66699 1.33301 -4.66699 2 -6 2h-88c-5.33301 0 -12.166 -3.66699 -20.499 -11s-14.833 -14 -19.5 -20l-94 28c4.66699 10.667 14.334 24 29.001 40
s26.667 27.333 36 34c23.333 16 47.333 24 72 24h86c28 0 52.333 -7.33301 73 -22c22 -16 38 -31.667 48 -47c11.333 -15.333 17 -36 17 -62v-218l10 -88h-99l-5 20c-23.333 -16.667 -44 -25 -62 -25h-82c-27.333 0 -51.333 7.33301 -72 22c-18 13.333 -33.667 29 -47 47
c-12 16.667 -18 37 -18 61v18c0 24 6 44.333 18 61c10.667 15.333 26.334 30.333 47.001 45s44.667 22 72 22h138zM291.998 129.999v52h-137c-2.66699 0 -5 -0.666992 -7 -2c-12 -7.33301 -22 -18 -30 -32c-0.666992 -1.33301 -1 -2.33301 -1 -3v-19l1 -3
c8.66699 -14.667 19 -25 31 -31c2.66699 -1.33301 4.66699 -2 6 -2h78c4.66699 0 14.5 5.33301 29.5 16s24.833 18.667 29.5 24z" />
    <glyph glyph-name="b" unicode="b" horiz-adv-x="490" 
d="M413 128c0 -24 -6 -44.667 -18 -62c-12 -18 -28 -34.333 -48 -49s-44 -22 -72 -22h-74c-20 0 -41.667 9 -65 27l-3 -22h-99l8 89v509h100v-184c22 15.333 41.667 23 59 23h74c28 0 52 -7 72 -21c16.667 -11.333 32.667 -27.666 48 -48.999
c12 -16.667 18 -37.334 18 -62.001v-177zM313 130v172.999l-1 5c-8 13.333 -18.667 24.333 -32 33c-0.666992 0.666992 -3 1 -7 1h-69c-5.33301 0 -15.166 -5.33301 -29.499 -16s-25.166 -20 -32.499 -28v-163c7.33301 -8 18.166 -17.5 32.499 -28.5
s24.166 -16.5 29.499 -16.5h70c1.33301 0 3.33301 0.666992 6 2c14 8.66699 24.667 19.334 32 32.001c0.666992 1.33301 1 3.33301 1 6z" />
    <glyph glyph-name="c" unicode="c" horiz-adv-x="469" 
d="M135 127c0 -2 0.666016 -3.99707 1.99902 -5.99707c6 -10.667 16.667 -20.334 32 -29.001c2.66699 -1.33301 4.66699 -2 6 -2h98c10 0 22.333 8.66699 37 26c0.666992 0.666992 1.66699 2 3 4l93 -28c-4.66699 -11.333 -14.167 -24.833 -28.5 -40.5
s-26.166 -26.834 -35.499 -33.501c-22.667 -15.333 -46.667 -23 -72 -23h-96c-28.667 0 -53 7 -73 21c-20 14.667 -36 31 -48 49c-12 16 -18 36.333 -18 61v180c0 24.667 6 45 18 61c12 18 28 34.333 48 49c20 14 44.333 21 73 21h95c25.333 0 49.333 -7.66699 72 -23
c11.333 -8 23.5 -19.167 36.5 -33.5s22.167 -27.833 27.5 -40.5l-93 -28l-3 4c-14.667 17.333 -27 26 -37 26h-97l-6 -2c-15.333 -8.66699 -26 -18.334 -32 -29.001l-2 -6v-178z" />
    <glyph glyph-name="d" unicode="d" horiz-adv-x="495" 
d="M412 0h-98l-4 22c-23.333 -18 -45 -27 -65 -27h-72c-28 0 -52 7.33301 -72 22s-36 31 -48 49c-12 17.333 -18 38 -18 62v177c0 24.667 6 45.334 18 62.001c15.333 21.333 31.333 37.666 48 48.999c20 14 44 21 72 21h72c17.333 0 37 -7.66699 59 -23v184h100v-509z
M304 135v163.001c-7.33301 8 -18.166 17.333 -32.499 28s-24.166 16 -29.499 16h-68c-3.33301 0 -5.33301 -0.333008 -6 -1c-13.333 -8.66699 -24 -19.667 -32 -33c-0.666992 -1.33301 -1 -3 -1 -5v-173l1 -6c7.33301 -12.667 18 -23.334 32 -32.001
c2.66699 -1.33301 4.66699 -2 6 -2h68c5.33301 0 15.166 5.5 29.499 16.5s25.166 20.5 32.499 28.5z" />
    <glyph glyph-name="e" unicode="e" horiz-adv-x="483" 
d="M406 168l-271.001 0.00195312v-41l1 -5c4.66699 -7.33301 11.167 -14.5 19.5 -21.5s14.833 -10.5 19.5 -10.5h97c10 0 22.333 8.66699 37 26l3 4l93 -28c-4.66699 -11.333 -14.167 -24.833 -28.5 -40.5s-26.166 -26.834 -35.499 -33.501
c-22.667 -15.333 -46.667 -23 -72 -23h-94c-28.667 0 -53 7 -73 21c-18.667 14 -34.667 30 -48 48c-12.667 17.333 -19 38 -19 62v180c0 23.333 6.33301 43.666 19 60.999c13.333 18 29.333 34 48 48c20.667 14.667 45 22 73 22h92c28 0 52.333 -7.33301 73 -22
c20.667 -15.333 36.667 -31.333 48 -48c12 -16 18 -36.333 18 -61v-138zM305.999 257.002v47c0 3.33301 -0.333008 5.33301 -1 6c-7.33301 12 -18.333 22.333 -33 31c-1.33301 0.666992 -3.33301 1 -6 1h-91c-4.66699 0 -11.167 -3.5 -19.5 -10.5
s-14.833 -14.167 -19.5 -21.5l-1 -6v-47h171z" />
    <glyph glyph-name="f" unicode="f" horiz-adv-x="340" 
d="M307 508l-92.999 -1c-4.66699 0 -8.33398 -0.666992 -11.001 -2c-18 -10 -27.667 -19.667 -29 -29v-44h109v-95h-109v-337h-100v337h-67v95h67v38c0 25.333 6 46 18 62c14.667 20 30.667 36 48 48c20.667 14.667 45 22 73 22h94v-94z" />
    <glyph glyph-name="g" unicode="g" horiz-adv-x="499" 
d="M420 432l-8.99902 -90v-378c0 -26.667 -5.66699 -47.667 -17 -63c-11.333 -16.667 -27.333 -32.667 -48 -48c-20.667 -14.667 -45 -22 -73 -22h-88c-24.667 0 -48.667 8 -72 24c-9.33301 6.66699 -21.166 17.834 -35.499 33.501s-23.833 29.167 -28.5 40.5l93 28
c0.666992 -1.33301 1.66699 -2.66602 3 -3.99902c15.333 -18 27.666 -27 36.999 -27h90c1.33301 0 3.33301 0.666992 6 2c5.33301 3.33301 12 8.5 20 15.5s12.333 12.167 13 15.5v7v54c-22.667 -16 -42.334 -24 -59.001 -24h-77c-28 0 -52.333 7.33301 -73 22
c-16.667 11.333 -32.667 27.666 -48 48.999c-12 16 -18 36.667 -18 62v175c0 25.333 6 46 18 62c15.333 21.333 31.333 37.666 48 48.999c20.667 14.667 45 22 73 22h77c20.667 0 42.667 -9 66 -27l4 22h98zM176.001 91h73.001c3.33301 0 5.66602 0.333008 6.99902 1
c18.667 9.33301 37 24.333 55 45v158c-29.333 31.333 -50 47 -62 47h-73c-1.33301 0 -3.33301 -0.666992 -6 -2c-14.667 -9.33301 -25.667 -20.333 -33 -33l-1 -5v-171c0 -2.66699 0.333008 -4.66699 1 -6c7.33301 -12.667 18.333 -23.667 33 -33
c1.33301 -0.666992 3.33301 -1 6 -1z" />
    <glyph glyph-name="h" unicode="h" horiz-adv-x="485" 
d="M302 0l-0.000976562 302.999l-1 5c-8 13.333 -18.667 24.333 -32 33c-0.666992 0.666992 -2.66699 1 -6 1h-69c-6 0 -16 -5.33301 -30 -16s-24.333 -20.334 -31 -29.001v-297h-100v598h100v-185c22.667 16 42.334 24 59.001 24h72c28 0 52 -7.33301 72 -22
c16.667 -11.333 32.667 -27.666 48 -48.999c12 -17.333 18 -37.666 18 -60.999v-305h-100z" />
    <glyph glyph-name="i" unicode="i" horiz-adv-x="225" 
d="M147 493h-107v107h107v-107zM144 0h-100v432h100v-432z" />
    <glyph glyph-name="j" unicode="j" horiz-adv-x="232" 
d="M163 493h-107v107h107v-107zM-62 -72h81l6 1c16 10 27.333 21.667 34 35c0.666992 2 1 3.66699 1 5v463h100v-464c0 -24.667 -6 -45.667 -18 -63c-14.667 -20.667 -31 -37 -49 -49c-20 -14 -43.667 -21 -71 -21h-84v93z" />
    <glyph glyph-name="k" unicode="k" horiz-adv-x="440" 
d="M415 0h-128l-136 182h-18v-182h-100v598h100v-322h19l21.5 26l41.5 50.5l47 57.5l18 22h124l-166 -202z" />
    <glyph glyph-name="l" unicode="l" horiz-adv-x="230" 
d="M153 0h-101l-12 77v521h100v-510z" />
    <glyph glyph-name="m" unicode="m" horiz-adv-x="716" 
d="M633 0l-100 0.00292969v304c0 2 -0.333008 4 -1 6c-6 11.333 -16.333 21.666 -31 30.999c-1.33301 0.666992 -4 1 -8 1h-46c-14 0 -33.333 -13.333 -58 -40v-302h-1h-98h-1v304c0 2.66699 -0.333008 4.66699 -1 6c-5.33301 10 -16.333 20.333 -33 31
c-1.33301 0.666992 -4 1 -8 1h-46c-4 0 -8.16699 -0.833008 -12.5 -2.5s-8.16602 -3.33398 -11.499 -5.00098s-7 -4.33398 -11 -8.00098s-7 -6.5 -9 -8.5s-4.83301 -5.16699 -8.5 -9.5s-5.83398 -6.83301 -6.50098 -7.5v-301h-100v343l-10 89h98l5 -23
c26 18.667 47 28 63 28h50c28 0 52.333 -7.33301 73 -22c8 -6 17.667 -14.667 29 -26l22 17c27.333 20.667 51.333 31 72 31h50c28 0 52.333 -7.33301 73 -22c20.667 -15.333 36.667 -31.333 48 -48c12 -16 18 -36.333 18 -61v-306z" />
    <glyph glyph-name="n" unicode="n" horiz-adv-x="495" 
d="M412 0l-99.999 0.000976562v304c0 2.66699 -0.333008 4.66699 -1 6c-6 11.333 -16.333 21.666 -31 30.999c-0.666992 0.666992 -3.33398 1 -8.00098 1h-70c-14 0 -33.667 -13.667 -59 -41v-301h-100v343l-10 89h98l5 -23c26 18.667 47 28 63 28h74
c28 0 52.333 -7.33301 73 -22c20.667 -15.333 36.667 -31.333 48 -48c12 -16 18 -36.333 18 -61v-306z" />
    <glyph glyph-name="o" unicode="o" horiz-adv-x="482" 
d="M405 126c0 -25.333 -5.66699 -45.666 -17 -60.999c-12 -18 -28 -34.333 -48 -49c-20 -14 -44.333 -21 -73 -21h-94c-28 0 -52 7 -72 21c-7.33301 5.33301 -16.333 13.333 -27 24s-18 19 -22 25c-11.333 15.333 -17 35.666 -17 60.999v180
c0 25.333 5.66699 45.666 17 60.999c10.667 16 27 32 49 48c20.667 14.667 44.667 22 72 22h94c28 0 52.333 -7.33301 73 -22c20.667 -15.333 36.667 -31.333 48 -48c11.333 -15.333 17 -35.666 17 -60.999v-180zM135 303v-181.999c0 -7.33301 11 -17.333 33 -30
c1.33301 -0.666992 3.33301 -1 6 -1h92c1.33301 0 3.33301 0.666992 6 2c21.333 12 32.333 21.667 33 29v182c0 2 -0.333008 4 -1 6c-8 13.333 -19 24 -33 32c-1.33301 0.666992 -3 1 -5 1h-92c-2 0 -3.66699 -0.333008 -5 -1c-14.667 -8.66699 -25.667 -19.334 -33 -32.001
z" />
    <glyph glyph-name="p" unicode="p" horiz-adv-x="491" 
d="M412 127c0 -24.667 -6 -45.334 -18 -62.001c-15.333 -21.333 -31.333 -37.666 -48 -48.999c-20 -14 -44 -21 -72 -21h-73c-17.333 0 -37 7.66699 -59 23v-181h-100v506l-9 89h99l4 -22c23.333 18 45 27 65 27h73c28 0 52 -7.33301 72 -22s36 -31 48 -49
c12 -17.333 18 -38 18 -62v-177zM312 129v172.999l-1 6c-7.33301 12.667 -18 23.334 -32 32.001c-2.66699 1.33301 -4.66699 2 -6 2h-69c-5.33301 0 -15.166 -5.5 -29.499 -16.5s-25.166 -20.5 -32.499 -28.5v-163c7.33301 -8 18.166 -17.333 32.499 -28
s24.166 -16 29.499 -16h69c2.66699 0 4.66699 0.333008 6 1c13.333 8.66699 24 19.667 32 33c0.666992 1.33301 1 3 1 5z" />
    <glyph glyph-name="q" unicode="q" horiz-adv-x="497" 
d="M414 432l-9 -89v-506h-100v181c-22 -15.333 -41.667 -23 -59 -23h-73c-28 0 -52 7 -72 21c-16.667 11.333 -32.667 27.666 -48 48.999c-12 16.667 -18 37.334 -18 62.001v177c0 24 6 44.667 18 62c12 18 28 34.333 48 49s44 22 72 22h73c20 0 41.667 -9 65 -27l5 22h98z
M305 134v163.001c-7.33301 8 -18.166 17.5 -32.499 28.5s-24.166 16.5 -29.499 16.5h-69c-1.33301 0 -3.33301 -0.666992 -6 -2c-14 -8.66699 -24.667 -19.334 -32 -32.001c-0.666992 -2 -1 -4 -1 -6v-173l1 -5c8 -13.333 18.667 -24.333 32 -33l2 -1h4h69
c5.33301 0 15.166 5.33301 29.499 16s25.166 20 32.499 28z" />
    <glyph glyph-name="r" unicode="r" horiz-adv-x="416" 
d="M394 340l-93.002 -28.001c-15.333 20 -30.333 30 -45 30h-54c-18 0 -38.333 -14.333 -61 -43v-299h-100v343l-8 89h97l5 -24c26.667 19.333 48 29 64 29h60c25.333 0 50 -8.33301 74 -25c10.667 -8 22.334 -19.167 35.001 -33.5s21.334 -27.166 26.001 -38.499z" />
    <glyph glyph-name="s" unicode="s" horiz-adv-x="469" 
d="M110 117c14.667 -16.667 27.0029 -25.6699 37.0029 -27.0029h116c6 0 13.5 4.33301 22.5 13s13.5 16.334 13.5 23.001v24c0 8.66699 -4.33301 13.334 -13 14.001l-72.5 5.5c-39.667 3 -70.167 5.5 -91.5 7.5c-28 2 -50.667 11.833 -68 29.5s-26 41.834 -26 72.501v30
c0 24 6 44.333 18 61c31.333 44.667 70 67 116 67h96c25.333 0 49.333 -7.66699 72 -23c11.333 -8 23.666 -19.167 36.999 -33.5s22.666 -27.833 27.999 -40.5l-94 -28c-0.666992 1.33301 -1.66699 2.66602 -3 3.99902c-14.667 17.333 -27 26 -37 26h-96
c-6 0 -10.333 -0.666992 -13 -2c-9.33301 -4.66699 -17 -12.334 -23 -23.001c-0.666992 -1.33301 -1 -4.66602 -1 -9.99902v-24c0 -2 1.33301 -4.5 4 -7.5s6.33398 -4.83301 11.001 -5.5l69 -6.5l88 -8.5c29.333 -3.33301 53.166 -13.5 71.499 -30.5
s27.5 -41.167 27.5 -72.5v-28c0 -23.333 -6.33301 -43.666 -19 -60.999c-12.667 -18.667 -27.667 -34 -45 -46c-20.667 -14.667 -44.334 -22 -71.001 -22h-114c-24.667 0 -48.667 8 -72 24c-11.333 8 -23.5 19.167 -36.5 33.5s-22.167 27.833 -27.5 40.5l93 28z" />
    <glyph glyph-name="t" unicode="t" horiz-adv-x="350" 
d="M167 337v-202.998c0 -2.66699 0.333008 -4.66699 1 -6c4 -6.66699 10 -13.834 18 -21.501s15 -11.5 21 -11.5h83v-95h-84c-28 0 -52 7 -72 21c-16.667 11.333 -32.667 27.666 -48 48.999c-12.667 18.667 -19 39.667 -19 63v204h-67v95h67v166h100v-166h124v-95h-124z" />
    <glyph glyph-name="u" unicode="u" horiz-adv-x="488" 
d="M410 0l-98 -0.000976562l-4 25c-26.667 -19.333 -47.667 -29 -63 -29h-75c-28.667 0 -53 7 -73 21c-20 14.667 -36 31 -48 49c-12 16 -18 36.333 -18 61v305h100v-303c0 -3.33301 0.333008 -5.66602 1 -6.99902c5.33301 -9.33301 16.333 -19.333 33 -30
c1.33301 -0.666992 3.33301 -1 6 -1h71c4.66699 0 14 4.83301 28 14.5s24.333 18.167 31 25.5v301h100v-343z" />
    <glyph glyph-name="v" unicode="v" horiz-adv-x="430" 
d="M405 432l-156 -432h-106l-159 432h112l101 -293l102 293h106z" />
    <glyph glyph-name="w" unicode="w" horiz-adv-x="660" 
d="M626 432l-134 -432h-102l-81 271l-83 -271h-102l-132 432h106l80 -279l79 279h105l77 -279l82 279h105z" />
    <glyph glyph-name="x" unicode="x" horiz-adv-x="444" 
d="M412 0h-118l-91 134l-91 -134h-119l150 221l-145 211h119l86 -127l83 127h119l-143 -212z" />
    <glyph glyph-name="y" unicode="y" horiz-adv-x="430" 
d="M405 432l-212 -594h-101l60 162h-9l-159 432h112l101 -293l102 293h106z" />
    <glyph glyph-name="z" unicode="z" horiz-adv-x="444" 
d="M379 0h-344v81l199 256h-207v95h342v-82l-200 -255h210v-95z" />
    <glyph glyph-name="braceleft" unicode="{" horiz-adv-x="351" 
d="M147 455l0.00195312 -312.998c0 -5.33301 5.66699 -13.333 17 -24s21.333 -18.334 30 -23.001c0.666992 -0.666992 2.66699 -1 6 -1h68v-98h-76c-18.667 0 -38.667 6 -60 18c-10 6 -23.167 16.667 -39.5 32s-27.5 27.666 -33.5 36.999c-10 14.667 -15 34 -15 58v316
c0 23.333 5.33301 42.333 16 57c7.33301 10 18.666 23 33.999 39s27.666 26.667 36.999 32c18 11.333 38.333 17 61 17h76v-98h-71l-6 -1c-16 -8.66699 -30.333 -23 -43 -43z" />
    <glyph glyph-name="bar" unicode="|" horiz-adv-x="237" 
d="M137 -92h-98v759h98v-759z" />
    <glyph glyph-name="braceright" unicode="}" horiz-adv-x="357" 
d="M257 457l-0.000976562 -316.002c0 -23.333 -5 -42.666 -15 -57.999c-6 -9.33301 -17.167 -21.666 -33.5 -36.999s-29.5 -26 -39.5 -32c-21.333 -12 -41.666 -18 -60.999 -18h-76v98h71l4 1c7.33301 4 17 12.167 29 24.5s18 19.833 18 22.5v313
c0 3.33301 -5.83301 11 -17.5 23s-21.5 20.333 -29.5 25c-0.666992 0.666992 -1.66699 1 -3 1h-72v98h76c22.667 0 43 -5.66699 61 -17c9.33301 -5.33301 22 -16 38 -32s27.333 -29 34 -39c10.667 -16 16 -35 16 -57z" />
    <glyph glyph-name="asciitilde" unicode="~" horiz-adv-x="462" 
d="M387 220l-95.001 -29.001c-8 19.333 -18 27.666 -30 24.999l-106 -23c-28 -5.33301 -54.5 -0.666016 -79.5 14.001s-44.167 39 -57.5 73l94 29c8.66699 -20 18.667 -28.667 30 -26l107 22c28.667 5.33301 55.334 0.833008 80.001 -13.5s43.667 -38.166 57 -71.499z" />
    <glyph glyph-name="nbspace" unicode="&#xa0;" horiz-adv-x="200" 
 />
    <glyph glyph-name="exclamdown" unicode="&#xa1;" horiz-adv-x="261" 
d="M161 487h-113v111h113v-111zM156 0h-103v432h103v-432z" />
    <glyph glyph-name="cent" unicode="&#xa2;" horiz-adv-x="456" 
d="M193 -163l-0.00195312 158.002h-19c-28.667 0 -53 7 -73 21c-20 14.667 -36 31 -48 49c-12 16 -18 36.333 -18 61v180c0 24.667 6 45 18 61c11.333 16.667 27.333 32.667 48 48c20.667 14.667 45 22 73 22h19l1 160h58l-1 -160h25c23.333 0 47.333 -8.33301 72 -25
c9.33301 -6.66699 21.333 -18 36 -34s24.334 -29.333 29.001 -40l-94 -28c-0.666992 1.33301 -1.66699 2.66602 -3 3.99902c-16 18.667 -28.333 28 -37 28h-28v-252h32c10 0 22.333 8.66699 37 26c0.666992 0.666992 1.66699 2 3 4l93 -28
c-4.66699 -11.333 -14.167 -24.833 -28.5 -40.5s-26.166 -26.834 -35.499 -33.501c-22.667 -15.333 -46.667 -23 -72 -23h-29v-158h-58zM134.998 304.002v-176.999c0 -2 0.666992 -4 2 -6c6 -10.667 16.667 -20.334 32 -29.001c2.66699 -1.33301 4.66699 -2 6 -2h18v252h-18
c-2.66699 0 -4.66699 -0.333008 -6 -1c-15.333 -9.33301 -26.333 -19.333 -33 -30z" />
    <glyph glyph-name="sterling" unicode="&#xa3;" horiz-adv-x="588" 
d="M410 156l98.0029 -30c-4.66699 -16.667 -12.334 -31.667 -23.001 -45c-40 -54 -82.333 -81 -127 -81h-282v175h-39v94h39v24h-39v94h39v57c0 23.333 5 42 15 56c6.66699 10 18 23 34 39s28.667 26.667 38 32c21.333 12 41.666 18 60.999 18h143v-100h-139l-5 -1
c-16.667 -9.33301 -30.334 -23 -41.001 -41c-0.666992 -1.33301 -1 -4.33301 -1 -9v-51h210v-94h-210v-24h210v-94h-210v-75h174c3.33301 0 5.33301 0.333008 6 1c14 7.33301 28.667 22.333 44 45z" />
    <glyph glyph-name="currency" unicode="&#xa4;" 
d="M216 163c-10 0 -17.3311 0.334961 -21.998 1.00195l-48 -48l-69 69l34 34l-6 9c-14 20 -21 44.333 -21 73v10c0 28 7 52 21 72c0.666992 1.33301 2 3 4 5s3.33301 3.66699 4 5l-34 35l65 67l47 -48c6 1.33301 14.333 2 25 2h101c10 0 17.667 -0.666992 23 -2l48 48
l67 -69l-35 -36c0.666992 -0.666992 1.66699 -1.83398 3 -3.50098s2.33301 -2.83398 3 -3.50098c14.667 -20.667 22 -44.667 22 -72v-10c0 -28 -7.33301 -52.333 -22 -73c-0.666992 -1.33301 -1.83398 -3 -3.50098 -5s-2.83398 -3.33301 -3.50098 -4l36 -36l-67 -67l-48 48
c-5.33301 -0.666992 -13 -1 -23 -1h-101zM322.002 355.002h-118.999c-8 0 -18.667 -11.333 -32 -34v-24c0 -2.66699 0.333008 -4.66699 1 -6c14 -21.333 24.333 -32.333 31 -33h119c2 0 4 0.333008 6 1c13.333 8 24 19 32 33v28c-8.66699 14.667 -19.334 26 -32.001 34z" />
    <glyph glyph-name="yen" unicode="&#xa5;" horiz-adv-x="491" 
d="M499 598l-148 -242h83v-94h-130v-29h130v-94h-130v-139h-105v139h-135v94h135v29h-135v94h85l-143 242h116l130 -222l131 222h116z" />
    <glyph glyph-name="brokenbar" unicode="&#xa6;" horiz-adv-x="193" 
d="M137 341h-98v326h98v-326zM137 -94h-98v329h98v-329z" />
    <glyph glyph-name="section" unicode="&#xa7;" horiz-adv-x="510" 
d="M444 476l-92.9961 -30.001c-3.33301 6.66699 -7.33301 13.667 -12 21s-10.667 14.833 -18 22.5s-14 11.5 -20 11.5h-125c-5.33301 0 -12.833 -4.33301 -22.5 -13s-14.167 -15.667 -13.5 -21c2 -15.333 6.66699 -23.333 14 -24l126 -7
c35.333 -1.33301 61.666 -7.66602 78.999 -18.999c18 -11.333 36.333 -28.666 55 -51.999c15.333 -20.667 23 -44 23 -70v-7c0 -32 -11.667 -59.667 -35 -83c22 -20.667 33 -45.667 33 -75v-13c0 -19.333 -6 -38 -18 -56c-10.667 -15.333 -25.667 -30.333 -45 -45
c-20.667 -15.333 -44.667 -23 -72 -23h-124c-44 0 -83.667 23.667 -119 71c-8 10.667 -17 26.334 -27 47.001l95 32c20 -36.667 36.333 -55 49 -55h126c5.33301 0 11.666 2.83301 18.999 8.5s12.666 11.5 15.999 17.5v18c0 2 -1.33301 4.16699 -4 6.5s-5.66699 3.5 -9 3.5
l-132 6c-24.667 1.33301 -46 7.66602 -64 18.999c-24 16 -43 33 -57 51c-14.667 19.333 -22 42.666 -22 69.999v7c0 30 10.667 56.667 32 80c-22 19.333 -35 49.333 -39 90c-2 22 4.33301 43.333 19 64c32 44.667 70.667 67 116 67h125c27.333 0 51 -7.33301 71 -22
c31.333 -23.333 55.666 -56 72.999 -98zM146.004 296.999v-10.001c0 -2 0.333008 -3.66699 1 -5c0 -0.666992 2.16699 -3.66699 6.5 -9l14.5 -17c5.33301 -6 9.33301 -9.33301 12 -10l117 -6l6 1c7.33301 4.66699 15.166 12.334 23.499 23.001s12.5 18 12.5 22v9l-1 5
c-11.333 18 -24 30.667 -38 38c-1.33301 0.666992 -2.66602 1 -3.99902 1l-116 5c-11.333 -6.66699 -22.333 -20 -33 -40z" />
    <glyph glyph-name="dieresis" unicode="&#xa8;" horiz-adv-x="363" 
d="M333 496h-97v103h97v-103zM172 496h-97v103h97v-103z" />
    <glyph glyph-name="copyright" unicode="&#xa9;" horiz-adv-x="714" 
d="M59 84c-11.333 17.333 -17 36.333 -17 57v316c0 23.333 5.33301 42.333 16 57c6.66699 10 18 23 34 39s28.667 26.667 38 32c18 11.333 38.333 17 61 17h302c22.667 0 43 -5.66699 61 -17c9.33301 -5.33301 22 -16 38 -32s27.333 -29 34 -39
c11.333 -17.333 17 -36.333 17 -57v-316c0 -23.333 -5.33301 -42.333 -16 -57c-6.66699 -10 -18 -23 -34 -39s-28.667 -26.667 -38 -32c-18 -11.333 -38.333 -17 -61 -17h-302c-22.667 0 -43 5.66699 -61 17c-9.33301 5.33301 -22 16 -38 32s-27.333 29 -34 39zM544 143v312
c0 3.33301 -6.16699 11.666 -18.5 24.999s-22.5 22 -30.5 26c-2.66699 1.33301 -5 2 -7 2h-291c-3.33301 0 -6.33301 -0.666992 -9 -2c-20.667 -10.667 -36 -25.667 -46 -45c-0.666992 -1.33301 -1 -3.33301 -1 -6v-312c0 -3.33301 6.16699 -11.666 18.5 -24.999
s22.5 -22 30.5 -26c2.66699 -1.33301 5 -2 7 -2h291c3.33301 0 6.33301 0.666992 9 2c20.667 10.667 36 25.667 46 45c0.666992 1.33301 1 3.33301 1 6zM197 246c0 -21.333 5.33301 -39.668 16 -55.001c3.33301 -5.33301 9.83301 -12.833 19.5 -22.5
s17.834 -16.834 24.501 -21.501c17.333 -12.667 38.666 -19 63.999 -19h47c23.333 0 44.833 9.66699 64.5 29s35.5 41.333 47.5 66l-80 21c-4.66699 -13.333 -13.667 -24 -27 -32c-1.33301 -0.666992 -3.33301 -1 -6 -1h-52c-4 0.666992 -9 3.83398 -15 9.50098
s-10 11.167 -12 16.5l-1 7v107c0 2.66699 0.333008 5 1 7c2 5.33301 6 10.833 12 16.5s11 8.83398 15 9.50098h52c2.66699 0 4.66699 -0.333008 6 -1c13.333 -8 22.333 -18.667 27 -32l80 21c-12 24.667 -27.833 46.667 -47.5 66s-41.167 29 -64.5 29h-47
c-25.333 0 -46.666 -6.33301 -63.999 -19c-6.66699 -4.66699 -14.834 -11.834 -24.501 -21.501s-16.167 -17.167 -19.5 -22.5c-10.667 -15.333 -16 -33.666 -16 -54.999v-103z" />
    <glyph glyph-name="ordfeminine" unicode="&#xaa;" horiz-adv-x="385" 
d="M315 280l-83 0.00195312l-3 18c-24 -15.333 -40.333 -23 -49 -23h-44c-20 0 -38.333 5.66699 -55 17c-14.667 11.333 -27.334 23.666 -38.001 36.999c-8.66699 12 -13 28 -13 48v128c0 20 4.33301 36 13 48c10.667 13.333 23.334 25.666 38.001 36.999
c16.667 11.333 35 17 55 17h54c6.66699 0 18 -3.33301 34 -10v9h82v-257zM223 497.002c0 2.66699 -0.332031 4.33008 -0.999023 4.99707c-8.66699 10.667 -16.334 18 -23.001 22c-0.666992 0.666992 -2.33398 1 -5.00098 1h-52c-2.66699 0 -4.33398 -0.333008 -5.00098 -1
c-8.66699 -5.33301 -16.334 -12.666 -23.001 -21.999l-1 -5v-112c0 -2 0.333008 -3.66699 1 -5c6.66699 -9.33301 14.334 -16.666 23.001 -21.999c0.666992 -0.666992 2.33398 -1 5.00098 -1h42c2.66699 0 4.33398 0.333008 5.00098 1c20.667 12.667 31.667 20 33 22
c0.666992 0.666992 1 2.33398 1 5.00098v112z" />
    <glyph glyph-name="guillemotleft" unicode="&#xab;" horiz-adv-x="599" 
d="M532 110l-111 -29l-161 162l161 162l109 -32l-135 -130zM309 110l-111 -29l-161 162l161 162l109 -32l-135 -130z" />
    <glyph glyph-name="logicalnot" unicode="&#xac;" horiz-adv-x="514" 
d="M459 290l1 -233h-97v139h-319v94h416h-1z" />
    <glyph glyph-name="registered" unicode="&#xae;" horiz-adv-x="714" 
d="M462 283c-11.333 -14.667 -22.334 -26.667 -33.001 -36l62 -116h-93l-48 93h-48v-95h-89v336h148c22.667 0 43.334 -6.66699 62.001 -20c14.667 -9.33301 27.667 -23 39 -41c8.66699 -14 13.667 -31 15 -51v-16c0 -20.667 -5 -38.667 -15 -54zM389.999 354
c-6.66699 11.333 -15.667 20.667 -27 28h-61v-74h62c10 4.66699 18.667 14 26 28v18zM58.999 84.001c-11.333 17.333 -17 36.333 -17 57v316c0 23.333 5.33301 42.333 16 57c6.66699 10 18 23 34 39s28.667 26.667 38 32c18 11.333 38.333 17 61 17h302
c22.667 0 43 -5.66699 61 -17c9.33301 -5.33301 22 -16 38 -32s27.333 -29 34 -39c11.333 -17.333 17 -36.333 17 -57v-316c0 -23.333 -5.33301 -42.333 -16 -57c-6.66699 -10 -18 -23 -34 -39s-28.667 -26.667 -38 -32c-18 -11.333 -38.333 -17 -61 -17h-302
c-22.667 0 -43 5.66699 -61 17c-9.33301 5.33301 -22 16 -38 32s-27.333 29 -34 39zM543.999 143.001v312c0 3.33301 -6.16699 11.666 -18.5 24.999s-22.5 22 -30.5 26c-2.66699 1.33301 -5 2 -7 2h-291c-3.33301 0 -6.33301 -0.666992 -9 -2
c-20.667 -10.667 -36 -25.667 -46 -45c-0.666992 -1.33301 -1 -3.33301 -1 -6v-312c0 -3.33301 6.16699 -11.666 18.5 -24.999s22.5 -22 30.5 -26c2.66699 -1.33301 5 -2 7 -2h291c3.33301 0 6.33301 0.666992 9 2c20.667 10.667 36 25.667 46 45
c0.666992 1.33301 1 3.33301 1 6z" />
    <glyph glyph-name="macron" unicode="&#xaf;" horiz-adv-x="355" 
d="M268 509h-227v89h227v-89z" />
    <glyph glyph-name="degree" unicode="&#xb0;" horiz-adv-x="353" 
d="M253 586c0 -28.667 -10.167 -53.167 -30.5 -73.5s-44.5 -30.5 -72.5 -30.5s-52.5 10.167 -73.5 30.5s-31.5 44.833 -31.5 73.5c0 27.333 10.5 51.166 31.5 71.499s45.5 30.5 73.5 30.5s52.167 -10.167 72.5 -30.5s30.5 -44.166 30.5 -71.499zM195 586
c0 12 -4.33301 22.5 -13 31.5s-19.334 13.5 -32.001 13.5s-23.667 -4.5 -33 -13.5s-14 -19.5 -14 -31.5c0 -13.333 4.66699 -24.666 14 -33.999s20.333 -14 33 -14s23.334 4.66699 32.001 14s13 20.666 13 33.999z" />
    <glyph glyph-name="plusminus" unicode="&#xb1;" horiz-adv-x="514" 
d="M432 196h-142v-139h-97v139h-142v94h142v141h97v-141h142v-94zM432 -94h-383v94h383v-94z" />
    <glyph glyph-name="twosuperior" unicode="&#xb2;" horiz-adv-x="386" 
d="M232 501c0 6 -3.00195 11.998 -9.00195 17.998s-12.667 9 -20 9h-49c-5.33301 0 -14 -4.16699 -26 -12.5s-21.667 -16.166 -29 -23.499l-64 46c12 14.667 29.667 30.334 53 47.001c20 14.667 43.667 22 71 22h45c34.667 0 66 -17.667 94 -53c12 -14.667 18 -32 18 -52v-9
c0 -19.333 -9.5 -37.333 -28.5 -54s-39.5 -28.667 -61.5 -36l-84 -26c-2.66699 -0.666992 -4.66699 -1.66699 -6 -3s-2.16602 -2.5 -2.49902 -3.5s-0.5 -2.5 -0.5 -4.5v-4h175v-81h-264v82c0 22.667 6.33301 40 19 52s31.334 22 56.001 30l86 32c18 8 27 16 27 24z" />
    <glyph glyph-name="threesuperior" unicode="&#xb3;" horiz-adv-x="392" 
d="M146 473l54 -0.00292969c25.333 -1.33301 38 5.33398 38 20.001c0 10 -7 18.667 -21 26c-1.33301 0.666992 -4 1 -8 1h-67c-10.667 0 -23 -8.33301 -37 -25l-70 40c10 14 24 28.333 42 43c20 14.667 42.333 22 67 22h66c37.333 0 68.333 -14 93 -42
c12.667 -18.667 19 -40 19 -64c0 -27.333 -9.33301 -46.666 -28 -57.999c18.667 -11.333 28 -30.333 28 -57c0 -23.333 -6.33301 -44.666 -19 -63.999c-24.667 -28 -55.667 -42 -93 -42h-66c-24.667 0 -47 7.33301 -67 22c-15.333 11.333 -29.333 25.666 -42 42.999l70 40
c14.667 -17.333 27 -26 37 -26h67c4 0 7.33301 0.666992 10 2c12.667 7.33301 19 16 19 26c0 14.667 -12.667 21.334 -38 20.001h-54v73z" />
    <glyph glyph-name="acute" unicode="&#xb4;" horiz-adv-x="371" 
d="M225 488l-92 27l92 119h118z" />
    <glyph glyph-name="mu" unicode="&#xb5;" horiz-adv-x="488" 
d="M410 0h-98.999l-3 25c-26.667 -19.333 -47.667 -29 -63 -29h-75c-12.667 0 -25.667 1.66699 -39 5v-162h-100c-0.666992 38.667 -0.833984 133 -0.500977 283s0.5 253.333 0.5 310h100v-310c5.33301 -9.33301 16.333 -19.333 33 -30c1.33301 -0.666992 3.33301 -1 6 -1
h72c4.66699 0 14 4.83301 28 14.5s24.333 18.167 31 25.5v301h100v-343z" />
    <glyph glyph-name="paragraph" unicode="&#xb6;" horiz-adv-x="527" 
d="M468 0l-101 -0.000976562v244h-37v-244h-101v244h-48c-27.333 0 -51 7 -71 21c-7.33301 5.33301 -17 13.833 -29 25.5s-20.333 20.834 -25 27.501c-12 18 -18 38 -18 60v73c0 22.667 6 43 18 61c4.66699 6.66699 13.167 16.167 25.5 28.5s21.833 20.833 28.5 25.5
c20 14.667 43.667 22 71 22h287v-588zM367 342.999v145h-37v-145h37zM144 455.999c-0.666992 -1.33301 -1 -3.33301 -1 -6v-70l1 -5c18 -21.333 30.667 -32 38 -32h47v145h-47c-2.66699 0 -4.66699 -0.333008 -6 -1c-15.333 -10 -26 -20.333 -32 -31z" />
    <glyph glyph-name="periodcentered" unicode="&#xb7;" horiz-adv-x="286" 
d="M178 196h-122v100h122v-100z" />
    <glyph glyph-name="cedilla" unicode="&#xb8;" horiz-adv-x="406" 
d="M296 -73l-80 -125h-113l96 154z" />
    <glyph glyph-name="onesuperior" unicode="&#xb9;" horiz-adv-x="332" 
d="M262 274h-227v84h78v167h-68v83h153v-250h64v-84z" />
    <glyph glyph-name="ordmasculine" unicode="&#xba;" horiz-adv-x="376" 
d="M306 377c0 -20 -4.33301 -35.998 -13 -47.998c-9.33301 -12.667 -21.666 -25 -36.999 -37c-18 -11.333 -36.667 -17 -56 -17h-64c-20 0 -38.333 5.66699 -55 17c-14.667 11.333 -27.334 23.666 -38.001 36.999c-8.66699 12 -13 28 -13 48v128c0 20 4.33301 36 13 48
c10.667 13.333 23.334 25.666 38.001 36.999c16.667 11.333 35 17 55 17h64c19.333 0 38 -5.66699 56 -17c15.333 -12 27.666 -24.333 36.999 -37c8.66699 -12 13 -28 13 -48v-128zM223 497.002c0 2.66699 -0.333008 4.33008 -1 4.99707
c-8.66699 10.667 -16.334 18 -23.001 22c-0.666992 0.666992 -2.33398 1 -5.00098 1h-52c-2.66699 0 -4.33398 -0.333008 -5.00098 -1c-8.66699 -5.33301 -16.334 -12.666 -23.001 -21.999l-1 -5v-112c0 -2 0.333008 -3.66699 1 -5
c6.66699 -9.33301 14.334 -16.666 23.001 -21.999c0.666992 -0.666992 2.33398 -1 5.00098 -1h52c2.66699 0 4.33398 0.333008 5.00098 1c6.66699 4 14.334 11.333 23.001 22c0.666992 0.666992 1 2.33398 1 5.00098v112z" />
    <glyph glyph-name="guillemotright" unicode="&#xbb;" horiz-adv-x="588" 
d="M148 81l-111 29l137 133l-135 130l109 32l161 -162zM371 81l-111 29l137 133l-135 130l109 32l161 -162z" />
    <glyph glyph-name="onequarter" unicode="&#xbc;" horiz-adv-x="742" 
d="M589 598l-324 -598h-112l324 598h112zM672 65h-47v-65h-85v65h-159v70l172 191h72v-180h47v-81zM544 145l-1 69l-64 -69h65zM262 274h-227v84h78v167h-68v83h153v-250h64v-84z" />
    <glyph glyph-name="onehalf" unicode="&#xbd;" horiz-adv-x="802" 
d="M589 598l-324 -598h-112l324 598h112zM648 220c0 6 -3.00195 11.998 -9.00195 17.998s-12.667 9 -20 9h-49c-5.33301 0 -14 -4.16699 -26 -12.5s-21.667 -16.166 -29 -23.499l-64 46c12 14.667 29.667 30.334 53 47.001c20 14.667 43.667 22 71 22h45
c34.667 0 66 -17.667 94 -53c12 -14.667 18 -32 18 -52v-9c0 -19.333 -9.5 -37.333 -28.5 -54s-39.5 -28.667 -61.5 -36l-84 -26c-2.66699 -0.666992 -4.66699 -1.66699 -6 -3s-2.16602 -2.5 -2.49902 -3.5s-0.5 -2.5 -0.5 -4.5v-4h175v-81h-264v82
c0 22.667 6.33301 40 19 52s31.334 22 56.001 30l86 32c18 8 27 16 27 24zM261.998 273.998h-227v84h78v167h-68v83h153v-250h64v-84z" />
    <glyph glyph-name="threequarters" unicode="&#xbe;" horiz-adv-x="768" 
d="M615 598l-324 -598h-112l324 598h112zM698 65h-47v-65h-85v65h-159v70l172 191h72v-180h47v-81zM570 145l-1 69l-64 -69h65zM146 473l54 -0.00292969c25.333 -1.33301 38 5.33398 38 20.001c0 10 -7 18.667 -21 26c-1.33301 0.666992 -4 1 -8 1h-67
c-10.667 0 -23 -8.33301 -37 -25l-70 40c10 14 24 28.333 42 43c20 14.667 42.333 22 67 22h66c37.333 0 68.333 -14 93 -42c12.667 -18.667 19 -40 19 -64c0 -27.333 -9.33301 -46.666 -28 -57.999c18.667 -11.333 28 -30.333 28 -57
c0 -23.333 -6.33301 -44.666 -19 -63.999c-24.667 -28 -55.667 -42 -93 -42h-66c-24.667 0 -47 7.33301 -67 22c-15.333 11.333 -29.333 25.666 -42 42.999l70 40c14.667 -17.333 27 -26 37 -26h67c4 0 7.33301 0.666992 10 2c12.667 7.33301 19 16 19 26
c0 14.667 -12.667 21.334 -38 20.001h-54v73z" />
    <glyph glyph-name="questiondown" unicode="&#xbf;" horiz-adv-x="460" 
d="M38 206c0 23.333 6.83008 44.499 20.4971 63.499s30.834 33.5 51.501 43.5c2 0.666992 6.66699 2.66699 14 6l21 10c6.66699 3.33301 13.5 7 20.5 11s12.667 8.16699 17 12.5s6.5 8.5 6.5 12.5v73h105v-77c0 -13.333 -2.33301 -25.666 -7 -36.999
s-9.5 -20.666 -14.5 -27.999s-13.667 -15.333 -26 -24s-21.5 -14.667 -27.5 -18s-17.167 -8.83301 -33.5 -16.5s-26.166 -12.5 -29.499 -14.5c-8.66699 -4.66699 -13 -11.334 -13 -20.001v-65l1 -5c4.66699 -8 10.834 -15.5 18.501 -22.5s13.834 -10.5 18.501 -10.5h112
c2 0 4.66699 1 8 3c18.667 12.667 32.667 27 42 43l4 7l99 -29c-8.66699 -18 -16.334 -32 -23.001 -42c-38 -54.667 -80.333 -82 -127 -82h-119c-26 0 -49.333 7.66699 -70 23c-18.667 13.333 -35.667 31 -51 53c-12 18 -18 38.333 -18 61v69zM180.997 600.999h121v-117
h-121v117z" />
    <glyph glyph-name="Agrave" unicode="&#xc0;" horiz-adv-x="549" 
d="M515 0h-112l-44 127h-227l-44 -127h-112l209 598h122zM326 227l-80 236l-81 -236h161zM341 650l-92 -27l-118 146h118z" />
    <glyph glyph-name="Aacute" unicode="&#xc1;" horiz-adv-x="549" 
d="M515 0h-112l-44 127h-227l-44 -127h-112l209 598h122zM326 227l-80 236l-81 -236h161zM292 632l-92 27l92 119h118z" />
    <glyph glyph-name="Acircumflex" unicode="&#xc2;" horiz-adv-x="549" 
d="M515 0h-112l-44 127h-227l-44 -127h-112l209 598h122zM326 227l-80 236l-81 -236h161zM215 637h-107l98 131h94l98 -131h-107l-38 52z" />
    <glyph glyph-name="Atilde" unicode="&#xc3;" horiz-adv-x="549" 
d="M515 0h-112l-44 127h-227l-44 -127h-112l209 598h122zM326 227l-80 236l-81 -236h161zM408 660l-80 -23c-4 10 -10.5 17.667 -19.5 23s-16.167 7 -21.5 5l-65 -21c-26 -8.66699 -52.5 -5.66699 -79.5 9s-47.167 38.667 -60.5 72l85 21c4 -10 9.5 -17 16.5 -21
s13.167 -5.33301 18.5 -4l68 21c26.667 8.66699 53 5.66699 79 -9s45.667 -39 59 -73z" />
    <glyph glyph-name="Adieresis" unicode="&#xc4;" horiz-adv-x="549" 
d="M515 0h-112l-44 127h-227l-44 -127h-112l209 598h122zM326 227l-80 236l-81 -236h161zM375 653h-97v103h97v-103zM214 653h-97v103h97v-103z" />
    <glyph glyph-name="Aring" unicode="&#xc5;" horiz-adv-x="549" 
d="M515 0h-112l-44 127h-227l-44 -127h-112l209 598h122zM326 227l-80 236l-81 -236h161zM349 741c0 -28.667 -10.167 -53.167 -30.5 -73.5s-44.5 -30.5 -72.5 -30.5s-52.5 10.167 -73.5 30.5s-31.5 44.833 -31.5 73.5c0 27.333 10.5 51.166 31.5 71.499
s45.5 30.5 73.5 30.5s52.167 -10.167 72.5 -30.5s30.5 -44.166 30.5 -71.499zM291 741c0 12 -4.33301 22.5 -13 31.5s-19.334 13.5 -32.001 13.5s-23.667 -4.5 -33 -13.5s-14 -19.5 -14 -31.5c0 -13.333 4.66699 -24.666 14 -33.999s20.333 -14 33 -14
s23.334 4.66699 32.001 14s13 20.666 13 33.999z" />
    <glyph glyph-name="AE" unicode="&#xc6;" horiz-adv-x="719" 
d="M623 0h-346v127h-145l-44 -127h-112l209 598h438v-100h-241v-151h222v-100h-222v-147h241v-100zM258 498l-93 -271h112v271h-19z" />
    <glyph glyph-name="Ccedilla" unicode="&#xc7;" horiz-adv-x="546" 
d="M326 -73l-80 -125h-113l96 154zM468 116c-6.66699 -15.333 -13.668 -28 -21.001 -38c-41.333 -55.333 -83.666 -83 -126.999 -83h-125c-22 0 -42.667 6 -62 18c-10 6 -23 17 -39 33s-27.333 28.667 -34 38c-10.667 16 -16 35 -16 57v315c0 21.333 5.33301 40 16 56
c6.66699 10 18.167 23.167 34.5 39.5s29.166 27.166 38.499 32.499c21.333 12 42 18 62 18h125c42.667 0 85 -27.667 127 -83c4 -5.33301 11 -17 21 -35l-102 -29c-20 24.667 -35 40 -45 46c-0.666992 0.666992 -2 1 -4 1h-118l-4 -1c-17.333 -9.33301 -32.333 -24 -45 -44
c-0.666992 -1.33301 -1 -5 -1 -11v-304c0 -5.33301 5.5 -13.166 16.5 -23.499s20.833 -17.833 29.5 -22.5c0.666992 -0.666992 3 -1 7 -1h114c2 0 3.66699 0.333008 5 1c6 2.66699 12.833 8 20.5 16s13.834 15.333 18.501 22l6 9z" />
    <glyph glyph-name="Egrave" unicode="&#xc8;" horiz-adv-x="516" 
d="M420 0h-376v598h376v-100h-271v-151h252v-100h-252v-147h271v-100zM329 659l-92 -27l-118 146h118z" />
    <glyph glyph-name="Eacute" unicode="&#xc9;" horiz-adv-x="516" 
d="M420 0h-376v598h376v-100h-271v-151h252v-100h-252v-147h271v-100zM262 632l-92 27l92 119h118z" />
    <glyph glyph-name="Ecircumflex" unicode="&#xca;" horiz-adv-x="516" 
d="M420 0h-376v598h376v-100h-271v-151h252v-100h-252v-147h271v-100zM199 637h-107l98 131h94l98 -131h-107l-38 52z" />
    <glyph glyph-name="Edieresis" unicode="&#xcb;" horiz-adv-x="516" 
d="M420 0h-376v598h376v-100h-271v-151h252v-100h-252v-147h271v-100zM368 652h-97v103h97v-103zM207 652h-97v103h97v-103z" />
    <glyph glyph-name="Igrave" unicode="&#xcc;" horiz-adv-x="240" 
d="M149 0h-105v598h105v-598zM151 659l-92 -27l-118 146h118z" />
    <glyph glyph-name="Iacute" unicode="&#xcd;" horiz-adv-x="240" 
d="M149 0h-105v598h105v-598zM136 632l-92 27l92 119h118z" />
    <glyph glyph-name="Icircumflex" unicode="&#xce;" horiz-adv-x="240" 
d="M149 0h-105v598h105v-598zM58 637h-107l98 131h94l98 -131h-107l-38 52z" />
    <glyph glyph-name="Idieresis" unicode="&#xcf;" horiz-adv-x="240" 
d="M149 0h-105v598h105v-598zM225 653h-97v103h97v-103zM64 653h-97v103h97v-103z" />
    <glyph glyph-name="Eth" unicode="&#xd0;" horiz-adv-x="583" 
d="M487 145c0 -22.667 -4.66699 -41.667 -14 -57c-7.33301 -10 -19 -22.833 -35 -38.5s-29 -26.167 -39 -31.5c-22.667 -12 -42.667 -18 -60 -18h-275v252h-75v94h75v252h275c22.667 0 42.667 -5.66699 60 -17c20.667 -12.667 45 -37 73 -73c10 -15.333 15 -34.333 15 -57
v-306zM169 100l163.002 0.000976562c3.33301 0 5.66602 0.333008 6.99902 1c8 4.66699 17.167 12.167 27.5 22.5s15.5 18.166 15.5 23.499v306c-12.667 21.333 -27.667 36 -45 44c-0.666992 0.666992 -3.33398 1 -8.00098 1h-160v-152h103v-94h-103v-152z" />
    <glyph glyph-name="Ntilde" unicode="&#xd1;" horiz-adv-x="566" 
d="M467 0h-111l-207 397v-397h-105v598h113l205 -402v402h105v-598zM433 662l-80 -23c-4 10 -10.5 17.667 -19.5 23s-16.167 7 -21.5 5l-65 -21c-26 -8.66699 -52.5 -5.66699 -79.5 9s-47.167 38.667 -60.5 72l85 21c4 -10 9.5 -17 16.5 -21s13.167 -5.33301 18.5 -4l68 21
c26.667 8.66699 53 5.66699 79 -9s45.667 -39 59 -73z" />
    <glyph glyph-name="Ograve" unicode="&#xd2;" horiz-adv-x="587" 
d="M499 142c0 -22 -5.33301 -40.998 -16 -56.998c-8 -10.667 -19.833 -24 -35.5 -40s-28.167 -26.667 -37.5 -32c-19.333 -12 -40 -18 -62 -18h-152c-22 0 -42.667 6 -62 18c-9.33301 5.33301 -22.166 16.166 -38.499 32.499s-27.833 29.5 -34.5 39.5
c-10.667 16 -16 35 -16 57v313c0 22 5.33301 41 16 57c6.66699 10 18.167 23.167 34.5 39.5s29.166 27.166 38.499 32.499c19.333 12 40 18 62 18h152c22 0 42.667 -6 62 -18c9.33301 -5.33301 21.833 -16 37.5 -32s27.5 -29.333 35.5 -40c10.667 -16 16 -35 16 -57v-313z
M150 452.002l0.000976562 -309.001c0 -2 0.333008 -3.33301 1 -4c13.333 -20 28 -34.333 44 -43c1.33301 -0.666992 3 -1 5 -1h144c2 0 3.66699 0.333008 5 1c16 8.66699 30.667 23 44 43l1 4v309c0 2.66699 -0.333008 4.33398 -1 5.00098
c-14 20.667 -28.667 35.334 -44 44.001c-1.33301 0.666992 -3 1 -5 1h-144c-2.66699 0 -4.33398 -0.333008 -5.00098 -1c-15.333 -8.66699 -30 -23.334 -44 -44.001zM363.001 659.001l-92 -27l-118 146h118z" />
    <glyph glyph-name="Oacute" unicode="&#xd3;" horiz-adv-x="589" 
d="M499 142c0 -22 -5.33301 -40.998 -16 -56.998c-8 -10.667 -19.833 -24 -35.5 -40s-28.167 -26.667 -37.5 -32c-19.333 -12 -40 -18 -62 -18h-152c-22 0 -42.667 6 -62 18c-9.33301 5.33301 -22.166 16.166 -38.499 32.499s-27.833 29.5 -34.5 39.5
c-10.667 16 -16 35 -16 57v313c0 22 5.33301 41 16 57c6.66699 10 18.167 23.167 34.5 39.5s29.166 27.166 38.499 32.499c19.333 12 40 18 62 18h152c22 0 42.667 -6 62 -18c9.33301 -5.33301 21.833 -16 37.5 -32s27.5 -29.333 35.5 -40c10.667 -16 16 -35 16 -57v-313z
M150 452.002l0.000976562 -309.001c0 -2 0.333008 -3.33301 1 -4c13.333 -20 28 -34.333 44 -43c1.33301 -0.666992 3 -1 5 -1h144c2 0 3.66699 0.333008 5 1c16 8.66699 30.667 23 44 43l1 4v309c0 2.66699 -0.333008 4.33398 -1 5.00098
c-14 20.667 -28.667 35.334 -44 44.001c-1.33301 0.666992 -3 1 -5 1h-144c-2.66699 0 -4.33398 -0.333008 -5.00098 -1c-15.333 -8.66699 -30 -23.334 -44 -44.001zM265.001 632.001l-92 27l92 119h118z" />
    <glyph glyph-name="Ocircumflex" unicode="&#xd4;" horiz-adv-x="589" 
d="M499 142c0 -22 -5.33301 -40.998 -16 -56.998c-8 -10.667 -19.833 -24 -35.5 -40s-28.167 -26.667 -37.5 -32c-19.333 -12 -40 -18 -62 -18h-152c-22 0 -42.667 6 -62 18c-9.33301 5.33301 -22.166 16.166 -38.499 32.499s-27.833 29.5 -34.5 39.5
c-10.667 16 -16 35 -16 57v313c0 22 5.33301 41 16 57c6.66699 10 18.167 23.167 34.5 39.5s29.166 27.166 38.499 32.499c19.333 12 40 18 62 18h152c22 0 42.667 -6 62 -18c9.33301 -5.33301 21.833 -16 37.5 -32s27.5 -29.333 35.5 -40c10.667 -16 16 -35 16 -57v-313z
M150 452.002l0.000976562 -309.001c0 -2 0.333008 -3.33301 1 -4c13.333 -20 28 -34.333 44 -43c1.33301 -0.666992 3 -1 5 -1h144c2 0 3.66699 0.333008 5 1c16 8.66699 30.667 23 44 43l1 4v309c0 2.66699 -0.333008 4.33398 -1 5.00098
c-14 20.667 -28.667 35.334 -44 44.001c-1.33301 0.666992 -3 1 -5 1h-144c-2.66699 0 -4.33398 -0.333008 -5.00098 -1c-15.333 -8.66699 -30 -23.334 -44 -44.001zM241.001 637.001h-107l98 131h94l98 -131h-107l-38 52z" />
    <glyph glyph-name="Otilde" unicode="&#xd5;" horiz-adv-x="579" 
d="M499 142c0 -22 -5.33301 -40.998 -16 -56.998c-8 -10.667 -19.833 -24 -35.5 -40s-28.167 -26.667 -37.5 -32c-19.333 -12 -40 -18 -62 -18h-152c-22 0 -42.667 6 -62 18c-9.33301 5.33301 -22.166 16.166 -38.499 32.499s-27.833 29.5 -34.5 39.5
c-10.667 16 -16 35 -16 57v313c0 22 5.33301 41 16 57c6.66699 10 18.167 23.167 34.5 39.5s29.166 27.166 38.499 32.499c19.333 12 40 18 62 18h152c22 0 42.667 -6 62 -18c9.33301 -5.33301 21.833 -16 37.5 -32s27.5 -29.333 35.5 -40c10.667 -16 16 -35 16 -57v-313z
M150 452.002l0.000976562 -309.001c0 -2 0.333008 -3.33301 1 -4c13.333 -20 28 -34.333 44 -43c1.33301 -0.666992 3 -1 5 -1h144c2 0 3.66699 0.333008 5 1c16 8.66699 30.667 23 44 43l1 4v309c0 2.66699 -0.333008 4.33398 -1 5.00098
c-14 20.667 -28.667 35.334 -44 44.001c-1.33301 0.666992 -3 1 -5 1h-144c-2.66699 0 -4.33398 -0.333008 -5.00098 -1c-15.333 -8.66699 -30 -23.334 -44 -44.001zM438.001 660.001l-80 -23c-4 10 -10.5 17.667 -19.5 23s-16.167 7 -21.5 5l-65 -21
c-26 -8.66699 -52.5 -5.66699 -79.5 9s-47.167 38.667 -60.5 72l85 21c4 -10 9.5 -17 16.5 -21s13.167 -5.33301 18.5 -4l68 21c26.667 8.66699 53 5.66699 79 -9s45.667 -39 59 -73z" />
    <glyph glyph-name="Odieresis" unicode="&#xd6;" horiz-adv-x="589" 
d="M499 142c0 -22 -5.33301 -40.998 -16 -56.998c-8 -10.667 -19.833 -24 -35.5 -40s-28.167 -26.667 -37.5 -32c-19.333 -12 -40 -18 -62 -18h-152c-22 0 -42.667 6 -62 18c-9.33301 5.33301 -22.166 16.166 -38.499 32.499s-27.833 29.5 -34.5 39.5
c-10.667 16 -16 35 -16 57v313c0 22 5.33301 41 16 57c6.66699 10 18.167 23.167 34.5 39.5s29.166 27.166 38.499 32.499c19.333 12 40 18 62 18h152c22 0 42.667 -6 62 -18c9.33301 -5.33301 21.833 -16 37.5 -32s27.5 -29.333 35.5 -40c10.667 -16 16 -35 16 -57v-313z
M150 452.002l0.000976562 -309.001c0 -2 0.333008 -3.33301 1 -4c13.333 -20 28 -34.333 44 -43c1.33301 -0.666992 3 -1 5 -1h144c2 0 3.66699 0.333008 5 1c16 8.66699 30.667 23 44 43l1 4v309c0 2.66699 -0.333008 4.33398 -1 5.00098
c-14 20.667 -28.667 35.334 -44 44.001c-1.33301 0.666992 -3 1 -5 1h-144c-2.66699 0 -4.33398 -0.333008 -5.00098 -1c-15.333 -8.66699 -30 -23.334 -44 -44.001zM402.001 652.001h-97v103h97v-103zM241.001 652.001h-97v103h97v-103z" />
    <glyph glyph-name="multiply" unicode="&#xd7;" horiz-adv-x="514" 
d="M122 54l-68 69l121 122l-120 121l66 67l121 -122l122 122l68 -69l-121 -122l120 -121l-66 -67l-121 122z" />
    <glyph glyph-name="Oslash" unicode="&#xd8;" horiz-adv-x="571" 
d="M482 623l-37.999 -67.999c4.66699 -4.66699 17.667 -19 39 -43c10.667 -16 16 -35 16 -57v-313c0 -22 -5.33301 -41 -16 -57c-8 -10.667 -19.833 -24 -35.5 -40s-28.167 -26.667 -37.5 -32c-19.333 -12 -40 -18 -62 -18h-152c-16.667 0 -33.667 4 -51 12l-17 -32h-68
l37 68c-18.667 20 -30.667 34 -36 42c-10.667 16 -16 35 -16 57v313c0 22 5.33301 41 16 57c6.66699 10 18.167 23.167 34.5 39.5s29.166 27.166 38.499 32.499c19.333 12 40 18 62 18h152c13.333 0 29.333 -3.66699 48 -11l18 32h68zM393.001 457.001l-1 0.999023
l-198 -362h1c1.33301 -0.666992 3 -1 5 -1h144c2 0 3.66699 0.333008 5 1c16 8.66699 30.667 23 44 43l1 4v309c0 2.66699 -0.333008 4.33398 -1 5.00098zM150.001 452l0.000976562 -308.999v-3l197 361l-3 1h-144c-2.66699 0 -4.33398 -0.333008 -5.00098 -1
c-15.333 -8.66699 -30 -23.334 -44 -44.001z" />
    <glyph glyph-name="Ugrave" unicode="&#xd9;" 
d="M358 598l0.000976562 -455.001c0 -1.33301 -0.333008 -2.66602 -1 -3.99902c-13.333 -20.667 -27.666 -35 -42.999 -43c-1.33301 -0.666992 -3 -1 -5 -1h-119c-2 0 -3.66699 0.333008 -5 1c-15.333 8 -30 22.333 -44 43l-1 5v454h-105v-456c0 -22 5.33301 -41 16 -57
c6.66699 -10 18.167 -23.167 34.5 -39.5s29.166 -27.166 38.499 -32.499c19.333 -12 40 -18 62 -18h127c21.333 0 41.666 6 60.999 18c10 5.33301 22.833 16.166 38.5 32.499s27.167 29.5 34.5 39.5c10.667 16 16 35 16 57v456h-105zM348.001 658.999l-92 -27l-118 146h118z
" />
    <glyph glyph-name="Uacute" unicode="&#xda;" 
d="M358 598l0.000976562 -455.001c0 -1.33301 -0.333008 -2.66602 -1 -3.99902c-13.333 -20.667 -27.666 -35 -42.999 -43c-1.33301 -0.666992 -3 -1 -5 -1h-119c-2 0 -3.66699 0.333008 -5 1c-15.333 8 -30 22.333 -44 43l-1 5v454h-105v-456c0 -22 5.33301 -41 16 -57
c6.66699 -10 18.167 -23.167 34.5 -39.5s29.166 -27.166 38.499 -32.499c19.333 -12 40 -18 62 -18h127c21.333 0 41.666 6 60.999 18c10 5.33301 22.833 16.166 38.5 32.499s27.167 29.5 34.5 39.5c10.667 16 16 35 16 57v456h-105zM255.001 631.999l-92 27l92 119h118z
" />
    <glyph glyph-name="Ucircumflex" unicode="&#xdb;" 
d="M358 598l0.000976562 -455.001c0 -1.33301 -0.333008 -2.66602 -1 -3.99902c-13.333 -20.667 -27.666 -35 -42.999 -43c-1.33301 -0.666992 -3 -1 -5 -1h-119c-2 0 -3.66699 0.333008 -5 1c-15.333 8 -30 22.333 -44 43l-1 5v454h-105v-456c0 -22 5.33301 -41 16 -57
c6.66699 -10 18.167 -23.167 34.5 -39.5s29.166 -27.166 38.499 -32.499c19.333 -12 40 -18 62 -18h127c21.333 0 41.666 6 60.999 18c10 5.33301 22.833 16.166 38.5 32.499s27.167 29.5 34.5 39.5c10.667 16 16 35 16 57v456h-105zM217.001 636.999h-107l98 131h94
l98 -131h-107l-38 52z" />
    <glyph glyph-name="Udieresis" unicode="&#xdc;" 
d="M358 598l0.000976562 -455.001c0 -1.33301 -0.333008 -2.66602 -1 -3.99902c-13.333 -20.667 -27.666 -35 -42.999 -43c-1.33301 -0.666992 -3 -1 -5 -1h-119c-2 0 -3.66699 0.333008 -5 1c-15.333 8 -30 22.333 -44 43l-1 5v454h-105v-456c0 -22 5.33301 -41 16 -57
c6.66699 -10 18.167 -23.167 34.5 -39.5s29.166 -27.166 38.499 -32.499c19.333 -12 40 -18 62 -18h127c21.333 0 41.666 6 60.999 18c10 5.33301 22.833 16.166 38.5 32.499s27.167 29.5 34.5 39.5c10.667 16 16 35 16 57v456h-105zM379.001 651.999h-97v103h97v-103z
M218.001 651.999h-97v103h97v-103z" />
    <glyph glyph-name="Yacute" unicode="&#xdd;" horiz-adv-x="520" 
d="M482 598l-198 -337v-261h-105v261l-196 337h116l133 -227l133 227h117zM240 632l-92 27l92 119h118z" />
    <glyph glyph-name="Thorn" unicode="&#xde;" horiz-adv-x="537" 
d="M468 256c0 -22.667 -6 -42.9971 -18 -60.9971c-4.66699 -6.66699 -13 -15.834 -25 -27.501s-21.667 -20.167 -29 -25.5c-20.667 -14.667 -44.334 -22 -71.001 -22h-176v-121h-105v599h105v-116h176c26.667 0 50.334 -7.33301 71.001 -22
c6.66699 -4.66699 16.167 -13.334 28.5 -26.001s20.833 -22.334 25.5 -29.001c12 -18 18 -38.333 18 -61v-88zM363 257.003v86.0029c0 3.33301 -0.333008 5.66602 -1 6.99902c-11.333 20 -22 30.667 -32 32h-181v-162h176c4.66699 0 11 3.66699 19 11s14 14.666 18 21.999
c0.666992 1.33301 1 2.66602 1 3.99902z" />
    <glyph glyph-name="germandbls" unicode="&#xdf;" horiz-adv-x="543" 
d="M139 448l0.000976562 -376.006l-8 -72h-101l9 89v361c0 22.667 5.66699 42 17 58c8 10.667 19.333 23.834 34 39.501s27 26.5 37 32.5c21.333 12 42.333 18 63 18h59c26.667 0 50.334 -7.33301 71.001 -22c17.333 -12 33.333 -28 48 -48
c12.667 -18.667 19 -39.667 19 -63v-46c0 -20 -13.333 -43.333 -40 -70c-14 -14 -22 -24.333 -24 -31c-0.666992 -2 -1 -6.33301 -1 -13v-16c0 -2 1.5 -4.5 4.5 -7.5s6.83301 -4.83301 11.5 -5.5c7.33301 -0.666992 13.833 -1.5 19.5 -2.5s12.834 -1.83301 21.501 -2.5
c29.333 -2.66699 53.166 -12.667 71.499 -30s27.5 -41.666 27.5 -72.999v-44c0 -23.333 -6.33301 -43.666 -19 -60.999c-12.667 -18.667 -27.667 -34 -45 -46c-18.667 -12.667 -42.334 -19.667 -71.001 -21h-88c-23.333 0 -44 6 -62 18l11 21l24 42l12 21
c7.33301 -4 13 -6.33301 17 -7h84c6 0 13.667 4.16699 23 12.5s14 15.833 14 22.5v40c0 8.66699 -4.66699 13.334 -14 14.001c-10 0.666992 -25.667 2.33398 -47 5.00098c-62.667 8 -94 41.333 -94 100v25c0 27.333 9.66699 50.666 29 69.999c18.667 18.667 30 31.667 34 39
c0.666992 0.666992 1 4 1 10v35l-1 6c-4 6.66699 -10 13.834 -18 21.501s-14.667 11.5 -20 11.5h-57c-6.66699 0 -15.334 -5.66699 -26.001 -17s-18.667 -21.666 -24 -30.999z" />
    <glyph glyph-name="agrave" unicode="&#xe0;" horiz-adv-x="482" 
d="M292 271l-0.00195312 33.999c0 2.66699 -0.333008 4.33398 -1 5.00098c-6.66699 11.333 -17.334 21.333 -32.001 30c-2.66699 1.33301 -4.66699 2 -6 2h-88c-5.33301 0 -12.166 -3.66699 -20.499 -11s-14.833 -14 -19.5 -20l-94 28c4.66699 10.667 14.334 24 29.001 40
s26.667 27.333 36 34c23.333 16 47.333 24 72 24h86c28 0 52.333 -7.33301 73 -22c22 -16 38 -31.667 48 -47c11.333 -15.333 17 -36 17 -62v-218l10 -88h-99l-5 20c-23.333 -16.667 -44 -25 -62 -25h-82c-27.333 0 -51.333 7.33301 -72 22c-18 13.333 -33.667 29 -47 47
c-12 16.667 -18 37 -18 61v18c0 24 6 44.333 18 61c10.667 15.333 26.334 30.333 47.001 45s44.667 22 72 22h138zM291.998 129.999v52h-137c-2.66699 0 -5 -0.666992 -7 -2c-12 -7.33301 -22 -18 -30 -32c-0.666992 -1.33301 -1 -2.33301 -1 -3v-19l1 -3
c8.66699 -14.667 19 -25 31 -31c2.66699 -1.33301 4.66699 -2 6 -2h78c4.66699 0 14.5 5.33301 29.5 16s24.833 18.667 29.5 24zM301.998 514.999l-92 -27l-118 146h118z" />
    <glyph glyph-name="aacute" unicode="&#xe1;" horiz-adv-x="482" 
d="M292 271l-0.00195312 33.999c0 2.66699 -0.333008 4.33398 -1 5.00098c-6.66699 11.333 -17.334 21.333 -32.001 30c-2.66699 1.33301 -4.66699 2 -6 2h-88c-5.33301 0 -12.166 -3.66699 -20.499 -11s-14.833 -14 -19.5 -20l-94 28c4.66699 10.667 14.334 24 29.001 40
s26.667 27.333 36 34c23.333 16 47.333 24 72 24h86c28 0 52.333 -7.33301 73 -22c22 -16 38 -31.667 48 -47c11.333 -15.333 17 -36 17 -62v-218l10 -88h-99l-5 20c-23.333 -16.667 -44 -25 -62 -25h-82c-27.333 0 -51.333 7.33301 -72 22c-18 13.333 -33.667 29 -47 47
c-12 16.667 -18 37 -18 61v18c0 24 6 44.333 18 61c10.667 15.333 26.334 30.333 47.001 45s44.667 22 72 22h138zM291.998 129.999v52h-137c-2.66699 0 -5 -0.666992 -7 -2c-12 -7.33301 -22 -18 -30 -32c-0.666992 -1.33301 -1 -2.33301 -1 -3v-19l1 -3
c8.66699 -14.667 19 -25 31 -31c2.66699 -1.33301 4.66699 -2 6 -2h78c4.66699 0 14.5 5.33301 29.5 16s24.833 18.667 29.5 24zM224.998 487.999l-92 27l92 119h118z" />
    <glyph glyph-name="acircumflex" unicode="&#xe2;" horiz-adv-x="482" 
d="M292 271l-0.00195312 33.999c0 2.66699 -0.333008 4.33398 -1 5.00098c-6.66699 11.333 -17.334 21.333 -32.001 30c-2.66699 1.33301 -4.66699 2 -6 2h-88c-5.33301 0 -12.166 -3.66699 -20.499 -11s-14.833 -14 -19.5 -20l-94 28c4.66699 10.667 14.334 24 29.001 40
s26.667 27.333 36 34c23.333 16 47.333 24 72 24h86c28 0 52.333 -7.33301 73 -22c22 -16 38 -31.667 48 -47c11.333 -15.333 17 -36 17 -62v-218l10 -88h-99l-5 20c-23.333 -16.667 -44 -25 -62 -25h-82c-27.333 0 -51.333 7.33301 -72 22c-18 13.333 -33.667 29 -47 47
c-12 16.667 -18 37 -18 61v18c0 24 6 44.333 18 61c10.667 15.333 26.334 30.333 47.001 45s44.667 22 72 22h138zM291.998 129.999v52h-137c-2.66699 0 -5 -0.666992 -7 -2c-12 -7.33301 -22 -18 -30 -32c-0.666992 -1.33301 -1 -2.33301 -1 -3v-19l1 -3
c8.66699 -14.667 19 -25 31 -31c2.66699 -1.33301 4.66699 -2 6 -2h78c4.66699 0 14.5 5.33301 29.5 16s24.833 18.667 29.5 24zM172.998 492.999h-107l98 131h94l98 -131h-107l-38 52z" />
    <glyph glyph-name="atilde" unicode="&#xe3;" horiz-adv-x="482" 
d="M292 271l-0.00195312 33.999c0 2.66699 -0.333008 4.33398 -1 5.00098c-6.66699 11.333 -17.334 21.333 -32.001 30c-2.66699 1.33301 -4.66699 2 -6 2h-88c-5.33301 0 -12.166 -3.66699 -20.499 -11s-14.833 -14 -19.5 -20l-94 28c4.66699 10.667 14.334 24 29.001 40
s26.667 27.333 36 34c23.333 16 47.333 24 72 24h86c28 0 52.333 -7.33301 73 -22c22 -16 38 -31.667 48 -47c11.333 -15.333 17 -36 17 -62v-218l10 -88h-99l-5 20c-23.333 -16.667 -44 -25 -62 -25h-82c-27.333 0 -51.333 7.33301 -72 22c-18 13.333 -33.667 29 -47 47
c-12 16.667 -18 37 -18 61v18c0 24 6 44.333 18 61c10.667 15.333 26.334 30.333 47.001 45s44.667 22 72 22h138zM291.998 129.999v52h-137c-2.66699 0 -5 -0.666992 -7 -2c-12 -7.33301 -22 -18 -30 -32c-0.666992 -1.33301 -1 -2.33301 -1 -3v-19l1 -3
c8.66699 -14.667 19 -25 31 -31c2.66699 -1.33301 4.66699 -2 6 -2h78c4.66699 0 14.5 5.33301 29.5 16s24.833 18.667 29.5 24zM379.998 519.999l-80 -23c-4 10 -10.5 17.667 -19.5 23s-16.167 7 -21.5 5l-65 -21c-26 -8.66699 -52.5 -5.66699 -79.5 9
s-47.167 38.667 -60.5 72l85 21c4 -10 9.5 -17 16.5 -21s13.167 -5.33301 18.5 -4l68 21c26.667 8.66699 53 5.66699 79 -9s45.667 -39 59 -73z" />
    <glyph glyph-name="adieresis" unicode="&#xe4;" horiz-adv-x="479" 
d="M292 271l-0.00195312 33.999c0 2.66699 -0.333008 4.33398 -1 5.00098c-6.66699 11.333 -17.334 21.333 -32.001 30c-2.66699 1.33301 -4.66699 2 -6 2h-88c-5.33301 0 -12.166 -3.66699 -20.499 -11s-14.833 -14 -19.5 -20l-94 28c4.66699 10.667 14.334 24 29.001 40
s26.667 27.333 36 34c23.333 16 47.333 24 72 24h86c28 0 52.333 -7.33301 73 -22c22 -16 38 -31.667 48 -47c11.333 -15.333 17 -36 17 -62v-218l10 -88h-99l-5 20c-23.333 -16.667 -44 -25 -62 -25h-82c-27.333 0 -51.333 7.33301 -72 22c-18 13.333 -33.667 29 -47 47
c-12 16.667 -18 37 -18 61v18c0 24 6 44.333 18 61c10.667 15.333 26.334 30.333 47.001 45s44.667 22 72 22h138zM291.998 129.999v52h-137c-2.66699 0 -5 -0.666992 -7 -2c-12 -7.33301 -22 -18 -30 -32c-0.666992 -1.33301 -1 -2.33301 -1 -3v-19l1 -3
c8.66699 -14.667 19 -25 31 -31c2.66699 -1.33301 4.66699 -2 6 -2h78c4.66699 0 14.5 5.33301 29.5 16s24.833 18.667 29.5 24zM332.998 495.999h-97v103h97v-103zM171.998 495.999h-97v103h97v-103z" />
    <glyph glyph-name="aring" unicode="&#xe5;" horiz-adv-x="482" 
d="M292 271l-0.00195312 33.999c0 2.66699 -0.333008 4.33398 -1 5.00098c-6.66699 11.333 -17.334 21.333 -32.001 30c-2.66699 1.33301 -4.66699 2 -6 2h-88c-5.33301 0 -12.166 -3.66699 -20.499 -11s-14.833 -14 -19.5 -20l-94 28c4.66699 10.667 14.334 24 29.001 40
s26.667 27.333 36 34c23.333 16 47.333 24 72 24h86c28 0 52.333 -7.33301 73 -22c22 -16 38 -31.667 48 -47c11.333 -15.333 17 -36 17 -62v-218l10 -88h-99l-5 20c-23.333 -16.667 -44 -25 -62 -25h-82c-27.333 0 -51.333 7.33301 -72 22c-18 13.333 -33.667 29 -47 47
c-12 16.667 -18 37 -18 61v18c0 24 6 44.333 18 61c10.667 15.333 26.334 30.333 47.001 45s44.667 22 72 22h138zM291.998 129.999v52h-137c-2.66699 0 -5 -0.666992 -7 -2c-12 -7.33301 -22 -18 -30 -32c-0.666992 -1.33301 -1 -2.33301 -1 -3v-19l1 -3
c8.66699 -14.667 19 -25 31 -31c2.66699 -1.33301 4.66699 -2 6 -2h78c4.66699 0 14.5 5.33301 29.5 16s24.833 18.667 29.5 24zM317.998 595.999c0 -28.667 -10.167 -53.167 -30.5 -73.5s-44.5 -30.5 -72.5 -30.5s-52.5 10.167 -73.5 30.5s-31.5 44.833 -31.5 73.5
c0 27.333 10.5 51.166 31.5 71.499s45.5 30.5 73.5 30.5s52.167 -10.167 72.5 -30.5s30.5 -44.166 30.5 -71.499zM259.998 595.999c0 12 -4.33301 22.5 -13 31.5s-19.334 13.5 -32.001 13.5s-23.667 -4.5 -33 -13.5s-14 -19.5 -14 -31.5
c0 -13.333 4.66699 -24.666 14 -33.999s20.333 -14 33 -14s23.334 4.66699 32.001 14s13 20.666 13 33.999z" />
    <glyph glyph-name="ae" unicode="&#xe6;" horiz-adv-x="740" 
d="M663 165l-271.002 0.000976562v-38l1 -5c4.66699 -8 11.167 -15.5 19.5 -22.5s14.833 -10.5 19.5 -10.5h97c9.33301 0 21.666 9 36.999 27c2 2 3 3.33301 3 4l93 -28c-4.66699 -11.333 -14.167 -24.833 -28.5 -40.5s-26.166 -26.834 -35.499 -33.501
c-22.667 -15.333 -46.667 -23 -72 -23h-94c-28.667 0 -53 7 -73 21c-8 5.33301 -18 14 -30 26l-30 -22c-23.333 -16.667 -44.333 -25 -63 -25h-82c-27.333 0 -51.333 7.33301 -72 22c-18 13.333 -33.667 29 -47 47c-12 16.667 -18 37 -18 61v18c0 24 6 44.333 18 61
c13.333 18 29 33.667 47 47c20.667 14.667 44.667 22 72 22h138v33v4c-6.66699 11.333 -17.667 21.333 -33 30c-2.66699 1.33301 -4.66699 2 -6 2h-88c-5.33301 0 -12.166 -3.66699 -20.499 -11s-14.833 -14 -19.5 -20l-94 28c4.66699 10.667 14.334 24 29.001 40
s26.667 27.333 36 34c23.333 16 47.333 24 72 24h86c28 0 52.333 -7.33301 73 -22c1.33301 -1.33301 4 -3.5 8 -6.5s6.66699 -5.16699 8 -6.5l16 13c20.667 14.667 45 22 73 22h92c28 0 52.333 -7.33301 73 -22c20.667 -15.333 36.667 -31.333 48 -48
c12 -16 18 -36.333 18 -61v-141zM232.998 89.001c4.66699 0 13.998 4.83301 27.998 14.5s24.333 17.834 31 24.501v51h-137c-3.33301 0 -5.66602 -0.666992 -6.99902 -2c-13.333 -8 -23.666 -18.667 -30.999 -32c-0.666992 -1.33301 -1 -2.33301 -1 -3v-16l1 -3
c7.33301 -12.667 18 -23.334 32 -32.001c2.66699 -1.33301 4.66699 -2 6 -2h78zM562.996 259.001v45c0 3.33301 -0.333008 5.33301 -1 6c-7.33301 12 -18.333 22.333 -33 31c-1.33301 0.666992 -3.33301 1 -6 1h-91c-4.66699 0 -11.167 -3.5 -19.5 -10.5
s-14.833 -14.167 -19.5 -21.5l-1 -6v-45h171zM567.996 120.001c0.666992 0.666992 1 0.666992 1 0h-1z" />
    <glyph glyph-name="ccedilla" unicode="&#xe7;" horiz-adv-x="477" 
d="M296 -73l-80 -125h-113l96 154zM135 127c0 -2 0.666016 -3.99707 1.99902 -5.99707c6 -10.667 16.667 -20.334 32 -29.001c2.66699 -1.33301 4.66699 -2 6 -2h98c10 0 22.333 8.66699 37 26c0.666992 0.666992 1.66699 2 3 4l93 -28
c-4.66699 -11.333 -14.167 -24.833 -28.5 -40.5s-26.166 -26.834 -35.499 -33.501c-22.667 -15.333 -46.667 -23 -72 -23h-96c-28.667 0 -53 7 -73 21c-20 14.667 -36 31 -48 49c-12 16 -18 36.333 -18 61v180c0 24.667 6 45 18 61c12 18 28 34.333 48 49
c20 14 44.333 21 73 21h95c25.333 0 49.333 -7.66699 72 -23c11.333 -8 23.5 -19.167 36.5 -33.5s22.167 -27.833 27.5 -40.5l-93 -28l-3 4c-14.667 17.333 -27 26 -37 26h-97l-6 -2c-15.333 -8.66699 -26 -18.334 -32 -29.001l-2 -6v-178z" />
    <glyph glyph-name="egrave" unicode="&#xe8;" horiz-adv-x="483" 
d="M406 168l-271.001 0.00195312v-41l1 -5c4.66699 -7.33301 11.167 -14.5 19.5 -21.5s14.833 -10.5 19.5 -10.5h97c10 0 22.333 8.66699 37 26l3 4l93 -28c-4.66699 -11.333 -14.167 -24.833 -28.5 -40.5s-26.166 -26.834 -35.499 -33.501
c-22.667 -15.333 -46.667 -23 -72 -23h-94c-28.667 0 -53 7 -73 21c-18.667 14 -34.667 30 -48 48c-12.667 17.333 -19 38 -19 62v180c0 23.333 6.33301 43.666 19 60.999c13.333 18 29.333 34 48 48c20.667 14.667 45 22 73 22h92c28 0 52.333 -7.33301 73 -22
c20.667 -15.333 36.667 -31.333 48 -48c12 -16 18 -36.333 18 -61v-138zM305.999 257.002v47c0 3.33301 -0.333008 5.33301 -1 6c-7.33301 12 -18.333 22.333 -33 31c-1.33301 0.666992 -3.33301 1 -6 1h-91c-4.66699 0 -11.167 -3.5 -19.5 -10.5
s-14.833 -14.167 -19.5 -21.5l-1 -6v-47h171zM301.999 515.002l-92 -27l-118 146h118z" />
    <glyph glyph-name="eacute" unicode="&#xe9;" horiz-adv-x="483" 
d="M406 168l-271.001 0.00195312v-41l1 -5c4.66699 -7.33301 11.167 -14.5 19.5 -21.5s14.833 -10.5 19.5 -10.5h97c10 0 22.333 8.66699 37 26l3 4l93 -28c-4.66699 -11.333 -14.167 -24.833 -28.5 -40.5s-26.166 -26.834 -35.499 -33.501
c-22.667 -15.333 -46.667 -23 -72 -23h-94c-28.667 0 -53 7 -73 21c-18.667 14 -34.667 30 -48 48c-12.667 17.333 -19 38 -19 62v180c0 23.333 6.33301 43.666 19 60.999c13.333 18 29.333 34 48 48c20.667 14.667 45 22 73 22h92c28 0 52.333 -7.33301 73 -22
c20.667 -15.333 36.667 -31.333 48 -48c12 -16 18 -36.333 18 -61v-138zM305.999 257.002v47c0 3.33301 -0.333008 5.33301 -1 6c-7.33301 12 -18.333 22.333 -33 31c-1.33301 0.666992 -3.33301 1 -6 1h-91c-4.66699 0 -11.167 -3.5 -19.5 -10.5
s-14.833 -14.167 -19.5 -21.5l-1 -6v-47h171zM227.999 488.002l-92 27l92 119h118z" />
    <glyph glyph-name="ecircumflex" unicode="&#xea;" horiz-adv-x="488" 
d="M406 168l-271.001 0.00195312v-41l1 -5c4.66699 -7.33301 11.167 -14.5 19.5 -21.5s14.833 -10.5 19.5 -10.5h97c10 0 22.333 8.66699 37 26l3 4l93 -28c-4.66699 -11.333 -14.167 -24.833 -28.5 -40.5s-26.166 -26.834 -35.499 -33.501
c-22.667 -15.333 -46.667 -23 -72 -23h-94c-28.667 0 -53 7 -73 21c-18.667 14 -34.667 30 -48 48c-12.667 17.333 -19 38 -19 62v180c0 23.333 6.33301 43.666 19 60.999c13.333 18 29.333 34 48 48c20.667 14.667 45 22 73 22h92c28 0 52.333 -7.33301 73 -22
c20.667 -15.333 36.667 -31.333 48 -48c12 -16 18 -36.333 18 -61v-138zM305.999 257.002v47c0 3.33301 -0.333008 5.33301 -1 6c-7.33301 12 -18.333 22.333 -33 31c-1.33301 0.666992 -3.33301 1 -6 1h-91c-4.66699 0 -11.167 -3.5 -19.5 -10.5
s-14.833 -14.167 -19.5 -21.5l-1 -6v-47h171zM193.999 493.002h-107l98 131h94l98 -131h-107l-38 52z" />
    <glyph glyph-name="edieresis" unicode="&#xeb;" horiz-adv-x="481" 
d="M404 168l-271.001 0.00195312v-41l1 -5c4.66699 -7.33301 11.167 -14.5 19.5 -21.5s14.833 -10.5 19.5 -10.5h97c10 0 22.333 8.66699 37 26l3 4l93 -28c-4.66699 -11.333 -14.167 -24.833 -28.5 -40.5s-26.166 -26.834 -35.499 -33.501
c-22.667 -15.333 -46.667 -23 -72 -23h-94c-28.667 0 -53 7 -73 21c-18.667 14 -34.667 30 -48 48c-12.667 17.333 -19 38 -19 62v180c0 23.333 6.33301 43.666 19 60.999c13.333 18 29.333 34 48 48c20.667 14.667 45 22 73 22h92c28 0 52.333 -7.33301 73 -22
c20.667 -15.333 36.667 -31.333 48 -48c12 -16 18 -36.333 18 -61v-138zM303.999 257.002v47c0 3.33301 -0.333008 5.33301 -1 6c-7.33301 12 -18.333 22.333 -33 31c-1.33301 0.666992 -3.33301 1 -6 1h-91c-4.66699 0 -11.167 -3.5 -19.5 -10.5
s-14.833 -14.167 -19.5 -21.5l-1 -6v-47h171zM347.999 496.002h-97v103h97v-103zM186.999 496.002h-97v103h97v-103z" />
    <glyph glyph-name="igrave" unicode="&#xec;" horiz-adv-x="221" 
d="M144 -1h-100v431h100v-431zM138 515l-92 -27l-118 146h118z" />
    <glyph glyph-name="iacute" unicode="&#xed;" horiz-adv-x="221" 
d="M144 -1h-100v431h100v-431zM141 488l-92 27l92 119h118z" />
    <glyph glyph-name="icircumflex" unicode="&#xee;" horiz-adv-x="221" 
d="M144 -1h-100v431h100v-431zM54 493h-107l98 131h94l98 -131h-107l-38 52z" />
    <glyph glyph-name="idieresis" unicode="&#xef;" horiz-adv-x="221" 
d="M223 496h-97v103h97v-103zM62 496h-97v103h97v-103zM144 -1h-100v431h100v-431z" />
    <glyph glyph-name="eth" unicode="&#xf0;" horiz-adv-x="481" 
d="M366 548l-35 -18.0029c27.333 -15.333 46.333 -30.166 57 -44.499s16 -34.5 16 -60.5v-297c0 -22 -6 -42 -18 -60c-4 -6 -12.167 -14.667 -24.5 -26s-22.166 -19.666 -29.499 -24.999c-20 -14.667 -43 -22 -69 -22h-86c-28.667 0 -52 6.66699 -70 20
c-7.33301 5.33301 -17 13.833 -29 25.5s-20.333 20.834 -25 27.501c-12 18 -18 38.333 -18 61v171c0 23.333 6 44 18 62c4.66699 6.66699 13 16.167 25 28.5s21.667 20.833 29 25.5c20 14 43.333 21 70 21h66c13.333 0 33.666 -11 60.999 -33v16c0 14 -7 24.667 -21 32
l-59 32l-46 -19l-34 61l-58 28l44 81l103 -52l93 43zM136 307.997c-0.666992 -2 -0.99707 -4.00293 -0.99707 -6.00293v-166c0 -7.33301 0.333008 -11.666 1 -12.999c4.66699 -7.33301 11 -14.666 19 -21.999s14.333 -11 19 -11h91c4.66699 0 11.167 3.66699 19.5 11
s14.833 15 19.5 23c0.666992 0.666992 1 5.33398 1 14.001v158c-2.66699 5.33301 -7.83398 11.5 -15.501 18.5s-14.5 12.833 -20.5 17.5l-9 7c-2.66699 2 -8 3 -16 3h-71c-4.66699 0 -10.834 -3.66699 -18.501 -11s-13.834 -15 -18.501 -23z" />
    <glyph glyph-name="ntilde" unicode="&#xf1;" horiz-adv-x="495" 
d="M412 0l-99.999 0.000976562v304c0 2.66699 -0.333008 4.66699 -1 6c-6 11.333 -16.333 21.666 -31 30.999c-0.666992 0.666992 -3.33398 1 -8.00098 1h-70c-14 0 -33.667 -13.667 -59 -41v-301h-100v343l-10 89h98l5 -23c26 18.667 47 28 63 28h74
c28 0 52.333 -7.33301 73 -22c20.667 -15.333 36.667 -31.333 48 -48c12 -16 18 -36.333 18 -61v-306zM380.001 520.001l-80 -23c-4 10 -10.5 17.667 -19.5 23s-16.167 7 -21.5 5l-65 -21c-26 -8.66699 -52.5 -5.66699 -79.5 9s-47.167 38.667 -60.5 72l85 21
c4 -10 9.5 -17 16.5 -21s13.167 -5.33301 18.5 -4l68 21c26.667 8.66699 53 5.66699 79 -9s45.667 -39 59 -73z" />
    <glyph glyph-name="ograve" unicode="&#xf2;" horiz-adv-x="484" 
d="M405 126c0 -25.333 -5.66699 -45.666 -17 -60.999c-12 -18 -28 -34.333 -48 -49c-20 -14 -44.333 -21 -73 -21h-94c-28 0 -52 7 -72 21c-7.33301 5.33301 -16.333 13.333 -27 24s-18 19 -22 25c-11.333 15.333 -17 35.666 -17 60.999v180
c0 25.333 5.66699 45.666 17 60.999c10.667 16 27 32 49 48c20.667 14.667 44.667 22 72 22h94c28 0 52.333 -7.33301 73 -22c20.667 -15.333 36.667 -31.333 48 -48c11.333 -15.333 17 -35.666 17 -60.999v-180zM135 303v-181.999c0 -7.33301 11 -17.333 33 -30
c1.33301 -0.666992 3.33301 -1 6 -1h92c1.33301 0 3.33301 0.666992 6 2c21.333 12 32.333 21.667 33 29v182c0 2 -0.333008 4 -1 6c-8 13.333 -19 24 -33 32c-1.33301 0.666992 -3 1 -5 1h-92c-2 0 -3.66699 -0.333008 -5 -1c-14.667 -8.66699 -25.667 -19.334 -33 -32.001
zM302 515.001l-92 -27l-118 146h118z" />
    <glyph glyph-name="oacute" unicode="&#xf3;" horiz-adv-x="484" 
d="M405 126c0 -25.333 -5.66699 -45.666 -17 -60.999c-12 -18 -28 -34.333 -48 -49c-20 -14 -44.333 -21 -73 -21h-94c-28 0 -52 7 -72 21c-7.33301 5.33301 -16.333 13.333 -27 24s-18 19 -22 25c-11.333 15.333 -17 35.666 -17 60.999v180
c0 25.333 5.66699 45.666 17 60.999c10.667 16 27 32 49 48c20.667 14.667 44.667 22 72 22h94c28 0 52.333 -7.33301 73 -22c20.667 -15.333 36.667 -31.333 48 -48c11.333 -15.333 17 -35.666 17 -60.999v-180zM135 303v-181.999c0 -7.33301 11 -17.333 33 -30
c1.33301 -0.666992 3.33301 -1 6 -1h92c1.33301 0 3.33301 0.666992 6 2c21.333 12 32.333 21.667 33 29v182c0 2 -0.333008 4 -1 6c-8 13.333 -19 24 -33 32c-1.33301 0.666992 -3 1 -5 1h-92c-2 0 -3.66699 -0.333008 -5 -1c-14.667 -8.66699 -25.667 -19.334 -33 -32.001
zM225 488.001l-92 27l92 119h118z" />
    <glyph glyph-name="ocircumflex" unicode="&#xf4;" horiz-adv-x="484" 
d="M405 126c0 -25.333 -5.66699 -45.666 -17 -60.999c-12 -18 -28 -34.333 -48 -49c-20 -14 -44.333 -21 -73 -21h-94c-28 0 -52 7 -72 21c-7.33301 5.33301 -16.333 13.333 -27 24s-18 19 -22 25c-11.333 15.333 -17 35.666 -17 60.999v180
c0 25.333 5.66699 45.666 17 60.999c10.667 16 27 32 49 48c20.667 14.667 44.667 22 72 22h94c28 0 52.333 -7.33301 73 -22c20.667 -15.333 36.667 -31.333 48 -48c11.333 -15.333 17 -35.666 17 -60.999v-180zM135 303v-181.999c0 -7.33301 11 -17.333 33 -30
c1.33301 -0.666992 3.33301 -1 6 -1h92c1.33301 0 3.33301 0.666992 6 2c21.333 12 32.333 21.667 33 29v182c0 2 -0.333008 4 -1 6c-8 13.333 -19 24 -33 32c-1.33301 0.666992 -3 1 -5 1h-92c-2 0 -3.66699 -0.333008 -5 -1c-14.667 -8.66699 -25.667 -19.334 -33 -32.001
zM184 493.001h-107l98 131h94l98 -131h-107l-38 52z" />
    <glyph glyph-name="otilde" unicode="&#xf5;" horiz-adv-x="484" 
d="M405 126c0 -25.333 -5.66699 -45.666 -17 -60.999c-12 -18 -28 -34.333 -48 -49c-20 -14 -44.333 -21 -73 -21h-94c-28 0 -52 7 -72 21c-7.33301 5.33301 -16.333 13.333 -27 24s-18 19 -22 25c-11.333 15.333 -17 35.666 -17 60.999v180
c0 25.333 5.66699 45.666 17 60.999c10.667 16 27 32 49 48c20.667 14.667 44.667 22 72 22h94c28 0 52.333 -7.33301 73 -22c20.667 -15.333 36.667 -31.333 48 -48c11.333 -15.333 17 -35.666 17 -60.999v-180zM135 303v-181.999c0 -7.33301 11 -17.333 33 -30
c1.33301 -0.666992 3.33301 -1 6 -1h92c1.33301 0 3.33301 0.666992 6 2c21.333 12 32.333 21.667 33 29v182c0 2 -0.333008 4 -1 6c-8 13.333 -19 24 -33 32c-1.33301 0.666992 -3 1 -5 1h-92c-2 0 -3.66699 -0.333008 -5 -1c-14.667 -8.66699 -25.667 -19.334 -33 -32.001
zM381 520.001l-80 -23c-4 10 -10.5 17.667 -19.5 23s-16.167 7 -21.5 5l-65 -21c-26 -8.66699 -52.5 -5.66699 -79.5 9s-47.167 38.667 -60.5 72l85 21c4 -10 9.5 -17 16.5 -21s13.167 -5.33301 18.5 -4l68 21c26.667 8.66699 53 5.66699 79 -9s45.667 -39 59 -73z" />
    <glyph glyph-name="odieresis" unicode="&#xf6;" horiz-adv-x="484" 
d="M405 126c0 -25.333 -5.66699 -45.666 -17 -60.999c-12 -18 -28 -34.333 -48 -49c-20 -14 -44.333 -21 -73 -21h-94c-28 0 -52 7 -72 21c-7.33301 5.33301 -16.333 13.333 -27 24s-18 19 -22 25c-11.333 15.333 -17 35.666 -17 60.999v180
c0 25.333 5.66699 45.666 17 60.999c10.667 16 27 32 49 48c20.667 14.667 44.667 22 72 22h94c28 0 52.333 -7.33301 73 -22c20.667 -15.333 36.667 -31.333 48 -48c11.333 -15.333 17 -35.666 17 -60.999v-180zM135 303v-181.999c0 -7.33301 11 -17.333 33 -30
c1.33301 -0.666992 3.33301 -1 6 -1h92c1.33301 0 3.33301 0.666992 6 2c21.333 12 32.333 21.667 33 29v182c0 2 -0.333008 4 -1 6c-8 13.333 -19 24 -33 32c-1.33301 0.666992 -3 1 -5 1h-92c-2 0 -3.66699 -0.333008 -5 -1c-14.667 -8.66699 -25.667 -19.334 -33 -32.001
zM348 496.001h-97v103h97v-103zM187 496.001h-97v103h97v-103z" />
    <glyph glyph-name="divide" unicode="&#xf7;" horiz-adv-x="470" 
d="M390 196h-355v95h355v-95zM273 365h-123v126h123v-126zM273 0h-123v126h123v-126z" />
    <glyph glyph-name="oslash" unicode="&#xf8;" horiz-adv-x="489" 
d="M397 462l-31.999 -58.001c18 -16.667 29.667 -29 35 -37c11.333 -15.333 17 -35.666 17 -60.999v-180c0 -25.333 -5.66699 -45.666 -17 -60.999c-12 -18 -28 -34.333 -48 -49c-20 -14 -44.333 -21 -73 -21h-106c-10.667 0 -22.667 1.66699 -36 5l-19 -35h-65l34 62
c-15.333 12.667 -27 25.334 -35 38.001c-11.333 15.333 -17 35.666 -17 60.999v180c0 25.333 5.66699 45.666 17 60.999c10.667 16 27 32 49 48c20.667 14.667 44.667 22 72 22h106c9.33301 0 20.666 -1.66699 33.999 -5l16 30h68zM316.001 308.999l-3 4l-125 -223h90
c1.33301 0 3.33301 0.666992 6 2c21.333 12 32.333 21.667 33 29v182zM135.001 302.999v-181.999c0 -2 0.666992 -3.66699 2 -5l125 226h-88c-2 0 -3.66699 -0.333008 -5 -1c-14.667 -8.66699 -25.667 -19.334 -33 -32.001z" />
    <glyph glyph-name="ugrave" unicode="&#xf9;" horiz-adv-x="488" 
d="M410 0l-98 -0.000976562l-4 25c-26.667 -19.333 -47.667 -29 -63 -29h-75c-28.667 0 -53 7 -73 21c-20 14.667 -36 31 -48 49c-12 16 -18 36.333 -18 61v305h100v-303c0 -3.33301 0.333008 -5.66602 1 -6.99902c5.33301 -9.33301 16.333 -19.333 33 -30
c1.33301 -0.666992 3.33301 -1 6 -1h71c4.66699 0 14 4.83301 28 14.5s24.333 18.167 31 25.5v301h100v-343zM309 514.999l-92 -27l-118 146h118z" />
    <glyph glyph-name="uacute" unicode="&#xfa;" horiz-adv-x="488" 
d="M410 0l-98 -0.000976562l-4 25c-26.667 -19.333 -47.667 -29 -63 -29h-75c-28.667 0 -53 7 -73 21c-20 14.667 -36 31 -48 49c-12 16 -18 36.333 -18 61v305h100v-303c0 -3.33301 0.333008 -5.66602 1 -6.99902c5.33301 -9.33301 16.333 -19.333 33 -30
c1.33301 -0.666992 3.33301 -1 6 -1h71c4.66699 0 14 4.83301 28 14.5s24.333 18.167 31 25.5v301h100v-343zM220 487.999l-92 27l92 119h118z" />
    <glyph glyph-name="ucircumflex" unicode="&#xfb;" horiz-adv-x="488" 
d="M410 0l-98 -0.000976562l-4 25c-26.667 -19.333 -47.667 -29 -63 -29h-75c-28.667 0 -53 7 -73 21c-20 14.667 -36 31 -48 49c-12 16 -18 36.333 -18 61v305h100v-303c0 -3.33301 0.333008 -5.66602 1 -6.99902c5.33301 -9.33301 16.333 -19.333 33 -30
c1.33301 -0.666992 3.33301 -1 6 -1h71c4.66699 0 14 4.83301 28 14.5s24.333 18.167 31 25.5v301h100v-343zM177 492.999h-107l98 131h94l98 -131h-107l-38 52z" />
    <glyph glyph-name="udieresis" unicode="&#xfc;" horiz-adv-x="488" 
d="M410 0l-98 -0.000976562l-4 25c-26.667 -19.333 -47.667 -29 -63 -29h-75c-28.667 0 -53 7 -73 21c-20 14.667 -36 31 -48 49c-12 16 -18 36.333 -18 61v305h100v-303c0 -3.33301 0.333008 -5.66602 1 -6.99902c5.33301 -9.33301 16.333 -19.333 33 -30
c1.33301 -0.666992 3.33301 -1 6 -1h71c4.66699 0 14 4.83301 28 14.5s24.333 18.167 31 25.5v301h100v-343zM348 495.999h-97v103h97v-103zM187 495.999h-97v103h97v-103z" />
    <glyph glyph-name="yacute" unicode="&#xfd;" horiz-adv-x="430" 
d="M405 432l-212 -594h-101l60 162h-9l-159 432h112l101 -293l102 293h106zM205 488l-92 27l92 119h118z" />
    <glyph glyph-name="thorn" unicode="&#xfe;" horiz-adv-x="491" 
d="M412 127c0 -24.667 -6 -45.334 -18 -62.001c-15.333 -21.333 -31.333 -37.666 -48 -48.999c-20 -14 -44 -21 -72 -21h-73c-17.333 0 -37 7.66699 -59 23v-181h-100v763h100v-188c22 16.667 41.667 25 59 25h73c28 0 52 -7.33301 72 -22s36 -31 48 -49
c12 -17.333 18 -38 18 -62v-177zM312 129v172.999l-1 6c-7.33301 12.667 -18 23.334 -32 32.001c-2.66699 1.33301 -4.66699 2 -6 2h-69c-5.33301 0 -15.166 -5.5 -29.499 -16.5s-25.166 -20.5 -32.499 -28.5v-163c7.33301 -8 18.166 -17.333 32.499 -28
s24.166 -16 29.499 -16h69c2.66699 0 4.66699 0.333008 6 1c13.333 8.66699 24 19.667 32 33c0.666992 1.33301 1 3 1 5z" />
    <glyph glyph-name="ydieresis" unicode="&#xff;" horiz-adv-x="427" 
d="M425 432l-212 -594h-101l60 162h-9l-159 432h112l101 -293l102 293h106zM342 496h-97v103h97v-103zM181 496h-97v103h97v-103z" />
    <glyph glyph-name="Amacron" unicode="&#x100;" horiz-adv-x="549" 
d="M359 666h-227v89h227v-89zM515 0h-112l-44 127h-227l-44 -127h-112l209 598h122zM326 227l-80 236l-81 -236h161z" />
    <glyph glyph-name="amacron" unicode="&#x101;" horiz-adv-x="482" 
d="M292 271l-0.00195312 33.999c0 2.66699 -0.333008 4.33398 -1 5.00098c-6.66699 11.333 -17.334 21.333 -32.001 30c-2.66699 1.33301 -4.66699 2 -6 2h-88c-5.33301 0 -12.166 -3.66699 -20.499 -11s-14.833 -14 -19.5 -20l-94 28c4.66699 10.667 14.334 24 29.001 40
s26.667 27.333 36 34c23.333 16 47.333 24 72 24h86c28 0 52.333 -7.33301 73 -22c22 -16 38 -31.667 48 -47c11.333 -15.333 17 -36 17 -62v-218l10 -88h-99l-5 20c-23.333 -16.667 -44 -25 -62 -25h-82c-27.333 0 -51.333 7.33301 -72 22c-18 13.333 -33.667 29 -47 47
c-12 16.667 -18 37 -18 61v18c0 24 6 44.333 18 61c10.667 15.333 26.334 30.333 47.001 45s44.667 22 72 22h138zM291.998 129.999v52h-137c-2.66699 0 -5 -0.666992 -7 -2c-12 -7.33301 -22 -18 -30 -32c-0.666992 -1.33301 -1 -2.33301 -1 -3v-19l1 -3
c8.66699 -14.667 19 -25 31 -31c2.66699 -1.33301 4.66699 -2 6 -2h78c4.66699 0 14.5 5.33301 29.5 16s24.833 18.667 29.5 24zM332.998 508.999h-227v89h227v-89z" />
    <glyph glyph-name="Abreve" unicode="&#x102;" horiz-adv-x="549" 
d="M515 0h-112l-44 127h-227l-44 -127h-112l209 598h122zM326 227l-80 236l-81 -236h161zM293 751h57.999c0 -28.667 -10.167 -53.167 -30.5 -73.5s-44.5 -30.5 -72.5 -30.5s-52.5 10.167 -73.5 30.5s-31.5 44.833 -31.5 73.5h58c0 -13.333 4.66699 -24.666 14 -33.999
s20.333 -14 33 -14s23.334 4.66699 32.001 14s13 20.666 13 33.999z" />
    <glyph glyph-name="abreve" unicode="&#x103;" horiz-adv-x="482" 
d="M292 271l-0.00195312 33.999c0 2.66699 -0.333008 4.33398 -1 5.00098c-6.66699 11.333 -17.334 21.333 -32.001 30c-2.66699 1.33301 -4.66699 2 -6 2h-88c-5.33301 0 -12.166 -3.66699 -20.499 -11s-14.833 -14 -19.5 -20l-94 28c4.66699 10.667 14.334 24 29.001 40
s26.667 27.333 36 34c23.333 16 47.333 24 72 24h86c28 0 52.333 -7.33301 73 -22c22 -16 38 -31.667 48 -47c11.333 -15.333 17 -36 17 -62v-218l10 -88h-99l-5 20c-23.333 -16.667 -44 -25 -62 -25h-82c-27.333 0 -51.333 7.33301 -72 22c-18 13.333 -33.667 29 -47 47
c-12 16.667 -18 37 -18 61v18c0 24 6 44.333 18 61c10.667 15.333 26.334 30.333 47.001 45s44.667 22 72 22h138zM291.998 129.999v52h-137c-2.66699 0 -5 -0.666992 -7 -2c-12 -7.33301 -22 -18 -30 -32c-0.666992 -1.33301 -1 -2.33301 -1 -3v-19l1 -3
c8.66699 -14.667 19 -25 31 -31c2.66699 -1.33301 4.66699 -2 6 -2h78c4.66699 0 14.5 5.33301 29.5 16s24.833 18.667 29.5 24zM258.998 595.999h57.999c0 -28.667 -10.167 -53.167 -30.5 -73.5s-44.5 -30.5 -72.5 -30.5s-52.5 10.167 -73.5 30.5s-31.5 44.833 -31.5 73.5
h58c0 -13.333 4.66699 -24.666 14 -33.999s20.333 -14 33 -14s23.334 4.66699 32.001 14s13 20.666 13 33.999z" />
    <glyph glyph-name="Aogonek" unicode="&#x104;" horiz-adv-x="549" 
d="M471 -198l-80 125l97 29l96 -154h-113zM515 0h-112l-44 127h-227l-44 -127h-112l209 598h122zM326 227l-80 236l-81 -236h161z" />
    <glyph glyph-name="aogonek" unicode="&#x105;" horiz-adv-x="482" 
d="M347 -198l-80 125l97 29l96 -154h-113zM292 271l-0.00195312 33.999c0 2.66699 -0.333008 4.33398 -1 5.00098c-6.66699 11.333 -17.334 21.333 -32.001 30c-2.66699 1.33301 -4.66699 2 -6 2h-88c-5.33301 0 -12.166 -3.66699 -20.499 -11s-14.833 -14 -19.5 -20l-94 28
c4.66699 10.667 14.334 24 29.001 40s26.667 27.333 36 34c23.333 16 47.333 24 72 24h86c28 0 52.333 -7.33301 73 -22c22 -16 38 -31.667 48 -47c11.333 -15.333 17 -36 17 -62v-218l10 -88h-99l-5 20c-23.333 -16.667 -44 -25 -62 -25h-82
c-27.333 0 -51.333 7.33301 -72 22c-18 13.333 -33.667 29 -47 47c-12 16.667 -18 37 -18 61v18c0 24 6 44.333 18 61c10.667 15.333 26.334 30.333 47.001 45s44.667 22 72 22h138zM291.998 129.999v52h-137c-2.66699 0 -5 -0.666992 -7 -2c-12 -7.33301 -22 -18 -30 -32
c-0.666992 -1.33301 -1 -2.33301 -1 -3v-19l1 -3c8.66699 -14.667 19 -25 31 -31c2.66699 -1.33301 4.66699 -2 6 -2h78c4.66699 0 14.5 5.33301 29.5 16s24.833 18.667 29.5 24z" />
    <glyph glyph-name="Cacute" unicode="&#x106;" horiz-adv-x="553" 
d="M468 116c-6.66699 -15.333 -13.668 -28 -21.001 -38c-41.333 -55.333 -83.666 -83 -126.999 -83h-125c-22 0 -42.667 6 -62 18c-10 6 -23 17 -39 33s-27.333 28.667 -34 38c-10.667 16 -16 35 -16 57v315c0 21.333 5.33301 40 16 56c6.66699 10 18.167 23.167 34.5 39.5
s29.166 27.166 38.499 32.499c21.333 12 42 18 62 18h125c42.667 0 85 -27.667 127 -83c4 -5.33301 11 -17 21 -35l-102 -29c-20 24.667 -35 40 -45 46c-0.666992 0.666992 -2 1 -4 1h-118l-4 -1c-17.333 -9.33301 -32.333 -24 -45 -44c-0.666992 -1.33301 -1 -5 -1 -11
v-304c0 -5.33301 5.5 -13.166 16.5 -23.499s20.833 -17.833 29.5 -22.5c0.666992 -0.666992 3 -1 7 -1h114c2 0 3.66699 0.333008 5 1c6 2.66699 12.833 8 20.5 16s13.834 15.333 18.501 22l6 9zM267.999 632l-92 27l92 119h118z" />
    <glyph glyph-name="cacute" unicode="&#x107;" horiz-adv-x="477" 
d="M135 127c0 -2 0.666016 -3.99707 1.99902 -5.99707c6 -10.667 16.667 -20.334 32 -29.001c2.66699 -1.33301 4.66699 -2 6 -2h98c10 0 22.333 8.66699 37 26c0.666992 0.666992 1.66699 2 3 4l93 -28c-4.66699 -11.333 -14.167 -24.833 -28.5 -40.5
s-26.166 -26.834 -35.499 -33.501c-22.667 -15.333 -46.667 -23 -72 -23h-96c-28.667 0 -53 7 -73 21c-20 14.667 -36 31 -48 49c-12 16 -18 36.333 -18 61v180c0 24.667 6 45 18 61c12 18 28 34.333 48 49c20 14 44.333 21 73 21h95c25.333 0 49.333 -7.66699 72 -23
c11.333 -8 23.5 -19.167 36.5 -33.5s22.167 -27.833 27.5 -40.5l-93 -28l-3 4c-14.667 17.333 -27 26 -37 26h-97l-6 -2c-15.333 -8.66699 -26 -18.334 -32 -29.001l-2 -6v-178zM224.999 488.003l-92 27l92 119h118z" />
    <glyph glyph-name="Ccircumflex" unicode="&#x108;" horiz-adv-x="553" 
d="M468 116c-6.66699 -15.333 -13.668 -28 -21.001 -38c-41.333 -55.333 -83.666 -83 -126.999 -83h-125c-22 0 -42.667 6 -62 18c-10 6 -23 17 -39 33s-27.333 28.667 -34 38c-10.667 16 -16 35 -16 57v315c0 21.333 5.33301 40 16 56c6.66699 10 18.167 23.167 34.5 39.5
s29.166 27.166 38.499 32.499c21.333 12 42 18 62 18h125c42.667 0 85 -27.667 127 -83c4 -5.33301 11 -17 21 -35l-102 -29c-20 24.667 -35 40 -45 46c-0.666992 0.666992 -2 1 -4 1h-118l-4 -1c-17.333 -9.33301 -32.333 -24 -45 -44c-0.666992 -1.33301 -1 -5 -1 -11
v-304c0 -5.33301 5.5 -13.166 16.5 -23.499s20.833 -17.833 29.5 -22.5c0.666992 -0.666992 3 -1 7 -1h114c2 0 3.66699 0.333008 5 1c6 2.66699 12.833 8 20.5 16s13.834 15.333 18.501 22l6 9zM226.999 637h-107l98 131h94l98 -131h-107l-38 52z" />
    <glyph glyph-name="ccircumflex" unicode="&#x109;" horiz-adv-x="477" 
d="M135 127c0 -2 0.666016 -3.99707 1.99902 -5.99707c6 -10.667 16.667 -20.334 32 -29.001c2.66699 -1.33301 4.66699 -2 6 -2h98c10 0 22.333 8.66699 37 26c0.666992 0.666992 1.66699 2 3 4l93 -28c-4.66699 -11.333 -14.167 -24.833 -28.5 -40.5
s-26.166 -26.834 -35.499 -33.501c-22.667 -15.333 -46.667 -23 -72 -23h-96c-28.667 0 -53 7 -73 21c-20 14.667 -36 31 -48 49c-12 16 -18 36.333 -18 61v180c0 24.667 6 45 18 61c12 18 28 34.333 48 49c20 14 44.333 21 73 21h95c25.333 0 49.333 -7.66699 72 -23
c11.333 -8 23.5 -19.167 36.5 -33.5s22.167 -27.833 27.5 -40.5l-93 -28l-3 4c-14.667 17.333 -27 26 -37 26h-97l-6 -2c-15.333 -8.66699 -26 -18.334 -32 -29.001l-2 -6v-178zM192.999 493.003h-107l98 131h94l98 -131h-107l-38 52z" />
    <glyph glyph-name="Cdotaccent" unicode="&#x10a;" horiz-adv-x="553" 
d="M468 116c-6.66699 -15.333 -13.668 -28 -21.001 -38c-41.333 -55.333 -83.666 -83 -126.999 -83h-125c-22 0 -42.667 6 -62 18c-10 6 -23 17 -39 33s-27.333 28.667 -34 38c-10.667 16 -16 35 -16 57v315c0 21.333 5.33301 40 16 56c6.66699 10 18.167 23.167 34.5 39.5
s29.166 27.166 38.499 32.499c21.333 12 42 18 62 18h125c42.667 0 85 -27.667 127 -83c4 -5.33301 11 -17 21 -35l-102 -29c-20 24.667 -35 40 -45 46c-0.666992 0.666992 -2 1 -4 1h-118l-4 -1c-17.333 -9.33301 -32.333 -24 -45 -44c-0.666992 -1.33301 -1 -5 -1 -11
v-304c0 -5.33301 5.5 -13.166 16.5 -23.499s20.833 -17.833 29.5 -22.5c0.666992 -0.666992 3 -1 7 -1h114c2 0 3.66699 0.333008 5 1c6 2.66699 12.833 8 20.5 16s13.834 15.333 18.501 22l6 9zM311.999 644h-107v107h107v-107z" />
    <glyph glyph-name="cdotaccent" unicode="&#x10b;" horiz-adv-x="477" 
d="M135 127c0 -2 0.666016 -3.99707 1.99902 -5.99707c6 -10.667 16.667 -20.334 32 -29.001c2.66699 -1.33301 4.66699 -2 6 -2h98c10 0 22.333 8.66699 37 26c0.666992 0.666992 1.66699 2 3 4l93 -28c-4.66699 -11.333 -14.167 -24.833 -28.5 -40.5
s-26.166 -26.834 -35.499 -33.501c-22.667 -15.333 -46.667 -23 -72 -23h-96c-28.667 0 -53 7 -73 21c-20 14.667 -36 31 -48 49c-12 16 -18 36.333 -18 61v180c0 24.667 6 45 18 61c12 18 28 34.333 48 49c20 14 44.333 21 73 21h95c25.333 0 49.333 -7.66699 72 -23
c11.333 -8 23.5 -19.167 36.5 -33.5s22.167 -27.833 27.5 -40.5l-93 -28l-3 4c-14.667 17.333 -27 26 -37 26h-97l-6 -2c-15.333 -8.66699 -26 -18.334 -32 -29.001l-2 -6v-178zM276.999 494.003h-107v107h107v-107z" />
    <glyph glyph-name="Ccaron" unicode="&#x10c;" horiz-adv-x="553" 
d="M468 116c-6.66699 -15.333 -13.668 -28 -21.001 -38c-41.333 -55.333 -83.666 -83 -126.999 -83h-125c-22 0 -42.667 6 -62 18c-10 6 -23 17 -39 33s-27.333 28.667 -34 38c-10.667 16 -16 35 -16 57v315c0 21.333 5.33301 40 16 56c6.66699 10 18.167 23.167 34.5 39.5
s29.166 27.166 38.499 32.499c21.333 12 42 18 62 18h125c42.667 0 85 -27.667 127 -83c4 -5.33301 11 -17 21 -35l-102 -29c-20 24.667 -35 40 -45 46c-0.666992 0.666992 -2 1 -4 1h-118l-4 -1c-17.333 -9.33301 -32.333 -24 -45 -44c-0.666992 -1.33301 -1 -5 -1 -11
v-304c0 -5.33301 5.5 -13.166 16.5 -23.499s20.833 -17.833 29.5 -22.5c0.666992 -0.666992 3 -1 7 -1h114c2 0 3.66699 0.333008 5 1c6 2.66699 12.833 8 20.5 16s13.834 15.333 18.501 22l6 9zM293.999 768h107l-98 -131h-94l-98 131h107l38 -57z" />
    <glyph glyph-name="ccaron" unicode="&#x10d;" horiz-adv-x="477" 
d="M135 127c0 -2 0.666016 -3.99707 1.99902 -5.99707c6 -10.667 16.667 -20.334 32 -29.001c2.66699 -1.33301 4.66699 -2 6 -2h98c10 0 22.333 8.66699 37 26c0.666992 0.666992 1.66699 2 3 4l93 -28c-4.66699 -11.333 -14.167 -24.833 -28.5 -40.5
s-26.166 -26.834 -35.499 -33.501c-22.667 -15.333 -46.667 -23 -72 -23h-96c-28.667 0 -53 7 -73 21c-20 14.667 -36 31 -48 49c-12 16 -18 36.333 -18 61v180c0 24.667 6 45 18 61c12 18 28 34.333 48 49c20 14 44.333 21 73 21h95c25.333 0 49.333 -7.66699 72 -23
c11.333 -8 23.5 -19.167 36.5 -33.5s22.167 -27.833 27.5 -40.5l-93 -28l-3 4c-14.667 17.333 -27 26 -37 26h-97l-6 -2c-15.333 -8.66699 -26 -18.334 -32 -29.001l-2 -6v-178zM254.999 624.003h107l-98 -131h-94l-98 131h107l38 -57z" />
    <glyph glyph-name="Dcaron" unicode="&#x10e;" horiz-adv-x="563" 
d="M467 145c0 -23.333 -4.99805 -42.333 -14.998 -57c-6.66699 -9.33301 -18 -21.833 -34 -37.5s-29.333 -26.5 -40 -32.5c-21.333 -12 -41.333 -18 -60 -18h-274v598h274c23.333 0 43.666 -5.66699 60.999 -17c10 -6 22.667 -17 38 -33s26.666 -29.333 33.999 -40
c10.667 -14.667 16 -33.667 16 -57v-306zM149.002 100h162.001c4 0 6.33301 0.333008 7 1c8 4.66699 17.333 12.167 28 22.5s16 18.166 16 23.499v301c0 2 -0.333008 3.66699 -1 5c-12.667 20.667 -27.334 35.334 -44.001 44.001c-0.666992 0.666992 -3.66699 1 -9 1h-159
v-398zM274.003 768h107l-98 -131h-94l-98 131h107l38 -57z" />
    <glyph glyph-name="dcaron" unicode="&#x10f;" horiz-adv-x="582" 
d="M575 500l-8 -68h-99l9 81v127h98v-140zM412 0h-98l-4 22c-23.333 -18 -45 -27 -65 -27h-72c-28 0 -52 7.33301 -72 22s-36 31 -48 49c-12 17.333 -18 38 -18 62v177c0 24.667 6 45.334 18 62.001c15.333 21.333 31.333 37.666 48 48.999c20 14 44 21 72 21h72
c17.333 0 37 -7.66699 59 -23v184h100v-509zM304 135v163.001c-7.33301 8 -18.166 17.333 -32.499 28s-24.166 16 -29.499 16h-68c-3.33301 0 -5.33301 -0.333008 -6 -1c-13.333 -8.66699 -24 -19.667 -32 -33c-0.666992 -1.33301 -1 -3 -1 -5v-173l1 -6
c7.33301 -12.667 18 -23.334 32 -32.001c2.66699 -1.33301 4.66699 -2 6 -2h68c5.33301 0 15.166 5.5 29.499 16.5s25.166 20.5 32.499 28.5z" />
    <glyph glyph-name="Dcroat" unicode="&#x110;" horiz-adv-x="583" 
d="M487 145c0 -22.667 -4.66699 -41.667 -14 -57c-7.33301 -10 -19 -22.833 -35 -38.5s-29 -26.167 -39 -31.5c-22.667 -12 -42.667 -18 -60 -18h-275v252h-75v94h75v252h275c22.667 0 42.667 -5.66699 60 -17c20.667 -12.667 45 -37 73 -73c10 -15.333 15 -34.333 15 -57
v-306zM169 100l163.002 0.000976562c3.33301 0 5.66602 0.333008 6.99902 1c8 4.66699 17.167 12.167 27.5 22.5s15.5 18.166 15.5 23.499v306c-12.667 21.333 -27.667 36 -45 44c-0.666992 0.666992 -3.33398 1 -8.00098 1h-160v-152h103v-94h-103v-152z" />
    <glyph glyph-name="dcroat" unicode="&#x111;" horiz-adv-x="495" 
d="M435 467h-31v-382l8 -89h-100l-2 22c-23.333 -18 -45 -27 -65 -27h-72c-28 0 -52 7.33301 -72 22s-36 31 -48 49c-12 17.333 -18 38 -18 62v177c0 24.667 6 45.334 18 62.001c15.333 21.333 31.333 37.666 48 48.999c20 14 44 21 72 21h72c17.333 0 37 -7.66699 59 -23
v57h-131v94h131v33h100v-33h31v-94zM304 131v163.001c-7.33301 8 -18.166 17.333 -32.499 28s-24.166 16 -29.499 16h-68c-3.33301 0 -5.33301 -0.333008 -6 -1c-13.333 -8.66699 -24 -19.667 -32 -33c-0.666992 -1.33301 -1 -3 -1 -5v-173l1 -6
c7.33301 -12.667 18 -23.334 32 -32.001c2.66699 -1.33301 4.66699 -2 6 -2h68c5.33301 0 15.166 5.5 29.499 16.5s25.166 20.5 32.499 28.5z" />
    <glyph glyph-name="Emacron" unicode="&#x112;" horiz-adv-x="516" 
d="M420 0h-376v598h376v-100h-271v-151h252v-100h-252v-147h271v-100zM348 649h-227v99h227v-99z" />
    <glyph glyph-name="emacron" unicode="&#x113;" horiz-adv-x="481" 
d="M404 168l-271.001 0.00195312v-41l1 -5c4.66699 -7.33301 11.167 -14.5 19.5 -21.5s14.833 -10.5 19.5 -10.5h97c10 0 22.333 8.66699 37 26l3 4l93 -28c-4.66699 -11.333 -14.167 -24.833 -28.5 -40.5s-26.166 -26.834 -35.499 -33.501
c-22.667 -15.333 -46.667 -23 -72 -23h-94c-28.667 0 -53 7 -73 21c-18.667 14 -34.667 30 -48 48c-12.667 17.333 -19 38 -19 62v180c0 23.333 6.33301 43.666 19 60.999c13.333 18 29.333 34 48 48c20.667 14.667 45 22 73 22h92c28 0 52.333 -7.33301 73 -22
c20.667 -15.333 36.667 -31.333 48 -48c12 -16 18 -36.333 18 -61v-138zM303.999 257.002v47c0 3.33301 -0.333008 5.33301 -1 6c-7.33301 12 -18.333 22.333 -33 31c-1.33301 0.666992 -3.33301 1 -6 1h-91c-4.66699 0 -11.167 -3.5 -19.5 -10.5
s-14.833 -14.167 -19.5 -21.5l-1 -6v-47h171zM334.999 499.002h-227v99h227v-99z" />
    <glyph glyph-name="Ebreve" unicode="&#x114;" horiz-adv-x="516" 
d="M420 0h-376v598h376v-100h-271v-151h252v-100h-252v-147h271v-100zM280 751h57.999c0 -28.667 -10.167 -53.167 -30.5 -73.5s-44.5 -30.5 -72.5 -30.5s-52.5 10.167 -73.5 30.5s-31.5 44.833 -31.5 73.5h58c0 -13.333 4.66699 -24.666 14 -33.999s20.333 -14 33 -14
s23.334 4.66699 32.001 14s13 20.666 13 33.999z" />
    <glyph glyph-name="ebreve" unicode="&#x115;" horiz-adv-x="481" 
d="M404 168l-271.001 0.00195312v-41l1 -5c4.66699 -7.33301 11.167 -14.5 19.5 -21.5s14.833 -10.5 19.5 -10.5h97c10 0 22.333 8.66699 37 26l3 4l93 -28c-4.66699 -11.333 -14.167 -24.833 -28.5 -40.5s-26.166 -26.834 -35.499 -33.501
c-22.667 -15.333 -46.667 -23 -72 -23h-94c-28.667 0 -53 7 -73 21c-18.667 14 -34.667 30 -48 48c-12.667 17.333 -19 38 -19 62v180c0 23.333 6.33301 43.666 19 60.999c13.333 18 29.333 34 48 48c20.667 14.667 45 22 73 22h92c28 0 52.333 -7.33301 73 -22
c20.667 -15.333 36.667 -31.333 48 -48c12 -16 18 -36.333 18 -61v-138zM303.999 257.002v47c0 3.33301 -0.333008 5.33301 -1 6c-7.33301 12 -18.333 22.333 -33 31c-1.33301 0.666992 -3.33301 1 -6 1h-91c-4.66699 0 -11.167 -3.5 -19.5 -10.5
s-14.833 -14.167 -19.5 -21.5l-1 -6v-47h171zM263.999 596.002h57.999c0 -28.667 -10.167 -53.167 -30.5 -73.5s-44.5 -30.5 -72.5 -30.5s-52.5 10.167 -73.5 30.5s-31.5 44.833 -31.5 73.5h58c0 -13.333 4.66699 -24.666 14 -33.999s20.333 -14 33 -14
s23.334 4.66699 32.001 14s13 20.666 13 33.999z" />
    <glyph glyph-name="Edotaccent" unicode="&#x116;" horiz-adv-x="516" 
d="M420 0h-376v598h376v-100h-271v-151h252v-100h-252v-147h271v-100zM286 649h-107v107h107v-107z" />
    <glyph glyph-name="edotaccent" unicode="&#x117;" horiz-adv-x="481" 
d="M404 168l-271.001 0.00195312v-41l1 -5c4.66699 -7.33301 11.167 -14.5 19.5 -21.5s14.833 -10.5 19.5 -10.5h97c10 0 22.333 8.66699 37 26l3 4l93 -28c-4.66699 -11.333 -14.167 -24.833 -28.5 -40.5s-26.166 -26.834 -35.499 -33.501
c-22.667 -15.333 -46.667 -23 -72 -23h-94c-28.667 0 -53 7 -73 21c-18.667 14 -34.667 30 -48 48c-12.667 17.333 -19 38 -19 62v180c0 23.333 6.33301 43.666 19 60.999c13.333 18 29.333 34 48 48c20.667 14.667 45 22 73 22h92c28 0 52.333 -7.33301 73 -22
c20.667 -15.333 36.667 -31.333 48 -48c12 -16 18 -36.333 18 -61v-138zM303.999 257.002v47c0 3.33301 -0.333008 5.33301 -1 6c-7.33301 12 -18.333 22.333 -33 31c-1.33301 0.666992 -3.33301 1 -6 1h-91c-4.66699 0 -11.167 -3.5 -19.5 -10.5
s-14.833 -14.167 -19.5 -21.5l-1 -6v-47h171zM271.999 494.002h-107v107h107v-107z" />
    <glyph glyph-name="Eogonek" unicode="&#x118;" horiz-adv-x="516" 
d="M420 0h-376v598h376v-100h-271v-151h252v-100h-252v-147h271v-100zM318 -169l-80 125l97 29l96 -154h-113z" />
    <glyph glyph-name="eogonek" unicode="&#x119;" horiz-adv-x="481" 
d="M203 -198l-80 125l97 29l96 -154h-113zM404 168l-271.001 0.00195312v-41l1 -5c4.66699 -7.33301 11.167 -14.5 19.5 -21.5s14.833 -10.5 19.5 -10.5h97c10 0 22.333 8.66699 37 26l3 4l93 -28c-4.66699 -11.333 -14.167 -24.833 -28.5 -40.5
s-26.166 -26.834 -35.499 -33.501c-22.667 -15.333 -46.667 -23 -72 -23h-94c-28.667 0 -53 7 -73 21c-18.667 14 -34.667 30 -48 48c-12.667 17.333 -19 38 -19 62v180c0 23.333 6.33301 43.666 19 60.999c13.333 18 29.333 34 48 48c20.667 14.667 45 22 73 22h92
c28 0 52.333 -7.33301 73 -22c20.667 -15.333 36.667 -31.333 48 -48c12 -16 18 -36.333 18 -61v-138zM303.999 257.002v47c0 3.33301 -0.333008 5.33301 -1 6c-7.33301 12 -18.333 22.333 -33 31c-1.33301 0.666992 -3.33301 1 -6 1h-91
c-4.66699 0 -11.167 -3.5 -19.5 -10.5s-14.833 -14.167 -19.5 -21.5l-1 -6v-47h171z" />
    <glyph glyph-name="Ecaron" unicode="&#x11a;" horiz-adv-x="516" 
d="M420 0h-376v598h376v-100h-271v-151h252v-100h-252v-147h271v-100zM268 768h107l-98 -131h-94l-98 131h107l38 -57z" />
    <glyph glyph-name="ecaron" unicode="&#x11b;" horiz-adv-x="481" 
d="M404 168l-271.001 0.00195312v-41l1 -5c4.66699 -7.33301 11.167 -14.5 19.5 -21.5s14.833 -10.5 19.5 -10.5h97c10 0 22.333 8.66699 37 26l3 4l93 -28c-4.66699 -11.333 -14.167 -24.833 -28.5 -40.5s-26.166 -26.834 -35.499 -33.501
c-22.667 -15.333 -46.667 -23 -72 -23h-94c-28.667 0 -53 7 -73 21c-18.667 14 -34.667 30 -48 48c-12.667 17.333 -19 38 -19 62v180c0 23.333 6.33301 43.666 19 60.999c13.333 18 29.333 34 48 48c20.667 14.667 45 22 73 22h92c28 0 52.333 -7.33301 73 -22
c20.667 -15.333 36.667 -31.333 48 -48c12 -16 18 -36.333 18 -61v-138zM303.999 257.002v47c0 3.33301 -0.333008 5.33301 -1 6c-7.33301 12 -18.333 22.333 -33 31c-1.33301 0.666992 -3.33301 1 -6 1h-91c-4.66699 0 -11.167 -3.5 -19.5 -10.5
s-14.833 -14.167 -19.5 -21.5l-1 -6v-47h171zM254.999 624.002h107l-98 -131h-94l-98 131h107l38 -57z" />
    <glyph glyph-name="Gcircumflex" unicode="&#x11c;" horiz-adv-x="598" 
d="M149 142l-0.00292969 313.001c0 1.33301 0.333008 2.66602 1 3.99902c12 18.667 27 33 45 43c1.33301 0.666992 3 1 5 1h136c2.66699 0 4.33398 -0.333008 5.00098 -1c7.33301 -4.66699 15 -10.834 23 -18.501s14 -14.167 18 -19.5l6 -8l101 29c-4 9.33301 -11 21 -21 35
c-38.667 55.333 -81 83 -127 83h-146c-23.333 0 -44 -5.66699 -62 -17c-9.33301 -5.33301 -22.166 -16.166 -38.499 -32.499s-27.833 -29.5 -34.5 -39.5c-10.667 -16 -16 -35 -16 -57v-316c0 -22.667 5.33301 -42 16 -58c6.66699 -9.33301 18 -21.833 34 -37.5
s29 -26.5 39 -32.5c19.333 -12 40 -18 62 -18h146c14 0 34.667 9.66699 62 29l5 -24h103l-19 140v202h-234v-100h129v-97c0 -5.33301 -5.66699 -13.666 -17 -24.999s-21 -19.333 -29 -24c-1.33301 -0.666992 -3 -1 -5 -1h-136c-1.33301 0 -2.66602 0.333008 -3.99902 1h-1
c-8.66699 4.66699 -18.5 12.167 -29.5 22.5s-16.5 18.166 -16.5 23.499zM229.997 637.001h-107l98 131h94l98 -131h-107l-38 52z" />
    <glyph glyph-name="gcircumflex" unicode="&#x11d;" horiz-adv-x="503" 
d="M420 432l-8.99902 -90v-378c0 -26.667 -5.66699 -47.667 -17 -63c-11.333 -16.667 -27.333 -32.667 -48 -48c-20.667 -14.667 -45 -22 -73 -22h-88c-24.667 0 -48.667 8 -72 24c-9.33301 6.66699 -21.166 17.834 -35.499 33.501s-23.833 29.167 -28.5 40.5l93 28
c0.666992 -1.33301 1.66699 -2.66602 3 -3.99902c15.333 -18 27.666 -27 36.999 -27h90c1.33301 0 3.33301 0.666992 6 2c5.33301 3.33301 12 8.5 20 15.5s12.333 12.167 13 15.5v7v54c-22.667 -16 -42.334 -24 -59.001 -24h-77c-28 0 -52.333 7.33301 -73 22
c-16.667 11.333 -32.667 27.666 -48 48.999c-12 16 -18 36.667 -18 62v175c0 25.333 6 46 18 62c15.333 21.333 31.333 37.666 48 48.999c20.667 14.667 45 22 73 22h77c20.667 0 42.667 -9 66 -27l4 22h98zM176.001 91h73.001c3.33301 0 5.66602 0.333008 6.99902 1
c18.667 9.33301 37 24.333 55 45v158c-29.333 31.333 -50 47 -62 47h-73c-1.33301 0 -3.33301 -0.666992 -6 -2c-14.667 -9.33301 -25.667 -20.333 -33 -33l-1 -5v-171c0 -2.66699 0.333008 -4.66699 1 -6c7.33301 -12.667 18.333 -23.667 33 -33
c1.33301 -0.666992 3.33301 -1 6 -1zM200.002 493h-107l98 131h94l98 -131h-107l-38 52z" />
    <glyph glyph-name="Gbreve" unicode="&#x11e;" horiz-adv-x="598" 
d="M149 455l0.00390625 -312.999c0 -5.33301 5.5 -13.166 16.5 -23.499s20.833 -17.833 29.5 -22.5h1c1.33301 -0.666992 2.66602 -1 3.99902 -1h136l5 1c8 4.66699 17.667 12.667 29 24s17 19.666 17 24.999v97h-129v100h234v-202c4.66699 -44 11 -90.667 19 -140h-103
l-5 24c-27.333 -19.333 -48 -29 -62 -29h-146c-22 0 -42.667 6 -62 18c-10 6 -23 16.833 -39 32.5s-27.333 28.167 -34 37.5c-10.667 16 -16 35.333 -16 58v316c0 22 5.33301 41 16 57c6.66699 10 18.167 23.167 34.5 39.5s29.166 27.166 38.499 32.499
c18 11.333 38.667 17 62 17h146c46 0 88.333 -27.667 127 -83c10 -14 17 -25.667 21 -35l-101 -29c-14.667 20 -30.334 35.333 -47.001 46c-0.666992 0.666992 -2.33398 1 -5.00098 1h-136l-5 -1c-18 -10 -33 -24.333 -45 -43zM308.004 747.001h57.999
c0 -28.667 -10.167 -53.167 -30.5 -73.5s-44.5 -30.5 -72.5 -30.5s-52.5 10.167 -73.5 30.5s-31.5 44.833 -31.5 73.5h58c0 -13.333 4.66699 -24.666 14 -33.999s20.333 -14 33 -14s23.334 4.66699 32.001 14s13 20.666 13 33.999z" />
    <glyph glyph-name="gbreve" unicode="&#x11f;" horiz-adv-x="503" 
d="M420 432l-8.99902 -90v-378c0 -26.667 -5.66699 -47.667 -17 -63c-11.333 -16.667 -27.333 -32.667 -48 -48c-20.667 -14.667 -45 -22 -73 -22h-88c-24.667 0 -48.667 8 -72 24c-9.33301 6.66699 -21.166 17.834 -35.499 33.501s-23.833 29.167 -28.5 40.5l93 28
c0.666992 -1.33301 1.66699 -2.66602 3 -3.99902c15.333 -18 27.666 -27 36.999 -27h90c1.33301 0 3.33301 0.666992 6 2c5.33301 3.33301 12 8.5 20 15.5s12.333 12.167 13 15.5v7v54c-22.667 -16 -42.334 -24 -59.001 -24h-77c-28 0 -52.333 7.33301 -73 22
c-16.667 11.333 -32.667 27.666 -48 48.999c-12 16 -18 36.667 -18 62v175c0 25.333 6 46 18 62c15.333 21.333 31.333 37.666 48 48.999c20.667 14.667 45 22 73 22h77c20.667 0 42.667 -9 66 -27l4 22h98zM176.001 91h73.001c3.33301 0 5.66602 0.333008 6.99902 1
c18.667 9.33301 37 24.333 55 45v158c-29.333 31.333 -50 47 -62 47h-73c-1.33301 0 -3.33301 -0.666992 -6 -2c-14.667 -9.33301 -25.667 -20.333 -33 -33l-1 -5v-171c0 -2.66699 0.333008 -4.66699 1 -6c7.33301 -12.667 18.333 -23.667 33 -33
c1.33301 -0.666992 3.33301 -1 6 -1zM269.002 596h57.999c0 -28.667 -10.167 -53.167 -30.5 -73.5s-44.5 -30.5 -72.5 -30.5s-52.5 10.167 -73.5 30.5s-31.5 44.833 -31.5 73.5h58c0 -13.333 4.66699 -24.666 14 -33.999s20.333 -14 33 -14s23.334 4.66699 32.001 14
s13 20.666 13 33.999z" />
    <glyph glyph-name="Gdotaccent" unicode="&#x120;" horiz-adv-x="598" 
d="M149 142l-0.00292969 313.001c0 1.33301 0.333008 2.66602 1 3.99902c12 18.667 27 33 45 43c1.33301 0.666992 3 1 5 1h136c2.66699 0 4.33398 -0.333008 5.00098 -1c7.33301 -4.66699 15 -10.834 23 -18.501s14 -14.167 18 -19.5l6 -8l101 29c-4 9.33301 -11 21 -21 35
c-38.667 55.333 -81 83 -127 83h-146c-23.333 0 -44 -5.66699 -62 -17c-9.33301 -5.33301 -22.166 -16.166 -38.499 -32.499s-27.833 -29.5 -34.5 -39.5c-10.667 -16 -16 -35 -16 -57v-316c0 -22.667 5.33301 -42 16 -58c6.66699 -9.33301 18 -21.833 34 -37.5
s29 -26.5 39 -32.5c19.333 -12 40 -18 62 -18h146c14 0 34.667 9.66699 62 29l5 -24h103l-19 140v202h-234v-100h129v-97c0 -5.33301 -5.66699 -13.666 -17 -24.999s-21 -19.333 -29 -24c-1.33301 -0.666992 -3 -1 -5 -1h-136c-1.33301 0 -2.66602 0.333008 -3.99902 1h-1
c-8.66699 4.66699 -18.5 12.167 -29.5 22.5s-16.5 18.166 -16.5 23.499zM315.997 649.001h-107v107h107v-107z" />
    <glyph glyph-name="gdotaccent" unicode="&#x121;" horiz-adv-x="503" 
d="M420 432l-8.99902 -90v-378c0 -26.667 -5.66699 -47.667 -17 -63c-11.333 -16.667 -27.333 -32.667 -48 -48c-20.667 -14.667 -45 -22 -73 -22h-88c-24.667 0 -48.667 8 -72 24c-9.33301 6.66699 -21.166 17.834 -35.499 33.501s-23.833 29.167 -28.5 40.5l93 28
c0.666992 -1.33301 1.66699 -2.66602 3 -3.99902c15.333 -18 27.666 -27 36.999 -27h90c1.33301 0 3.33301 0.666992 6 2c5.33301 3.33301 12 8.5 20 15.5s12.333 12.167 13 15.5v7v54c-22.667 -16 -42.334 -24 -59.001 -24h-77c-28 0 -52.333 7.33301 -73 22
c-16.667 11.333 -32.667 27.666 -48 48.999c-12 16 -18 36.667 -18 62v175c0 25.333 6 46 18 62c15.333 21.333 31.333 37.666 48 48.999c20.667 14.667 45 22 73 22h77c20.667 0 42.667 -9 66 -27l4 22h98zM176.001 91h73.001c3.33301 0 5.66602 0.333008 6.99902 1
c18.667 9.33301 37 24.333 55 45v158c-29.333 31.333 -50 47 -62 47h-73c-1.33301 0 -3.33301 -0.666992 -6 -2c-14.667 -9.33301 -25.667 -20.333 -33 -33l-1 -5v-171c0 -2.66699 0.333008 -4.66699 1 -6c7.33301 -12.667 18.333 -23.667 33 -33
c1.33301 -0.666992 3.33301 -1 6 -1zM282.002 494h-107v107h107v-107z" />
    <glyph glyph-name="Gcommaaccent" unicode="&#x122;" horiz-adv-x="598" 
d="M354 -73l-80 -125h-113l96 154zM149 455l0.00390625 -312.999c0 -5.33301 5.5 -13.166 16.5 -23.499s20.833 -17.833 29.5 -22.5h1c1.33301 -0.666992 2.66602 -1 3.99902 -1h136l5 1c8 4.66699 17.667 12.667 29 24s17 19.666 17 24.999v97h-129v100h234v-202
c4.66699 -44 11 -90.667 19 -140h-103l-5 24c-27.333 -19.333 -48 -29 -62 -29h-146c-22 0 -42.667 6 -62 18c-10 6 -23 16.833 -39 32.5s-27.333 28.167 -34 37.5c-10.667 16 -16 35.333 -16 58v316c0 22 5.33301 41 16 57c6.66699 10 18.167 23.167 34.5 39.5
s29.166 27.166 38.499 32.499c18 11.333 38.667 17 62 17h146c46 0 88.333 -27.667 127 -83c10 -14 17 -25.667 21 -35l-101 -29c-14.667 20 -30.334 35.333 -47.001 46c-0.666992 0.666992 -2.33398 1 -5.00098 1h-136l-5 -1c-18 -10 -33 -24.333 -45 -43z" />
    <glyph glyph-name="gcommaaccent" unicode="&#x123;" horiz-adv-x="503" 
d="M420 432l-8.99902 -90v-378c0 -26.667 -5.66699 -47.667 -17 -63c-11.333 -16.667 -27.333 -32.667 -48 -48c-20.667 -14.667 -45 -22 -73 -22h-88c-24.667 0 -48.667 8 -72 24c-9.33301 6.66699 -21.166 17.834 -35.499 33.501s-23.833 29.167 -28.5 40.5l93 28
c0.666992 -1.33301 1.66699 -2.66602 3 -3.99902c15.333 -18 27.666 -27 36.999 -27h90c1.33301 0 3.33301 0.666992 6 2c5.33301 3.33301 12 8.5 20 15.5s12.333 12.167 13 15.5v7v54c-22.667 -16 -42.334 -24 -59.001 -24h-77c-28 0 -52.333 7.33301 -73 22
c-16.667 11.333 -32.667 27.666 -48 48.999c-12 16 -18 36.667 -18 62v175c0 25.333 6 46 18 62c15.333 21.333 31.333 37.666 48 48.999c20.667 14.667 45 22 73 22h77c20.667 0 42.667 -9 66 -27l4 22h98zM176.001 91h73.001c3.33301 0 5.66602 0.333008 6.99902 1
c18.667 9.33301 37 24.333 55 45v158c-29.333 31.333 -50 47 -62 47h-73c-1.33301 0 -3.33301 -0.666992 -6 -2c-14.667 -9.33301 -25.667 -20.333 -33 -33l-1 -5v-171c0 -2.66699 0.333008 -4.66699 1 -6c7.33301 -12.667 18.333 -23.667 33 -33
c1.33301 -0.666992 3.33301 -1 6 -1zM236.002 488l-92 27l92 119h118z" />
    <glyph glyph-name="Hcircumflex" unicode="&#x124;" horiz-adv-x="572" 
d="M472 0h-105v247h-218v-247h-105v598h105v-251h218v251h105v-598zM225 637h-107l98 131h94l98 -131h-107l-38 52z" />
    <glyph glyph-name="hcircumflex" unicode="&#x125;" horiz-adv-x="485" 
d="M302 303l0.000976562 -302.999h100v305c0 23.333 -6 43.666 -18 60.999c-15.333 21.333 -31.333 37.666 -48 48.999c-20 14.667 -44 22 -72 22h-72c-16.667 0 -36.334 -8 -59.001 -24v185h-100v-598h100v297c6.66699 8.66699 17 18.334 31 29.001s24 16 30 16h69
c3.33301 0 5.33301 -0.333008 6 -1c13.333 -8.66699 24 -19.667 32 -33c0.666992 -1.33301 1 -3 1 -5zM186.001 637.001h-107l98 131h94l98 -131h-107l-38 52z" />
    <glyph glyph-name="Hbar" unicode="&#x126;" horiz-adv-x="572" 
d="M473 0h-105v247h-219v-247h-105v471h-28v94h28v33h105v-33h219v33h105v-33h31v-94h-31v-471zM149 347h219v124h-219v-124z" />
    <glyph glyph-name="hbar" unicode="&#x127;" horiz-adv-x="487" 
d="M263 472l-128.001 -0.000976562v-59c22.667 16 42.334 24 59.001 24h72c28 0 52 -7.33301 72 -22c16.667 -11.333 32.667 -27.666 48 -48.999c12 -17.333 18 -37.666 18 -60.999v-305h-100v303l-1 5c-8 13.333 -18.667 24.333 -32 33c-0.666992 0.666992 -2.66699 1 -6 1
h-69c-6 0 -16 -5.33301 -30 -16s-24.333 -20.334 -31 -29.001v-297h-100v472h-47v88h47v38h100v-38h128v-88z" />
    <glyph glyph-name="Itilde" unicode="&#x128;" horiz-adv-x="249" 
d="M149 0h-105v598h105v-598zM259 664l-80 -23c-4 10 -10.5 17.667 -19.5 23s-16.167 7 -21.5 5l-65 -21c-26 -8.66699 -52.5 -5.66699 -79.5 9s-47.167 38.667 -60.5 72l85 21c4 -10 9.5 -17 16.5 -21s13.167 -5.33301 18.5 -4l68 21c26.667 8.66699 53 5.66699 79 -9
s45.667 -39 59 -73z" />
    <glyph glyph-name="itilde" unicode="&#x129;" horiz-adv-x="216" 
d="M144 -1h-100v431h100v-431zM255 520l-80 -23c-4 10 -10.5 17.667 -19.5 23s-16.167 7 -21.5 5l-65 -21c-26 -8.66699 -52.5 -5.66699 -79.5 9s-47.167 38.667 -60.5 72l85 21c4 -10 9.5 -17 16.5 -21s13.167 -5.33301 18.5 -4l68 21c26.667 8.66699 53 5.66699 79 -9
s45.667 -39 59 -73z" />
    <glyph glyph-name="Imacron" unicode="&#x12a;" horiz-adv-x="249" 
d="M209 664h-227v89h227v-89zM149 0h-105v598h105v-598z" />
    <glyph glyph-name="imacron" unicode="&#x12b;" horiz-adv-x="216" 
d="M208 509h-227v89h227v-89zM144 -1h-100v431h100v-431z" />
    <glyph glyph-name="Ibreve" unicode="&#x12c;" horiz-adv-x="249" 
d="M149 0h-105v598h105v-598zM142 751h57.999c0 -28.667 -10.167 -53.167 -30.5 -73.5s-44.5 -30.5 -72.5 -30.5s-52.5 10.167 -73.5 30.5s-31.5 44.833 -31.5 73.5h58c0 -13.333 4.66699 -24.666 14 -33.999s20.333 -14 33 -14s23.334 4.66699 32.001 14
s13 20.666 13 33.999z" />
    <glyph glyph-name="ibreve" unicode="&#x12d;" horiz-adv-x="216" 
d="M144 -1h-100v431h100v-431zM140 596h57.999c0 -28.667 -10.167 -53.167 -30.5 -73.5s-44.5 -30.5 -72.5 -30.5s-52.5 10.167 -73.5 30.5s-31.5 44.833 -31.5 73.5h58c0 -13.333 4.66699 -24.666 14 -33.999s20.333 -14 33 -14s23.334 4.66699 32.001 14
s13 20.666 13 33.999z" />
    <glyph glyph-name="Iogonek" unicode="&#x12e;" horiz-adv-x="249" 
d="M109 -198l-80 125l97 29l96 -154h-113zM149 0h-105v598h105v-598z" />
    <glyph glyph-name="iogonek" unicode="&#x12f;" horiz-adv-x="216" 
d="M109 -198l-80 125l97 29l96 -154h-113zM147 493h-107v107h107v-107zM144 0h-100v432h100v-432z" />
    <glyph glyph-name="Idotaccent" unicode="&#x130;" horiz-adv-x="249" 
d="M149 0h-105v598h105v-598zM149 649h-107v107h107v-107z" />
    <glyph glyph-name="dotlessi" unicode="&#x131;" horiz-adv-x="216" 
d="M144 -1h-100v431h100v-431z" />
    <glyph glyph-name="IJ" unicode="&#x132;" horiz-adv-x="725" 
d="M149 0h-105v598h105v-598zM622 143c0 -20.667 -5.66895 -39.665 -17.002 -56.998c-7.33301 -10 -18.666 -23 -33.999 -39s-27.666 -26.667 -36.999 -32c-20.667 -12 -41.334 -18 -62.001 -18h-74c-44 0 -86.667 27.667 -128 83c-4 6 -10.667 18.667 -20 38l101 27
c10.667 -23.333 24 -39 40 -47c0.666992 -0.666992 3.33398 -1 8.00098 -1h68c3.33301 -0.666992 12.5 6.16602 27.5 20.499s22.5 23.166 22.5 26.499v456h105v-457z" />
    <glyph glyph-name="ij" unicode="&#x133;" horiz-adv-x="437" 
d="M147 493h-107v107h107v-107zM144 0h-100v432h100v-432zM375 493h-107v107h107v-107zM231 -72h-81v-93h84c27.333 0 51 7 71 21c18 12 34.333 28.333 49 49c12 17.333 18 38.333 18 63v464h-100v-463l-1 -5c-6.66699 -13.333 -18 -25 -34 -35
c-1.33301 -0.666992 -3.33301 -1 -6 -1z" />
    <glyph glyph-name="Jcircumflex" unicode="&#x134;" horiz-adv-x="472" 
d="M369 141c0 -20.667 -5.66895 -39.665 -17.002 -56.998c-7.33301 -10 -18.666 -23 -33.999 -39s-27.666 -26.667 -36.999 -32c-20.667 -12 -41.334 -18 -62.001 -18h-74c-44 0 -86.667 27.667 -128 83c-4 6 -10.667 18.667 -20 38l101 27c10.667 -23.333 24 -39 40 -47
c0.666992 -0.666992 3.33398 -1 8.00098 -1h68c3.33301 -0.666992 12.5 6.16602 27.5 20.499s22.5 23.166 22.5 26.499v456h105v-457zM283.998 637.002h-107l98 131h94l98 -131h-107l-38 52z" />
    <glyph glyph-name="jcircumflex" unicode="&#x135;" horiz-adv-x="225" 
d="M21 -70l-82.999 -0.000976562v-95h84c27.333 0 51 7 71 21c18 12 34.333 28.333 49 49c12 17.333 18 38.333 18 63v464h-100v-462l-1 -5c-6.66699 -13.333 -17.334 -24.666 -32.001 -33.999c-1.33301 -0.666992 -3.33301 -1 -6 -1zM77.001 492.999h-107l98 131h94
l98 -131h-107l-38 52z" />
    <glyph glyph-name="Kcommaaccent" unicode="&#x136;" horiz-adv-x="522" 
d="M306 -73l-80 -125h-113l96 154zM496 0h-129l-207 250h-11v-250h-105v598h105v-249h10l105 126l102 123h129l-249 -298l111.5 -134z" />
    <glyph glyph-name="kcommaaccent" unicode="&#x137;" horiz-adv-x="450" 
d="M292 -73l-80 -125h-113l96 154zM412 0h-128l-136 182h-18v-182h-100v598h100v-322h19l21.5 26l41.5 50.5l46 57.5l19 22h124l-166 -202z" />
    <glyph glyph-name="kgreenlandic" unicode="&#x138;" horiz-adv-x="450" 
d="M421 0h-132l-154 176v-176h-100v432h100v-154l144 154h137v-92l-88 1l-106 -113z" />
    <glyph glyph-name="Lacute" unicode="&#x139;" horiz-adv-x="480" 
d="M414 0h-370v598h105v-498h265v-100zM155 632l-92 27l92 119h118z" />
    <glyph glyph-name="lacute" unicode="&#x13a;" horiz-adv-x="230" 
d="M151 0h-101l-10 74v524h100v-513zM147 632l-92 27l92 119h118z" />
    <glyph glyph-name="Lcommaaccent" unicode="&#x13b;" horiz-adv-x="480" 
d="M296 -73l-80 -125h-113l96 154zM414 0h-370v598h105v-498h265v-100z" />
    <glyph glyph-name="lcommaaccent" unicode="&#x13c;" horiz-adv-x="230" 
d="M170 -73l-80 -125h-113l96 154zM153 0h-101l-12 77v521h100v-510z" />
    <glyph glyph-name="Lcaron" unicode="&#x13d;" horiz-adv-x="480" 
d="M336 500l-8 -68h-99l9 81v127h98v-140zM414 0h-370v598h105v-498h265v-100z" />
    <glyph glyph-name="lcaron" unicode="&#x13e;" horiz-adv-x="326" 
d="M311 500l-8 -68h-99l9 81v127h98v-140zM151 0h-101l-10 74v524h100v-513z" />
    <glyph glyph-name="Ldot" unicode="&#x13f;" horiz-adv-x="480" 
d="M414 0h-370v598h105v-498h265v-100zM362 247h-107v107h107v-107z" />
    <glyph glyph-name="ldot" unicode="&#x140;" horiz-adv-x="342" 
d="M151 0h-101l-10 74v524h100v-513zM311 249h-107v107h107v-107z" />
    <glyph glyph-name="Lslash" unicode="&#x141;" horiz-adv-x="500" 
d="M279 324l-110 -58v-166h264v-100h-369v211l-46 -24l-44 84l90 47v280h105v-225l66 35z" />
    <glyph glyph-name="lslash" unicode="&#x142;" horiz-adv-x="306" 
d="M177 0l-99 -0.00292969c-6.66699 44.667 -10 69.334 -10 74.001v139l-50 -26l-44 84l94 49v278h101v-225l66 35l44 -84l-110 -58v-181c0 -5.33301 0.333008 -11.666 1 -18.999s1.66699 -17.166 3 -29.499z" />
    <glyph glyph-name="Nacute" unicode="&#x143;" horiz-adv-x="567" 
d="M467 0h-111l-207 397v-397h-105v598h113l205 -402v402h105v-598zM255 634l-92 27l92 119h118z" />
    <glyph glyph-name="nacute" unicode="&#x144;" horiz-adv-x="495" 
d="M412 0l-99.999 0.000976562v304c0 2.66699 -0.333008 4.66699 -1 6c-6 11.333 -16.333 21.666 -31 30.999c-0.666992 0.666992 -3.33398 1 -8.00098 1h-70c-14 0 -33.667 -13.667 -59 -41v-301h-100v343l-10 89h98l5 -23c26 18.667 47 28 63 28h74
c28 0 52.333 -7.33301 73 -22c20.667 -15.333 36.667 -31.333 48 -48c12 -16 18 -36.333 18 -61v-306zM225.001 488.001l-92 27l92 119h118z" />
    <glyph glyph-name="Ncommaaccent" unicode="&#x145;" horiz-adv-x="567" 
d="M324 -73l-80 -125h-113l96 154zM467 0h-111l-207 397v-397h-105v598h113l205 -402v402h105v-598z" />
    <glyph glyph-name="ncommaaccent" unicode="&#x146;" horiz-adv-x="495" 
d="M307 -73l-80 -125h-113l96 154zM412 0l-99.999 0.000976562v304c0 2.66699 -0.333008 4.66699 -1 6c-6 11.333 -16.333 21.666 -31 30.999c-0.666992 0.666992 -3.33398 1 -8.00098 1h-70c-14 0 -33.667 -13.667 -59 -41v-301h-100v343l-10 89h98l5 -23
c26 18.667 47 28 63 28h74c28 0 52.333 -7.33301 73 -22c20.667 -15.333 36.667 -31.333 48 -48c12 -16 18 -36.333 18 -61v-306z" />
    <glyph glyph-name="Ncaron" unicode="&#x147;" horiz-adv-x="567" 
d="M467 0h-111l-207 397v-397h-105v598h113l205 -402v402h105v-598zM296 770h107l-98 -131h-94l-98 131h107l38 -57z" />
    <glyph glyph-name="ncaron" unicode="&#x148;" horiz-adv-x="495" 
d="M412 0l-99.999 0.000976562v304c0 2.66699 -0.333008 4.66699 -1 6c-6 11.333 -16.333 21.666 -31 30.999c-0.666992 0.666992 -3.33398 1 -8.00098 1h-70c-14 0 -33.667 -13.667 -59 -41v-301h-100v343l-10 89h98l5 -23c26 18.667 47 28 63 28h74
c28 0 52.333 -7.33301 73 -22c20.667 -15.333 36.667 -31.333 48 -48c12 -16 18 -36.333 18 -61v-306zM262.001 624.001h107l-98 -131h-94l-98 131h107l38 -57z" />
    <glyph glyph-name="napostrophe" unicode="&#x149;" 
d="M75 500l-8 -68h-99l9 81v127h98v-140zM472 0l-99.999 0.000976562v304c0 2.66699 -0.333008 4.66699 -1 6c-6 11.333 -16.333 21.666 -31 30.999c-0.666992 0.666992 -3.33398 1 -8.00098 1h-70c-14 0 -33.667 -13.667 -59 -41v-301h-100v343l-10 89h98l5 -23
c26 18.667 47 28 63 28h74c28 0 52.333 -7.33301 73 -22c20.667 -15.333 36.667 -31.333 48 -48c12 -16 18 -36.333 18 -61v-306z" />
    <glyph glyph-name="Eng" unicode="&#x14a;" horiz-adv-x="567" 
d="M367 0l-11.001 0.000976562l-207 397v-397h-105v598h113l205 -402v402h105v-598v-32c0 -24.667 -6 -45.667 -18 -63c-14.667 -20.667 -31 -37 -49 -49c-20 -14 -43.667 -21 -71 -21h-84v95h83l6 1c14.667 9.33301 25.334 20.666 32.001 33.999c0.666992 2 1 3.66699 1 5
v30z" />
    <glyph glyph-name="eng" unicode="&#x14b;" horiz-adv-x="495" 
d="M412 0v-31.998c0 -24.667 -6 -45.667 -18 -63c-14.667 -20.667 -31 -37 -49 -49c-20 -14 -43.667 -21 -71 -21h-84v95h83l6 1c14.667 9.33301 25.334 20.666 32.001 33.999c0.666992 2 1 3.66699 1 5v30v304c0 2.66699 -0.333008 4.66699 -1 6
c-6 11.333 -16.333 21.666 -31 30.999c-0.666992 0.666992 -3.33398 1 -8.00098 1h-70c-14 0 -33.667 -13.667 -59 -41v-301h-100v343l-10 89h99l4 -23c26 18.667 47 28 63 28h74c28 0 52.333 -7.33301 73 -22c20.667 -15.333 36.667 -31.333 48 -48
c12 -16 18 -36.333 18 -61v-306z" />
    <glyph glyph-name="Omacron" unicode="&#x14c;" horiz-adv-x="589" 
d="M499 142c0 -22 -5.33301 -40.998 -16 -56.998c-8 -10.667 -19.833 -24 -35.5 -40s-28.167 -26.667 -37.5 -32c-19.333 -12 -40 -18 -62 -18h-152c-22 0 -42.667 6 -62 18c-9.33301 5.33301 -22.166 16.166 -38.499 32.499s-27.833 29.5 -34.5 39.5
c-10.667 16 -16 35 -16 57v313c0 22 5.33301 41 16 57c6.66699 10 18.167 23.167 34.5 39.5s29.166 27.166 38.499 32.499c19.333 12 40 18 62 18h152c22 0 42.667 -6 62 -18c9.33301 -5.33301 21.833 -16 37.5 -32s27.5 -29.333 35.5 -40c10.667 -16 16 -35 16 -57v-313z
M150 452.002l0.000976562 -309.001c0 -2 0.333008 -3.33301 1 -4c13.333 -20 28 -34.333 44 -43c1.33301 -0.666992 3 -1 5 -1h144c2 0 3.66699 0.333008 5 1c16 8.66699 30.667 23 44 43l1 4v309c0 2.66699 -0.333008 4.33398 -1 5.00098
c-14 20.667 -28.667 35.334 -44 44.001c-1.33301 0.666992 -3 1 -5 1h-144c-2.66699 0 -4.33398 -0.333008 -5.00098 -1c-15.333 -8.66699 -30 -23.334 -44 -44.001zM389.001 664.001h-227v89h227v-89z" />
    <glyph glyph-name="omacron" unicode="&#x14d;" horiz-adv-x="484" 
d="M405 126c0 -25.333 -5.66699 -45.666 -17 -60.999c-12 -18 -28 -34.333 -48 -49c-20 -14 -44.333 -21 -73 -21h-94c-28 0 -52 7 -72 21c-7.33301 5.33301 -16.333 13.333 -27 24s-18 19 -22 25c-11.333 15.333 -17 35.666 -17 60.999v180
c0 25.333 5.66699 45.666 17 60.999c10.667 16 27 32 49 48c20.667 14.667 44.667 22 72 22h94c28 0 52.333 -7.33301 73 -22c20.667 -15.333 36.667 -31.333 48 -48c11.333 -15.333 17 -35.666 17 -60.999v-180zM135 303v-181.999c0 -7.33301 11 -17.333 33 -30
c1.33301 -0.666992 3.33301 -1 6 -1h92c1.33301 0 3.33301 0.666992 6 2c21.333 12 32.333 21.667 33 29v182c0 2 -0.333008 4 -1 6c-8 13.333 -19 24 -33 32c-1.33301 0.666992 -3 1 -5 1h-92c-2 0 -3.66699 -0.333008 -5 -1c-14.667 -8.66699 -25.667 -19.334 -33 -32.001
zM335 509.001h-227v89h227v-89z" />
    <glyph glyph-name="Obreve" unicode="&#x14e;" horiz-adv-x="589" 
d="M499 142c0 -22 -5.33301 -40.998 -16 -56.998c-8 -10.667 -19.833 -24 -35.5 -40s-28.167 -26.667 -37.5 -32c-19.333 -12 -40 -18 -62 -18h-152c-22 0 -42.667 6 -62 18c-9.33301 5.33301 -22.166 16.166 -38.499 32.499s-27.833 29.5 -34.5 39.5
c-10.667 16 -16 35 -16 57v313c0 22 5.33301 41 16 57c6.66699 10 18.167 23.167 34.5 39.5s29.166 27.166 38.499 32.499c19.333 12 40 18 62 18h152c22 0 42.667 -6 62 -18c9.33301 -5.33301 21.833 -16 37.5 -32s27.5 -29.333 35.5 -40c10.667 -16 16 -35 16 -57v-313z
M150 452.002l0.000976562 -309.001c0 -2 0.333008 -3.33301 1 -4c13.333 -20 28 -34.333 44 -43c1.33301 -0.666992 3 -1 5 -1h144c2 0 3.66699 0.333008 5 1c16 8.66699 30.667 23 44 43l1 4v309c0 2.66699 -0.333008 4.33398 -1 5.00098
c-14 20.667 -28.667 35.334 -44 44.001c-1.33301 0.666992 -3 1 -5 1h-144c-2.66699 0 -4.33398 -0.333008 -5.00098 -1c-15.333 -8.66699 -30 -23.334 -44 -44.001zM322.001 753.001h57.999c0 -28.667 -10.167 -53.167 -30.5 -73.5s-44.5 -30.5 -72.5 -30.5
s-52.5 10.167 -73.5 30.5s-31.5 44.833 -31.5 73.5h58c0 -13.333 4.66699 -24.666 14 -33.999s20.333 -14 33 -14s23.334 4.66699 32.001 14s13 20.666 13 33.999z" />
    <glyph glyph-name="obreve" unicode="&#x14f;" horiz-adv-x="484" 
d="M405 126c0 -25.333 -5.66699 -45.666 -17 -60.999c-12 -18 -28 -34.333 -48 -49c-20 -14 -44.333 -21 -73 -21h-94c-28 0 -52 7 -72 21c-7.33301 5.33301 -16.333 13.333 -27 24s-18 19 -22 25c-11.333 15.333 -17 35.666 -17 60.999v180
c0 25.333 5.66699 45.666 17 60.999c10.667 16 27 32 49 48c20.667 14.667 44.667 22 72 22h94c28 0 52.333 -7.33301 73 -22c20.667 -15.333 36.667 -31.333 48 -48c11.333 -15.333 17 -35.666 17 -60.999v-180zM135 303v-181.999c0 -7.33301 11 -17.333 33 -30
c1.33301 -0.666992 3.33301 -1 6 -1h92c1.33301 0 3.33301 0.666992 6 2c21.333 12 32.333 21.667 33 29v182c0 2 -0.333008 4 -1 6c-8 13.333 -19 24 -33 32c-1.33301 0.666992 -3 1 -5 1h-92c-2 0 -3.66699 -0.333008 -5 -1c-14.667 -8.66699 -25.667 -19.334 -33 -32.001
zM266 596.001h57.999c0 -28.667 -10.167 -53.167 -30.5 -73.5s-44.5 -30.5 -72.5 -30.5s-52.5 10.167 -73.5 30.5s-31.5 44.833 -31.5 73.5h58c0 -13.333 4.66699 -24.666 14 -33.999s20.333 -14 33 -14s23.334 4.66699 32.001 14s13 20.666 13 33.999z" />
    <glyph glyph-name="Ohungarumlaut" unicode="&#x150;" horiz-adv-x="589" 
d="M499 142c0 -22 -5.33301 -40.998 -16 -56.998c-8 -10.667 -19.833 -24 -35.5 -40s-28.167 -26.667 -37.5 -32c-19.333 -12 -40 -18 -62 -18h-152c-22 0 -42.667 6 -62 18c-9.33301 5.33301 -22.166 16.166 -38.499 32.499s-27.833 29.5 -34.5 39.5
c-10.667 16 -16 35 -16 57v313c0 22 5.33301 41 16 57c6.66699 10 18.167 23.167 34.5 39.5s29.166 27.166 38.499 32.499c19.333 12 40 18 62 18h152c22 0 42.667 -6 62 -18c9.33301 -5.33301 21.833 -16 37.5 -32s27.5 -29.333 35.5 -40c10.667 -16 16 -35 16 -57v-313z
M150 452.002l0.000976562 -309.001c0 -2 0.333008 -3.33301 1 -4c13.333 -20 28 -34.333 44 -43c1.33301 -0.666992 3 -1 5 -1h144c2 0 3.66699 0.333008 5 1c16 8.66699 30.667 23 44 43l1 4v309c0 2.66699 -0.333008 4.33398 -1 5.00098
c-14 20.667 -28.667 35.334 -44 44.001c-1.33301 0.666992 -3 1 -5 1h-144c-2.66699 0 -4.33398 -0.333008 -5.00098 -1c-15.333 -8.66699 -30 -23.334 -44 -44.001zM330.001 627.001l-69 22l92 119h94zM193.001 627.001l-69 22l92 119h94z" />
    <glyph glyph-name="ohungarumlaut" unicode="&#x151;" horiz-adv-x="484" 
d="M405 126c0 -25.333 -5.66699 -45.666 -17 -60.999c-12 -18 -28 -34.333 -48 -49c-20 -14 -44.333 -21 -73 -21h-94c-28 0 -52 7 -72 21c-7.33301 5.33301 -16.333 13.333 -27 24s-18 19 -22 25c-11.333 15.333 -17 35.666 -17 60.999v180
c0 25.333 5.66699 45.666 17 60.999c10.667 16 27 32 49 48c20.667 14.667 44.667 22 72 22h94c28 0 52.333 -7.33301 73 -22c20.667 -15.333 36.667 -31.333 48 -48c11.333 -15.333 17 -35.666 17 -60.999v-180zM135 303v-181.999c0 -7.33301 11 -17.333 33 -30
c1.33301 -0.666992 3.33301 -1 6 -1h92c1.33301 0 3.33301 0.666992 6 2c21.333 12 32.333 21.667 33 29v182c0 2 -0.333008 4 -1 6c-8 13.333 -19 24 -33 32c-1.33301 0.666992 -3 1 -5 1h-92c-2 0 -3.66699 -0.333008 -5 -1c-14.667 -8.66699 -25.667 -19.334 -33 -32.001
zM289 483.001l-69 22l92 119h94zM152 483.001l-69 22l92 119h94z" />
    <glyph glyph-name="OE" unicode="&#x152;" horiz-adv-x="847" 
d="M751 0l-366 0.00195312v5c-16.667 -6.66699 -32.334 -10 -47.001 -10h-142c-22 0 -42.667 6 -62 18c-9.33301 5.33301 -22.166 16.166 -38.499 32.499s-27.833 29.5 -34.5 39.5c-10.667 16 -16 35 -16 57v313c0 22 5.33301 41 16 57c6.66699 10 18.167 23.167 34.5 39.5
s29.166 27.166 38.499 32.499c19.333 12 40 18 62 18h142c14.667 0 30.334 -3.33301 47.001 -10v6h366v-100h-261v-151h242v-100h-242v-147h261v-100zM150 452.002l0.000976562 -309.001c0 -2 0.333008 -3.33301 1 -4c13.333 -20 28 -34.333 44 -43
c1.33301 -0.666992 3 -1 5 -1h134c2 0 3.66699 0.333008 5 1c16 8.66699 30.667 23 44 43l1 4v309c0 2.66699 -0.333008 4.33398 -1 5.00098c-14 20.667 -28.667 35.334 -44 44.001c-1.33301 0.666992 -3 1 -5 1h-134c-2.66699 0 -4.33398 -0.333008 -5.00098 -1
c-15.333 -8.66699 -30 -23.334 -44 -44.001z" />
    <glyph glyph-name="oe" unicode="&#x153;" horiz-adv-x="782" 
d="M405 126l0.998047 -3.99707c4.66699 -8 11.167 -15.667 19.5 -23s14.833 -11 19.5 -11h97c8.66699 0 21 9.33301 37 28c2 2 3 3.33301 3 4l93 -28c-4.66699 -11.333 -14.167 -24.833 -28.5 -40.5s-26.166 -26.834 -35.499 -33.501c-22.667 -15.333 -46.667 -23 -72 -23
h-94c-28.667 0 -53 7 -73 21c-5.33301 3.33301 -10.666 7.66602 -15.999 12.999c-8 -6.66699 -13.333 -11 -16 -13c-20 -14 -44.333 -21 -73 -21h-94c-28 0 -52 7 -72 21c-7.33301 5.33301 -16.333 13.333 -27 24s-18 19 -22 25c-11.333 15.333 -17 35.666 -17 60.999v180
c0 25.333 5.66699 45.666 17 60.999c10.667 16 27 32 49 48c20.667 14.667 44.667 22 72 22h94c28 0 52.333 -7.33301 73 -22c1.33301 -1.33301 3.83301 -3.5 7.5 -6.5s6.5 -5.5 8.5 -7.5c2 2.66699 7.33301 7.33398 16 14.001c20.667 14.667 45 22 73 22h92
c28 0 52.333 -7.33301 73 -22c20.667 -15.333 36.667 -31.333 48 -48c12 -16 18 -36.333 18 -61v-141h-271v-39zM133.998 303.003l-0.000976562 -182.001c0 -7.33301 11.333 -17.666 34 -30.999c1.33301 -0.666992 3.33301 -1 6 -1h92c1.33301 0 3.33301 0.666992 6 2
c20 11.333 31 21 33 29v6v179l-1 1v3c-8 13.333 -19 24 -33 32c-1.33301 0.666992 -3 1 -5 1h-92c-2 0 -3.66699 -0.333008 -5 -1c-15.333 -9.33301 -26.666 -20 -33.999 -32zM575.997 259.002v45c0 3.33301 -0.333008 5.33301 -1 6c-7.33301 12 -18.333 22.333 -33 31
c-1.33301 0.666992 -3.33301 1 -6 1h-91c-4.66699 0 -11.167 -3.5 -19.5 -10.5s-14.833 -14.167 -19.5 -21.5c-0.666992 -0.666992 -1 -1.66699 -1 -3v-1v-47h171zM580.997 120.002c0.666992 0.666992 1 0.666992 1 0h-1z" />
    <glyph glyph-name="Racute" unicode="&#x154;" horiz-adv-x="579" 
d="M468 372c0 -22.667 -6 -42.9961 -18 -60.9961c-4.66699 -6.66699 -13 -15.834 -25 -27.501s-21.667 -20.167 -29 -25.5c-8.66699 -6.66699 -17.334 -11.334 -26.001 -14.001l119 -244h-114l-111 236h-115v-236h-105v598h281c26.667 0 50.334 -7.33301 71.001 -22
c6.66699 -4.66699 16.167 -13.334 28.5 -26.001s20.833 -22.334 25.5 -29.001c12 -18 18 -38.333 18 -61v-88zM363 373.004v86.0029c0 3.33301 -0.333008 5.66602 -1 6.99902c-11.333 20 -22 30.667 -32 32h-181v-162h176c4.66699 0 11 3.66699 19 11s14 14.666 18 21.999
c0.666992 1.33301 1 2.66602 1 3.99902zM252 632.007l-92 27l92 119h118z" />
    <glyph glyph-name="racute" unicode="&#x155;" horiz-adv-x="416" 
d="M394 340l-93.002 -28.001c-15.333 20 -30.333 30 -45 30h-54c-18 0 -38.333 -14.333 -61 -43v-299h-100v343l-8 89h97l5 -24c26.667 19.333 48 29 64 29h60c25.333 0 50 -8.33301 74 -25c10.667 -8 22.334 -19.167 35.001 -33.5s21.334 -27.166 26.001 -38.499z
M221.998 487.999l-92 27l92 119h118z" />
    <glyph glyph-name="Rcommaaccent" unicode="&#x156;" horiz-adv-x="579" 
d="M326 -73l-80 -125h-113l96 154zM468 372c0 -22.667 -6 -42.9961 -18 -60.9961c-4.66699 -6.66699 -13 -15.834 -25 -27.501s-21.667 -20.167 -29 -25.5c-8.66699 -6.66699 -17.334 -11.334 -26.001 -14.001l119 -244h-114l-111 236h-115v-236h-105v598h281
c26.667 0 50.334 -7.33301 71.001 -22c6.66699 -4.66699 16.167 -13.334 28.5 -26.001s20.833 -22.334 25.5 -29.001c12 -18 18 -38.333 18 -61v-88zM363 373.004v86.0029c0 3.33301 -0.333008 5.66602 -1 6.99902c-11.333 20 -22 30.667 -32 32h-181v-162h176
c4.66699 0 11 3.66699 19 11s14 14.666 18 21.999c0.666992 1.33301 1 2.66602 1 3.99902z" />
    <glyph glyph-name="rcommaaccent" unicode="&#x157;" horiz-adv-x="416" 
d="M281 -73l-80 -125h-113l96 154zM394 340l-93.002 -28.001c-15.333 20 -30.333 30 -45 30h-54c-18 0 -38.333 -14.333 -61 -43v-299h-100v343l-8 89h97l5 -24c26.667 19.333 48 29 64 29h60c25.333 0 50 -8.33301 74 -25c10.667 -8 22.334 -19.167 35.001 -33.5
s21.334 -27.166 26.001 -38.499z" />
    <glyph glyph-name="Rcaron" unicode="&#x158;" horiz-adv-x="579" 
d="M468 372c0 -22.667 -6 -42.9961 -18 -60.9961c-4.66699 -6.66699 -13 -15.834 -25 -27.501s-21.667 -20.167 -29 -25.5c-8.66699 -6.66699 -17.334 -11.334 -26.001 -14.001l119 -244h-114l-111 236h-115v-236h-105v598h281c26.667 0 50.334 -7.33301 71.001 -22
c6.66699 -4.66699 16.167 -13.334 28.5 -26.001s20.833 -22.334 25.5 -29.001c12 -18 18 -38.333 18 -61v-88zM363 373.004v86.0029c0 3.33301 -0.333008 5.66602 -1 6.99902c-11.333 20 -22 30.667 -32 32h-181v-162h176c4.66699 0 11 3.66699 19 11s14 14.666 18 21.999
c0.666992 1.33301 1 2.66602 1 3.99902zM278 768.007h107l-98 -131h-94l-98 131h107l38 -57z" />
    <glyph glyph-name="rcaron" unicode="&#x159;" horiz-adv-x="416" 
d="M394 340l-93.002 -28.001c-15.333 20 -30.333 30 -45 30h-54c-18 0 -38.333 -14.333 -61 -43v-299h-100v343l-8 89h97l5 -24c26.667 19.333 48 29 64 29h60c25.333 0 50 -8.33301 74 -25c10.667 -8 22.334 -19.167 35.001 -33.5s21.334 -27.166 26.001 -38.499z
M245.998 623.999h107l-98 -131h-94l-98 131h107l38 -57z" />
    <glyph glyph-name="Sacute" unicode="&#x15a;" horiz-adv-x="571" 
d="M486 142c0 -23.333 -5.33203 -42.334 -15.999 -57.001c-6.66699 -10 -18 -23.167 -34 -39.5s-29 -27.166 -39 -32.499c-21.333 -12 -42 -18 -62 -18h-174c-43.333 0 -85.666 27.667 -126.999 83c-4 5.33301 -10 15.666 -18 30.999l99 33c13.333 -18.667 28 -34 44 -46
c1.33301 -0.666992 3.66602 -1 6.99902 -1h164l6 1c7.33301 4 16.666 11.667 27.999 23s17 19 17 23v59c0 10 -4 15.667 -12 17l-260 74c-24.667 6.66699 -43.834 20.334 -57.501 41.001s-20.5 43.334 -20.5 68.001v54c0 23.333 5 42.333 15 57
c6.66699 9.33301 18.167 22.166 34.5 38.499s29.5 27.5 39.5 33.5c21.333 12 42 18 62 18h148c42.667 0 85 -27.667 127 -83c6.66699 -9.33301 13.334 -21 20.001 -35l-101 -29c-15.333 22 -30 37.333 -44 46c-0.666992 0.666992 -2.66699 1 -6 1h-141l-6 -1
c-8 -4 -17.167 -11.333 -27.5 -22s-15.5 -18 -15.5 -22v-50c0 -10 3.66699 -15.667 11 -17l261 -76c24 -6.66699 43 -20.5 57 -41.5s21 -43.5 21 -67.5v-63zM264.001 631.999l-92 27l92 119h118z" />
    <glyph glyph-name="sacute" unicode="&#x15b;" horiz-adv-x="469" 
d="M110 117c14.667 -16.667 27.0029 -25.6699 37.0029 -27.0029h116c6 0 13.5 4.33301 22.5 13s13.5 16.334 13.5 23.001v24c0 8.66699 -4.33301 13.334 -13 14.001l-72.5 5.5c-39.667 3 -70.167 5.5 -91.5 7.5c-28 2 -50.667 11.833 -68 29.5s-26 41.834 -26 72.501v30
c0 24 6 44.333 18 61c31.333 44.667 70 67 116 67h96c25.333 0 49.333 -7.66699 72 -23c11.333 -8 23.666 -19.167 36.999 -33.5s22.666 -27.833 27.999 -40.5l-94 -28c-0.666992 1.33301 -1.66699 2.66602 -3 3.99902c-14.667 17.333 -27 26 -37 26h-96
c-6 0 -10.333 -0.666992 -13 -2c-9.33301 -4.66699 -17 -12.334 -23 -23.001c-0.666992 -1.33301 -1 -4.66602 -1 -9.99902v-24c0 -2 1.33301 -4.5 4 -7.5s6.33398 -4.83301 11.001 -5.5l69 -6.5l88 -8.5c29.333 -3.33301 53.166 -13.5 71.499 -30.5
s27.5 -41.167 27.5 -72.5v-28c0 -23.333 -6.33301 -43.666 -19 -60.999c-12.667 -18.667 -27.667 -34 -45 -46c-20.667 -14.667 -44.334 -22 -71.001 -22h-114c-24.667 0 -48.667 8 -72 24c-11.333 8 -23.5 19.167 -36.5 33.5s-22.167 27.833 -27.5 40.5l93 28z
M225.003 487.997l-92 27l92 119h118z" />
    <glyph glyph-name="Scircumflex" unicode="&#x15c;" horiz-adv-x="571" 
d="M486 142c0 -23.333 -5.33203 -42.334 -15.999 -57.001c-6.66699 -10 -18 -23.167 -34 -39.5s-29 -27.166 -39 -32.499c-21.333 -12 -42 -18 -62 -18h-174c-43.333 0 -85.666 27.667 -126.999 83c-4 5.33301 -10 15.666 -18 30.999l99 33c13.333 -18.667 28 -34 44 -46
c1.33301 -0.666992 3.66602 -1 6.99902 -1h164l6 1c7.33301 4 16.666 11.667 27.999 23s17 19 17 23v59c0 10 -4 15.667 -12 17l-260 74c-24.667 6.66699 -43.834 20.334 -57.501 41.001s-20.5 43.334 -20.5 68.001v54c0 23.333 5 42.333 15 57
c6.66699 9.33301 18.167 22.166 34.5 38.499s29.5 27.5 39.5 33.5c21.333 12 42 18 62 18h148c42.667 0 85 -27.667 127 -83c6.66699 -9.33301 13.334 -21 20.001 -35l-101 -29c-15.333 22 -30 37.333 -44 46c-0.666992 0.666992 -2.66699 1 -6 1h-141l-6 -1
c-8 -4 -17.167 -11.333 -27.5 -22s-15.5 -18 -15.5 -22v-50c0 -10 3.66699 -15.667 11 -17l261 -76c24 -6.66699 43 -20.5 57 -41.5s21 -43.5 21 -67.5v-63zM227.001 636.999h-107l98 131h94l98 -131h-107l-38 52z" />
    <glyph glyph-name="scircumflex" unicode="&#x15d;" horiz-adv-x="469" 
d="M178 493h-107l98 131h94l98 -131h-107l-38 52zM110 117c14.667 -16.667 27.0029 -25.6699 37.0029 -27.0029h116c6 0 13.5 4.33301 22.5 13s13.5 16.334 13.5 23.001v24c0 8.66699 -4.33301 13.334 -13 14.001l-72.5 5.5c-39.667 3 -70.167 5.5 -91.5 7.5
c-28 2 -50.667 11.833 -68 29.5s-26 41.834 -26 72.501v30c0 24 6 44.333 18 61c31.333 44.667 70 67 116 67h96c25.333 0 49.333 -7.66699 72 -23c11.333 -8 23.666 -19.167 36.999 -33.5s22.666 -27.833 27.999 -40.5l-94 -28
c-0.666992 1.33301 -1.66699 2.66602 -3 3.99902c-14.667 17.333 -27 26 -37 26h-96c-6 0 -10.333 -0.666992 -13 -2c-9.33301 -4.66699 -17 -12.334 -23 -23.001c-0.666992 -1.33301 -1 -4.66602 -1 -9.99902v-24c0 -2 1.33301 -4.5 4 -7.5s6.33398 -4.83301 11.001 -5.5
l69 -6.5l88 -8.5c29.333 -3.33301 53.166 -13.5 71.499 -30.5s27.5 -41.167 27.5 -72.5v-28c0 -23.333 -6.33301 -43.666 -19 -60.999c-12.667 -18.667 -27.667 -34 -45 -46c-20.667 -14.667 -44.334 -22 -71.001 -22h-114c-24.667 0 -48.667 8 -72 24
c-11.333 8 -23.5 19.167 -36.5 33.5s-22.167 27.833 -27.5 40.5l93 28z" />
    <glyph glyph-name="Scedilla" unicode="&#x15e;" horiz-adv-x="571" 
d="M336 -73l-80 -125h-113l96 154zM486 142c0 -23.333 -5.33203 -42.334 -15.999 -57.001c-6.66699 -10 -18 -23.167 -34 -39.5s-29 -27.166 -39 -32.499c-21.333 -12 -42 -18 -62 -18h-174c-43.333 0 -85.666 27.667 -126.999 83c-4 5.33301 -10 15.666 -18 30.999l99 33
c13.333 -18.667 28 -34 44 -46c1.33301 -0.666992 3.66602 -1 6.99902 -1h164l6 1c7.33301 4 16.666 11.667 27.999 23s17 19 17 23v59c0 10 -4 15.667 -12 17l-260 74c-24.667 6.66699 -43.834 20.334 -57.501 41.001s-20.5 43.334 -20.5 68.001v54
c0 23.333 5 42.333 15 57c6.66699 9.33301 18.167 22.166 34.5 38.499s29.5 27.5 39.5 33.5c21.333 12 42 18 62 18h148c42.667 0 85 -27.667 127 -83c6.66699 -9.33301 13.334 -21 20.001 -35l-101 -29c-15.333 22 -30 37.333 -44 46c-0.666992 0.666992 -2.66699 1 -6 1
h-141l-6 -1c-8 -4 -17.167 -11.333 -27.5 -22s-15.5 -18 -15.5 -22v-50c0 -10 3.66699 -15.667 11 -17l261 -76c24 -6.66699 43 -20.5 57 -41.5s21 -43.5 21 -67.5v-63z" />
    <glyph glyph-name="scedilla" unicode="&#x15f;" horiz-adv-x="469" 
d="M296 -73l-80 -125h-113l96 154zM110 117c14.667 -16.667 27.0029 -25.6699 37.0029 -27.0029h116c6 0 13.5 4.33301 22.5 13s13.5 16.334 13.5 23.001v24c0 8.66699 -4.33301 13.334 -13 14.001l-72.5 5.5c-39.667 3 -70.167 5.5 -91.5 7.5
c-28 2 -50.667 11.833 -68 29.5s-26 41.834 -26 72.501v30c0 24 6 44.333 18 61c31.333 44.667 70 67 116 67h96c25.333 0 49.333 -7.66699 72 -23c11.333 -8 23.666 -19.167 36.999 -33.5s22.666 -27.833 27.999 -40.5l-94 -28
c-0.666992 1.33301 -1.66699 2.66602 -3 3.99902c-14.667 17.333 -27 26 -37 26h-96c-6 0 -10.333 -0.666992 -13 -2c-9.33301 -4.66699 -17 -12.334 -23 -23.001c-0.666992 -1.33301 -1 -4.66602 -1 -9.99902v-24c0 -2 1.33301 -4.5 4 -7.5s6.33398 -4.83301 11.001 -5.5
l69 -6.5l88 -8.5c29.333 -3.33301 53.166 -13.5 71.499 -30.5s27.5 -41.167 27.5 -72.5v-28c0 -23.333 -6.33301 -43.666 -19 -60.999c-12.667 -18.667 -27.667 -34 -45 -46c-20.667 -14.667 -44.334 -22 -71.001 -22h-114c-24.667 0 -48.667 8 -72 24
c-11.333 8 -23.5 19.167 -36.5 33.5s-22.167 27.833 -27.5 40.5l93 28z" />
    <glyph glyph-name="Scaron" unicode="&#x160;" horiz-adv-x="571" 
d="M486 142c0 -23.333 -5.33203 -42.334 -15.999 -57.001c-6.66699 -10 -18 -23.167 -34 -39.5s-29 -27.166 -39 -32.499c-21.333 -12 -42 -18 -62 -18h-174c-43.333 0 -85.666 27.667 -126.999 83c-4 5.33301 -10 15.666 -18 30.999l99 33c13.333 -18.667 28 -34 44 -46
c1.33301 -0.666992 3.66602 -1 6.99902 -1h164l6 1c7.33301 4 16.666 11.667 27.999 23s17 19 17 23v59c0 10 -4 15.667 -12 17l-260 74c-24.667 6.66699 -43.834 20.334 -57.501 41.001s-20.5 43.334 -20.5 68.001v54c0 23.333 5 42.333 15 57
c6.66699 9.33301 18.167 22.166 34.5 38.499s29.5 27.5 39.5 33.5c21.333 12 42 18 62 18h148c42.667 0 85 -27.667 127 -83c6.66699 -9.33301 13.334 -21 20.001 -35l-101 -29c-15.333 22 -30 37.333 -44 46c-0.666992 0.666992 -2.66699 1 -6 1h-141l-6 -1
c-8 -4 -17.167 -11.333 -27.5 -22s-15.5 -18 -15.5 -22v-50c0 -10 3.66699 -15.667 11 -17l261 -76c24 -6.66699 43 -20.5 57 -41.5s21 -43.5 21 -67.5v-63zM291.001 767.999h107l-98 -131h-94l-98 131h107l38 -57z" />
    <glyph glyph-name="scaron" unicode="&#x161;" horiz-adv-x="469" 
d="M252 624h107l-98 -131h-94l-98 131h107l38 -57zM110 117c14.667 -16.667 27.0029 -25.6699 37.0029 -27.0029h116c6 0 13.5 4.33301 22.5 13s13.5 16.334 13.5 23.001v24c0 8.66699 -4.33301 13.334 -13 14.001l-72.5 5.5c-39.667 3 -70.167 5.5 -91.5 7.5
c-28 2 -50.667 11.833 -68 29.5s-26 41.834 -26 72.501v30c0 24 6 44.333 18 61c31.333 44.667 70 67 116 67h96c25.333 0 49.333 -7.66699 72 -23c11.333 -8 23.666 -19.167 36.999 -33.5s22.666 -27.833 27.999 -40.5l-94 -28
c-0.666992 1.33301 -1.66699 2.66602 -3 3.99902c-14.667 17.333 -27 26 -37 26h-96c-6 0 -10.333 -0.666992 -13 -2c-9.33301 -4.66699 -17 -12.334 -23 -23.001c-0.666992 -1.33301 -1 -4.66602 -1 -9.99902v-24c0 -2 1.33301 -4.5 4 -7.5s6.33398 -4.83301 11.001 -5.5
l69 -6.5l88 -8.5c29.333 -3.33301 53.166 -13.5 71.499 -30.5s27.5 -41.167 27.5 -72.5v-28c0 -23.333 -6.33301 -43.666 -19 -60.999c-12.667 -18.667 -27.667 -34 -45 -46c-20.667 -14.667 -44.334 -22 -71.001 -22h-114c-24.667 0 -48.667 8 -72 24
c-11.333 8 -23.5 19.167 -36.5 33.5s-22.167 27.833 -27.5 40.5l93 28z" />
    <glyph glyph-name="Tcommaaccent" unicode="&#x162;" horiz-adv-x="509" 
d="M315 -73l-80 -125h-113l96 154zM441 498h-162v-498h-105v498h-162v100h429v-100z" />
    <glyph glyph-name="tcommaaccent" unicode="&#x163;" horiz-adv-x="356" 
d="M278 -73l-80 -125h-113l96 154zM167 337v-202.998c0 -2.66699 0.333008 -4.66699 1 -6c4 -6.66699 10 -13.834 18 -21.501s15 -11.5 21 -11.5h83v-95h-84c-28 0 -52 7 -72 21c-16.667 11.333 -32.667 27.666 -48 48.999c-12.667 18.667 -19 39.667 -19 63v204h-67v95h67
v166h100v-166h124v-95h-124z" />
    <glyph glyph-name="Tcaron" unicode="&#x164;" horiz-adv-x="509" 
d="M446 498h-162v-498h-105v498h-162v100h429v-100zM265 768h107l-98 -131h-94l-98 131h107l38 -57z" />
    <glyph glyph-name="tcaron" unicode="&#x165;" horiz-adv-x="496" 
d="M478 500l-8 -68h-99l9 81v127h98v-140zM167 337v-202.998c0 -2.66699 0.333008 -4.66699 1 -6c4 -6.66699 10 -13.834 18 -21.501s15 -11.5 21 -11.5h73v-95h-74c-28 0 -52 7 -72 21c-16.667 11.333 -32.667 27.666 -48 48.999c-12.667 18.667 -19 39.667 -19 63v204h-67
v95h67v166h100v-166h124v-95h-124z" />
    <glyph glyph-name="Tbar" unicode="&#x166;" horiz-adv-x="509" 
d="M373 248h-89v-248h-105v248h-97v95h97v156h-162v99h429v-99h-162v-156h89v-95z" />
    <glyph glyph-name="tbar" unicode="&#x167;" horiz-adv-x="356" 
d="M290 197l-123 0.00195312v-63c0 -2.66699 0.333008 -4.66699 1 -6c4 -6.66699 10 -13.834 18 -21.501s15 -11.5 21 -11.5h83v-95h-84c-28 0 -52 7 -72 21c-16.667 11.333 -32.667 27.666 -48 48.999c-12.667 18.667 -19 39.667 -19 63v64h-68v95h68v45h-67v95h67v166h100
v-166h124v-95h-124v-45h123v-95z" />
    <glyph glyph-name="Utilde" unicode="&#x168;" 
d="M358 598l0.000976562 -455.001c0 -1.33301 -0.333008 -2.66602 -1 -3.99902c-13.333 -20.667 -27.666 -35 -42.999 -43c-1.33301 -0.666992 -3 -1 -5 -1h-119c-2 0 -3.66699 0.333008 -5 1c-15.333 8 -30 22.333 -44 43l-1 5v454h-105v-456c0 -22 5.33301 -41 16 -57
c6.66699 -10 18.167 -23.167 34.5 -39.5s29.166 -27.166 38.499 -32.499c19.333 -12 40 -18 62 -18h127c21.333 0 41.666 6 60.999 18c10 5.33301 22.833 16.166 38.5 32.499s27.167 29.5 34.5 39.5c10.667 16 16 35 16 57v456h-105zM410.001 663.999l-80 -23
c-4 10 -10.5 17.667 -19.5 23s-16.167 7 -21.5 5l-65 -21c-26 -8.66699 -52.5 -5.66699 -79.5 9s-47.167 38.667 -60.5 72l85 21c4 -10 9.5 -17 16.5 -21s13.167 -5.33301 18.5 -4l68 21c26.667 8.66699 53 5.66699 79 -9s45.667 -39 59 -73z" />
    <glyph glyph-name="utilde" unicode="&#x169;" horiz-adv-x="488" 
d="M410 0l-98 -0.000976562l-4 25c-26.667 -19.333 -47.667 -29 -63 -29h-75c-28.667 0 -53 7 -73 21c-20 14.667 -36 31 -48 49c-12 16 -18 36.333 -18 61v305h100v-303c0 -3.33301 0.333008 -5.66602 1 -6.99902c5.33301 -9.33301 16.333 -19.333 33 -30
c1.33301 -0.666992 3.33301 -1 6 -1h71c4.66699 0 14 4.83301 28 14.5s24.333 18.167 31 25.5v301h100v-343zM375 519.999l-80 -23c-4 10 -10.5 17.667 -19.5 23s-16.167 7 -21.5 5l-65 -21c-26 -8.66699 -52.5 -5.66699 -79.5 9s-47.167 38.667 -60.5 72l85 21
c4 -10 9.5 -17 16.5 -21s13.167 -5.33301 18.5 -4l68 21c26.667 8.66699 53 5.66699 79 -9s45.667 -39 59 -73z" />
    <glyph glyph-name="Umacron" unicode="&#x16a;" 
d="M358 598l0.000976562 -455.001c0 -1.33301 -0.333008 -2.66602 -1 -3.99902c-13.333 -20.667 -27.666 -35 -42.999 -43c-1.33301 -0.666992 -3 -1 -5 -1h-119c-2 0 -3.66699 0.333008 -5 1c-15.333 8 -30 22.333 -44 43l-1 5v454h-105v-456c0 -22 5.33301 -41 16 -57
c6.66699 -10 18.167 -23.167 34.5 -39.5s29.166 -27.166 38.499 -32.499c19.333 -12 40 -18 62 -18h127c21.333 0 41.666 6 60.999 18c10 5.33301 22.833 16.166 38.5 32.499s27.167 29.5 34.5 39.5c10.667 16 16 35 16 57v456h-105zM360.001 653.999h-227v99h227v-99z" />
    <glyph glyph-name="umacron" unicode="&#x16b;" horiz-adv-x="488" 
d="M410 0l-98 -0.000976562l-4 25c-26.667 -19.333 -47.667 -29 -63 -29h-75c-28.667 0 -53 7 -73 21c-20 14.667 -36 31 -48 49c-12 16 -18 36.333 -18 61v305h100v-303c0 -3.33301 0.333008 -5.66602 1 -6.99902c5.33301 -9.33301 16.333 -19.333 33 -30
c1.33301 -0.666992 3.33301 -1 6 -1h71c4.66699 0 14 4.83301 28 14.5s24.333 18.167 31 25.5v301h100v-343zM332 498.999h-227v99h227v-99z" />
    <glyph glyph-name="Ubreve" unicode="&#x16c;" 
d="M358 143l-0.000976562 455.001h105v-456c0 -22 -5.33301 -41 -16 -57c-7.33301 -10 -18.833 -23.167 -34.5 -39.5s-28.5 -27.166 -38.5 -32.499c-19.333 -12 -39.666 -18 -60.999 -18h-127c-22 0 -42.667 6 -62 18c-9.33301 5.33301 -22.166 16.166 -38.499 32.499
s-27.833 29.5 -34.5 39.5c-10.667 16 -16 35 -16 57v456h105v-454c0 -2.66699 0.333008 -4.33398 1 -5.00098c14 -20.667 28.667 -35 44 -43l5 -1h119c2 0 3.66699 0.333008 5 1c15.333 8 29.666 22.333 42.999 43zM295.999 751.001h57.999
c0 -28.667 -10.167 -53.167 -30.5 -73.5s-44.5 -30.5 -72.5 -30.5s-52.5 10.167 -73.5 30.5s-31.5 44.833 -31.5 73.5h58c0 -13.333 4.66699 -24.666 14 -33.999s20.333 -14 33 -14s23.334 4.66699 32.001 14s13 20.666 13 33.999z" />
    <glyph glyph-name="ubreve" unicode="&#x16d;" horiz-adv-x="488" 
d="M410 0l-98 -0.000976562l-4 25c-26.667 -19.333 -47.667 -29 -63 -29h-75c-28.667 0 -53 7 -73 21c-20 14.667 -36 31 -48 49c-12 16 -18 36.333 -18 61v305h100v-303c0 -3.33301 0.333008 -5.66602 1 -6.99902c5.33301 -9.33301 16.333 -19.333 33 -30
c1.33301 -0.666992 3.33301 -1 6 -1h71c4.66699 0 14 4.83301 28 14.5s24.333 18.167 31 25.5v301h100v-343zM263 595.999h57.999c0 -28.667 -10.167 -53.167 -30.5 -73.5s-44.5 -30.5 -72.5 -30.5s-52.5 10.167 -73.5 30.5s-31.5 44.833 -31.5 73.5h58
c0 -13.333 4.66699 -24.666 14 -33.999s20.333 -14 33 -14s23.334 4.66699 32.001 14s13 20.666 13 33.999z" />
    <glyph glyph-name="Uring" unicode="&#x16e;" 
d="M358 598l0.000976562 -455.001c0 -1.33301 -0.333008 -2.66602 -1 -3.99902c-13.333 -20.667 -27.666 -35 -42.999 -43c-1.33301 -0.666992 -3 -1 -5 -1h-119c-2 0 -3.66699 0.333008 -5 1c-15.333 8 -30 22.333 -44 43l-1 5v454h-105v-456c0 -22 5.33301 -41 16 -57
c6.66699 -10 18.167 -23.167 34.5 -39.5s29.166 -27.166 38.499 -32.499c19.333 -12 40 -18 62 -18h127c21.333 0 41.666 6 60.999 18c10 5.33301 22.833 16.166 38.5 32.499s27.167 29.5 34.5 39.5c10.667 16 16 35 16 57v456h-105zM352.001 739.999
c0 -28.667 -10.167 -53.167 -30.5 -73.5s-44.5 -30.5 -72.5 -30.5s-52.5 10.167 -73.5 30.5s-31.5 44.833 -31.5 73.5c0 27.333 10.5 51.166 31.5 71.499s45.5 30.5 73.5 30.5s52.167 -10.167 72.5 -30.5s30.5 -44.166 30.5 -71.499zM294.001 739.999
c0 12 -4.33301 22.5 -13 31.5s-19.334 13.5 -32.001 13.5s-23.667 -4.5 -33 -13.5s-14 -19.5 -14 -31.5c0 -13.333 4.66699 -24.666 14 -33.999s20.333 -14 33 -14s23.334 4.66699 32.001 14s13 20.666 13 33.999z" />
    <glyph glyph-name="uring" unicode="&#x16f;" horiz-adv-x="488" 
d="M410 0l-98 -0.000976562l-4 25c-26.667 -19.333 -47.667 -29 -63 -29h-75c-28.667 0 -53 7 -73 21c-20 14.667 -36 31 -48 49c-12 16 -18 36.333 -18 61v305h100v-303c0 -3.33301 0.333008 -5.66602 1 -6.99902c5.33301 -9.33301 16.333 -19.333 33 -30
c1.33301 -0.666992 3.33301 -1 6 -1h71c4.66699 0 14 4.83301 28 14.5s24.333 18.167 31 25.5v301h100v-343zM319 595.999c0 -28.667 -10.167 -53.167 -30.5 -73.5s-44.5 -30.5 -72.5 -30.5s-52.5 10.167 -73.5 30.5s-31.5 44.833 -31.5 73.5
c0 27.333 10.5 51.166 31.5 71.499s45.5 30.5 73.5 30.5s52.167 -10.167 72.5 -30.5s30.5 -44.166 30.5 -71.499zM261 595.999c0 12 -4.33301 22.5 -13 31.5s-19.334 13.5 -32.001 13.5s-23.667 -4.5 -33 -13.5s-14 -19.5 -14 -31.5c0 -13.333 4.66699 -24.666 14 -33.999
s20.333 -14 33 -14s23.334 4.66699 32.001 14s13 20.666 13 33.999z" />
    <glyph glyph-name="Uhungarumlaut" unicode="&#x170;" 
d="M358 598l0.000976562 -455.001c0 -1.33301 -0.333008 -2.66602 -1 -3.99902c-13.333 -20.667 -27.666 -35 -42.999 -43c-1.33301 -0.666992 -3 -1 -5 -1h-119c-2 0 -3.66699 0.333008 -5 1c-15.333 8 -30 22.333 -44 43l-1 5v454h-105v-456c0 -22 5.33301 -41 16 -57
c6.66699 -10 18.167 -23.167 34.5 -39.5s29.166 -27.166 38.499 -32.499c19.333 -12 40 -18 62 -18h127c21.333 0 41.666 6 60.999 18c10 5.33301 22.833 16.166 38.5 32.499s27.167 29.5 34.5 39.5c10.667 16 16 35 16 57v456h-105zM279.001 626.999l-69 22l92 119h94z
M142.001 626.999l-69 22l92 119h94z" />
    <glyph glyph-name="uhungarumlaut" unicode="&#x171;" horiz-adv-x="488" 
d="M410 0l-98 -0.000976562l-4 25c-26.667 -19.333 -47.667 -29 -63 -29h-75c-28.667 0 -53 7 -73 21c-20 14.667 -36 31 -48 49c-12 16 -18 36.333 -18 61v305h100v-303c0 -3.33301 0.333008 -5.66602 1 -6.99902c5.33301 -9.33301 16.333 -19.333 33 -30
c1.33301 -0.666992 3.33301 -1 6 -1h71c4.66699 0 14 4.83301 28 14.5s24.333 18.167 31 25.5v301h100v-343zM277 482.999l-69 22l92 119h94zM140 482.999l-69 22l92 119h94z" />
    <glyph glyph-name="Uogonek" unicode="&#x172;" 
d="M237 -198l-80 125l97 29l96 -154h-113zM358 143l-0.000976562 455.001h105v-456c0 -22 -5.33301 -41 -16 -57c-7.33301 -10 -18.833 -23.167 -34.5 -39.5s-28.5 -27.166 -38.5 -32.499c-19.333 -12 -39.666 -18 -60.999 -18h-127c-22 0 -42.667 6 -62 18
c-9.33301 5.33301 -22.166 16.166 -38.499 32.499s-27.833 29.5 -34.5 39.5c-10.667 16 -16 35 -16 57v456h105v-454c0 -2.66699 0.333008 -4.33398 1 -5.00098c14 -20.667 28.667 -35 44 -43l5 -1h119c2 0 3.66699 0.333008 5 1c15.333 8 29.666 22.333 42.999 43z" />
    <glyph glyph-name="uogonek" unicode="&#x173;" horiz-adv-x="488" 
d="M203 -198l-80 125l97 29l96 -154h-113zM410 0l-98 -0.000976562l-4 25c-26.667 -19.333 -47.667 -29 -63 -29h-75c-28.667 0 -53 7 -73 21c-20 14.667 -36 31 -48 49c-12 16 -18 36.333 -18 61v305h100v-303c0 -3.33301 0.333008 -5.66602 1 -6.99902
c5.33301 -9.33301 16.333 -19.333 33 -30c1.33301 -0.666992 3.33301 -1 6 -1h71c4.66699 0 14 4.83301 28 14.5s24.333 18.167 31 25.5v301h100v-343z" />
    <glyph glyph-name="Wcircumflex" unicode="&#x174;" horiz-adv-x="738" 
d="M702 598l-139 -598h-119l-96 401l-97 -401h-120l-137 598h108l90 -420l99 420h112l99 -420l89 420h111zM312 637h-107l98 131h94l98 -131h-107l-38 52z" />
    <glyph glyph-name="wcircumflex" unicode="&#x175;" horiz-adv-x="670" 
d="M626 432l-134 -432h-102l-81 271l-83 -271h-102l-132 432h106l80 -279l79 279h105l77 -279l82 279h105zM277 493h-107l98 131h94l98 -131h-107l-38 52z" />
    <glyph glyph-name="Ycircumflex" unicode="&#x176;" horiz-adv-x="520" 
d="M482 598l-198 -337v-261h-105v261l-196 337h116l133 -227l133 227h117zM194 637h-107l98 131h94l98 -131h-107l-38 52z" />
    <glyph glyph-name="ycircumflex" unicode="&#x177;" horiz-adv-x="430" 
d="M425 432l-212 -594h-101l60 162h-9l-159 432h112l101 -293l102 293h106zM178 493h-107l98 131h94l98 -131h-107l-38 52z" />
    <glyph glyph-name="Ydieresis" unicode="&#x178;" horiz-adv-x="520" 
d="M482 598l-198 -337v-261h-105v261l-196 337h116l133 -227l133 227h117zM361 652h-97v103h97v-103zM200 652h-97v103h97v-103z" />
    <glyph glyph-name="Zacute" unicode="&#x179;" horiz-adv-x="491" 
d="M423 0h-394v85l263 413h-263v100h394v-87l-259 -411h259v-100zM243 632l-92 27l92 119h118z" />
    <glyph glyph-name="zacute" unicode="&#x17a;" horiz-adv-x="444" 
d="M379 0h-344v81l199 256h-207v95h342v-82l-200 -255h210v-95zM225 488l-92 27l92 119h118z" />
    <glyph glyph-name="Zdotaccent" unicode="&#x17b;" horiz-adv-x="491" 
d="M423 0h-394v85l263 413h-263v100h394v-87l-259 -411h259v-100zM280 638h-107v107h107v-107z" />
    <glyph glyph-name="zdotaccent" unicode="&#x17c;" horiz-adv-x="444" 
d="M379 0h-344v81l199 256h-207v95h342v-82l-200 -255h210v-95zM266 494h-107v107h107v-107z" />
    <glyph glyph-name="Zcaron" unicode="&#x17d;" horiz-adv-x="491" 
d="M423 0h-394v85l263 413h-263v100h394v-87l-259 -411h259v-100zM260 768h107l-98 -131h-94l-98 131h107l38 -57z" />
    <glyph glyph-name="zcaron" unicode="&#x17e;" horiz-adv-x="444" 
d="M379 0h-344v81l199 256h-207v95h342v-82l-200 -255h210v-95zM239 624h107l-98 -131h-94l-98 131h107l38 -57z" />
    <glyph glyph-name="longs" unicode="&#x17f;" horiz-adv-x="340" 
d="M184 476v-476.001h-100v337h-67v95h67v38c0 25.333 6 46 18 62c14.667 20 30.667 36 48 48c20.667 14.667 45 22 73 22h84v-95h-83c-5.33301 0 -8.33301 -0.333008 -9 -1c-6 -3.33301 -12.5 -8.16602 -19.5 -14.499s-10.833 -11.5 -11.5 -15.5z" />
    <glyph glyph-name="florin" unicode="&#x192;" horiz-adv-x="335" 
d="M-38 -70l83.001 -0.00195312c2.66699 0 4.66699 0.333008 6 1c14 8.66699 24.333 20 31 34c0.666992 0.666992 1 2.33398 1 5.00098v367h-66v95h66v34c1.33301 26 7.66602 46.667 18.999 62c14.667 20 30.667 36 48 48c20.667 14.667 45 22 73 22h84v-95h-83
c-5.33301 0 -8.33301 -0.333008 -9 -1c-6 -3.33301 -12.667 -8.16602 -20 -14.499s-11.333 -11.5 -12 -15.5v-8v-32h70v-95h-70v-369c0 -25.333 -5.66699 -46.333 -17 -63c-14.667 -20.667 -31 -37 -49 -49c-20 -14 -43.667 -21 -71 -21h-84v95z" />
    <glyph glyph-name="Scommaaccent" unicode="&#x218;" horiz-adv-x="571" 
d="M354 -90l-80 -125h-113l96 154zM486 142c0 -23.333 -5.33203 -42.334 -15.999 -57.001c-6.66699 -10 -18 -23.167 -34 -39.5s-29 -27.166 -39 -32.499c-21.333 -12 -42 -18 -62 -18h-174c-43.333 0 -85.666 27.667 -126.999 83c-4 5.33301 -10 15.666 -18 30.999l99 33
c13.333 -18.667 28 -34 44 -46c1.33301 -0.666992 3.66602 -1 6.99902 -1h164l6 1c7.33301 4 16.666 11.667 27.999 23s17 19 17 23v59c0 10 -4 15.667 -12 17l-260 74c-24.667 6.66699 -43.834 20.334 -57.501 41.001s-20.5 43.334 -20.5 68.001v54
c0 23.333 5 42.333 15 57c6.66699 9.33301 18.167 22.166 34.5 38.499s29.5 27.5 39.5 33.5c21.333 12 42 18 62 18h148c42.667 0 85 -27.667 127 -83c6.66699 -9.33301 13.334 -21 20.001 -35l-101 -29c-15.333 22 -30 37.333 -44 46c-0.666992 0.666992 -2.66699 1 -6 1
h-141l-6 -1c-8 -4 -17.167 -11.333 -27.5 -22s-15.5 -18 -15.5 -22v-50c0 -10 3.66699 -15.667 11 -17l261 -76c24 -6.66699 43 -20.5 57 -41.5s21 -43.5 21 -67.5v-63z" />
    <glyph glyph-name="scommaaccent" unicode="&#x219;" horiz-adv-x="469" 
d="M296 -73l-80 -125h-113l96 154zM110 117c14.667 -16.667 27.0029 -25.6699 37.0029 -27.0029h116c6 0 13.5 4.33301 22.5 13s13.5 16.334 13.5 23.001v24c0 8.66699 -4.33301 13.334 -13 14.001l-72.5 5.5c-39.667 3 -70.167 5.5 -91.5 7.5
c-28 2 -50.667 11.833 -68 29.5s-26 41.834 -26 72.501v30c0 24 6 44.333 18 61c31.333 44.667 70 67 116 67h96c25.333 0 49.333 -7.66699 72 -23c11.333 -8 23.666 -19.167 36.999 -33.5s22.666 -27.833 27.999 -40.5l-94 -28
c-0.666992 1.33301 -1.66699 2.66602 -3 3.99902c-14.667 17.333 -27 26 -37 26h-96c-6 0 -10.333 -0.666992 -13 -2c-9.33301 -4.66699 -17 -12.334 -23 -23.001c-0.666992 -1.33301 -1 -4.66602 -1 -9.99902v-24c0 -2 1.33301 -4.5 4 -7.5s6.33398 -4.83301 11.001 -5.5
l69 -6.5l88 -8.5c29.333 -3.33301 53.166 -13.5 71.499 -30.5s27.5 -41.167 27.5 -72.5v-28c0 -23.333 -6.33301 -43.666 -19 -60.999c-12.667 -18.667 -27.667 -34 -45 -46c-20.667 -14.667 -44.334 -22 -71.001 -22h-114c-24.667 0 -48.667 8 -72 24
c-11.333 8 -23.5 19.167 -36.5 33.5s-22.167 27.833 -27.5 40.5l93 28z" />
    <glyph glyph-name="circumflex" unicode="&#x2c6;" horiz-adv-x="424" 
d="M173 493h-107l98 131h94l98 -131h-107l-38 52z" />
    <glyph glyph-name="caron" unicode="&#x2c7;" horiz-adv-x="424" 
d="M239 624h107l-98 -131h-94l-98 131h107l38 -57z" />
    <glyph glyph-name="breve" unicode="&#x2d8;" horiz-adv-x="356" 
d="M211 596h57.999c0 -28.667 -10.167 -53.167 -30.5 -73.5s-44.5 -30.5 -72.5 -30.5s-52.5 10.167 -73.5 30.5s-31.5 44.833 -31.5 73.5h58c0 -13.333 4.66699 -24.666 14 -33.999s20.333 -14 33 -14s23.334 4.66699 32.001 14s13 20.666 13 33.999z" />
    <glyph glyph-name="dotaccent" unicode="&#x2d9;" horiz-adv-x="216" 
d="M148 494h-107v107h107v-107z" />
    <glyph glyph-name="ring" unicode="&#x2da;" horiz-adv-x="492" 
d="M269 596c0 -28.667 -10.167 -53.167 -30.5 -73.5s-44.5 -30.5 -72.5 -30.5s-52.5 10.167 -73.5 30.5s-31.5 44.833 -31.5 73.5c0 27.333 10.5 51.166 31.5 71.499s45.5 30.5 73.5 30.5s52.167 -10.167 72.5 -30.5s30.5 -44.166 30.5 -71.499zM211 596
c0 12 -4.33301 22.5 -13 31.5s-19.334 13.5 -32.001 13.5s-23.667 -4.5 -33 -13.5s-14 -19.5 -14 -31.5c0 -13.333 4.66699 -24.666 14 -33.999s20.333 -14 33 -14s23.334 4.66699 32.001 14s13 20.666 13 33.999z" />
    <glyph glyph-name="ogonek" unicode="&#x2db;" horiz-adv-x="406" 
d="M193 -198l-80 125l97 29l96 -154h-113z" />
    <glyph glyph-name="tilde" unicode="&#x2dc;" horiz-adv-x="462" 
d="M375 520l-80 -23c-4 10 -10.5 17.667 -19.5 23s-16.167 7 -21.5 5l-65 -21c-26 -8.66699 -52.5 -5.66699 -79.5 9s-47.167 38.667 -60.5 72l85 21c4 -10 9.5 -17 16.5 -21s13.167 -5.33301 18.5 -4l68 21c26.667 8.66699 53 5.66699 79 -9s45.667 -39 59 -73z" />
    <glyph glyph-name="hungarumlaut" unicode="&#x2dd;" horiz-adv-x="371" 
d="M355 483l-69 22l92 119h94zM218 483l-69 22l92 119h94z" />
    <glyph glyph-name="pi" unicode="&#x3c0;" horiz-adv-x="636" 
d="M106 337h-77v95h526v-95h-79v-252l11 -85h-101l-10 74v263h-170v-337h-100v337z" />
    <glyph glyph-name="afii10023" unicode="&#x401;" horiz-adv-x="516" 
d="M420 0h-376v598h376v-100h-271v-151h255v-100h-255v-147h271v-100zM367 653h-97v103h97v-103zM206 653h-97v103h97v-103z" />
    <glyph glyph-name="afii10051" unicode="&#x402;" horiz-adv-x="607" 
d="M302 90l83 -0.000976562l6 1c14.667 9.33301 25.334 20.666 32.001 33.999c0.666992 2 1 3.66699 1 5v173l-1 5c-8 13.333 -18.667 24.333 -32 33c-0.666992 0.666992 -2.66699 1 -6 1h-69c-6 0 -15.833 -5.16699 -29.5 -15.5s-23.834 -19.833 -30.501 -28.5v-298h-105
v498h-134v100h373v-100h-134v-84c24 15.333 43.333 23 58 23h72c28 0 52 -7.33301 72 -22c16.667 -11.333 32.667 -27.666 48 -48.999c12 -17.333 18 -37.666 18 -60.999v-177c0 -24.667 -6 -45.667 -18 -63c-14.667 -20.667 -31 -37 -49 -49c-20 -14 -43.667 -21 -71 -21
h-84v95z" />
    <glyph glyph-name="afii10052" unicode="&#x403;" horiz-adv-x="480" 
d="M44 598h370v-100h-265v-498h-105v598zM273 654l-92 27l92 119h118z" />
    <glyph glyph-name="afii10053" unicode="&#x404;" 
d="M149 253l0.000976562 -119.006l1 -5c4.66699 -8 11 -15.667 19 -23s14 -11 18 -11h127c2 0 3.66699 0.333008 5 1c6 2.66699 13.833 9.16699 23.5 19.5s18.167 20.833 25.5 31.5l102 -27c-4 -11.333 -12.333 -25.666 -25 -42.999c-42 -54.667 -84.667 -82 -128 -82h-131
c-26 0 -49.333 7.33301 -70 22c-6.66699 4.66699 -16.167 13.334 -28.5 26.001s-20.833 22.334 -25.5 29.001c-12 18 -18 38.333 -18 61v330c0 22.667 6 43 18 61c4.66699 6.66699 13.167 16.334 25.5 29.001s21.833 21.334 28.5 26.001c20.667 14.667 44 22 70 22h131
c42 0 84.667 -27.333 128 -82c7.33301 -10.667 15.333 -25 24 -43l-102 -28c-3.33301 10.667 -10.166 20.834 -20.499 30.501s-19.833 16.5 -28.5 20.5l-4 1h-127c-4.66699 0 -10.834 -3.5 -18.501 -10.5s-13.834 -14.5 -18.501 -22.5c-0.666992 -1.33301 -1 -3 -1 -5v-110
h178v-99h-178z" />
    <glyph glyph-name="afii10054" unicode="&#x405;" horiz-adv-x="571" 
d="M486 142c0 -23.333 -5.33203 -42.334 -15.999 -57.001c-6.66699 -10 -18 -23.167 -34 -39.5s-29 -27.166 -39 -32.499c-21.333 -12 -42 -18 -62 -18h-174c-43.333 0 -85.666 27.667 -126.999 83c-4 5.33301 -10 15.666 -18 30.999l99 33c13.333 -18.667 28 -34 44 -46
c1.33301 -0.666992 3.66602 -1 6.99902 -1h164l6 1c7.33301 4 16.666 11.667 27.999 23s17 19 17 23v59c0 10 -4 15.667 -12 17l-260 74c-24.667 6.66699 -43.834 20.334 -57.501 41.001s-20.5 43.334 -20.5 68.001v54c0 23.333 5 42.333 15 57
c6.66699 9.33301 18.167 22.166 34.5 38.499s29.5 27.5 39.5 33.5c21.333 12 42 18 62 18h148c42.667 0 85 -27.667 127 -83c6.66699 -9.33301 13.334 -21 20.001 -35l-101 -29c-15.333 22 -30 37.333 -44 46c-0.666992 0.666992 -2.66699 1 -6 1h-141l-6 -1
c-8 -4 -17.167 -11.333 -27.5 -22s-15.5 -18 -15.5 -22v-50c0 -10 3.66699 -15.667 11 -17l261 -76c24 -6.66699 43 -20.5 57 -41.5s21 -43.5 21 -67.5v-63z" />
    <glyph glyph-name="afii10055" unicode="&#x406;" horiz-adv-x="249" 
d="M149 0h-105v598h105v-598z" />
    <glyph glyph-name="afii10056" unicode="&#x407;" horiz-adv-x="249" 
d="M223 653h-97v103h97v-103zM62 653h-97v103h97v-103zM149 0h-105v598h105v-598z" />
    <glyph glyph-name="afii10057" unicode="&#x408;" horiz-adv-x="472" 
d="M369 141c0 -20.667 -5.66895 -39.665 -17.002 -56.998c-7.33301 -10 -18.666 -23 -33.999 -39s-27.666 -26.667 -36.999 -32c-20.667 -12 -41.334 -18 -62.001 -18h-74c-44 0 -86.667 27.667 -128 83c-4 6 -10.667 18.667 -20 38l101 27c10.667 -23.333 24 -39 40 -47
c0.666992 -0.666992 3.33398 -1 8.00098 -1h68c3.33301 -0.666992 12.5 6.16602 27.5 20.499s22.5 23.166 22.5 26.499v456h105v-457z" />
    <glyph glyph-name="afii10058" unicode="&#x409;" horiz-adv-x="903" 
d="M798 271c11.333 -16.667 16.999 -36.6641 16.999 -59.9971v-75c0 -23.333 -5.66699 -43.333 -17 -60c-4 -6 -12 -15.333 -24 -28s-21.667 -21.334 -29 -26.001c-20 -14.667 -43.333 -22 -70 -22h-283v497h-203v-356c0 -20.667 -5.66699 -39.667 -17 -57
c-7.33301 -10 -18.666 -23 -33.999 -39s-27.666 -26.667 -36.999 -32c-20.667 -12 -41.334 -18 -62.001 -18h-73v100h68c3.33301 -0.666992 12.5 6.16602 27.5 20.499s22.5 23.166 22.5 26.499v456h413v-251h178c24.667 0 48 -7.33301 70 -22
c8 -5.33301 18.167 -14.333 30.5 -27s19.833 -21.667 22.5 -27zM708.999 132.003c0.666992 2 0.999023 4.33398 0.999023 7.00098v72l-1 5c-4.66699 8 -10.667 15.667 -18 23s-13.333 11 -18 11h-176v-151h177c4.66699 0 10.834 3.66699 18.501 11
s13.167 14.666 16.5 21.999z" />
    <glyph glyph-name="afii10059" unicode="&#x40a;" horiz-adv-x="878" 
d="M773 271c11.333 -16.667 17 -36.666 17 -59.999v-75c0 -23.333 -5.66699 -43.333 -17 -60c-4 -6 -12 -15.333 -24 -28s-21.667 -21.334 -29 -26.001c-20 -14.667 -43.333 -22 -70 -22h-283v247h-218v-247h-105v598h105v-251h218v251h105v-251h178
c24.667 0 48 -7.33301 70 -22c8 -5.33301 18.167 -14.333 30.5 -27s19.833 -21.667 22.5 -27zM684 131.001c0.666992 2 0.999023 4.33398 0.999023 7.00098v72l-1 5c-4.66699 8 -10.667 15.667 -18 23s-13.333 11 -18 11h-176v-151h177c4.66699 0 10.834 3.66699 18.501 11
s13.167 14.666 16.5 21.999z" />
    <glyph glyph-name="afii10060" unicode="&#x40b;" horiz-adv-x="607" 
d="M424 0l0.000976562 302.998l-1 5c-8 13.333 -18.667 24.333 -32 33c-0.666992 0.666992 -2.66699 1 -6 1h-69c-6 0 -15.833 -5.16699 -29.5 -15.5s-23.834 -19.833 -30.501 -28.5v-298h-105v498h-134v100h373v-100h-134v-84c24 15.333 43.333 23 58 23h72
c28 0 52 -7.33301 72 -22c16.667 -11.333 32.667 -27.666 48 -48.999c12 -17.333 18 -37.666 18 -60.999v-305h-100z" />
    <glyph glyph-name="afii10061" unicode="&#x40c;" horiz-adv-x="522" 
d="M496 0h-129.001l-194 250h-24v-250h-105v598h105v-249h23c23.333 27.333 55.833 69 97.5 125s73.834 97.333 96.501 124h129l-232 -298c24.667 -29.333 63.5 -79.333 116.5 -150s91.833 -120.667 116.5 -150zM293.999 654l-92 27l92 119h118z" />
    <glyph glyph-name="afii10062" unicode="&#x40e;" horiz-adv-x="520" 
d="M277 762h57.999c0 -28.667 -10.167 -53.167 -30.5 -73.5s-44.5 -30.5 -72.5 -30.5s-52.5 10.167 -73.5 30.5s-31.5 44.833 -31.5 73.5h58c0 -13.333 4.66699 -24.666 14 -33.999s20.333 -14 33 -14s23.334 4.66699 32.001 14s13 20.666 13 33.999zM473.999 598l-247 -598
h-102l63 159h-21l-177 439h112l129 -329l135 329h108z" />
    <glyph glyph-name="afii10145" unicode="&#x40f;" horiz-adv-x="559" 
d="M299 -94h-98v94h-157v598h105v-498h205v498h105v-598h-160v-94z" />
    <glyph glyph-name="afii10017" unicode="&#x410;" horiz-adv-x="549" 
d="M515 0h-112l-44 127h-227l-44 -127h-112l209 598h122zM326 227l-80 236l-81 -236h161z" />
    <glyph glyph-name="afii10018" unicode="&#x411;" 
d="M450 271c11.333 -16.667 17 -36.666 17 -59.999v-75c0 -23.333 -5.66699 -43.333 -17 -60c-4 -6 -12 -15.333 -24 -28s-21.667 -21.334 -29 -26.001c-20 -14.667 -43.333 -22 -70 -22h-283v598h367v-100h-262v-151h178c24.667 0 48 -7.33301 70 -22
c8 -5.33301 18.167 -14.333 30.5 -27s19.833 -21.667 22.5 -27zM361 133.001c0.666992 2 0.999023 4.33398 0.999023 7.00098v71l-1 5c-4.66699 8 -10.667 15.667 -18 23s-13.333 11 -18 11h-176v-150h177c4.66699 0 10.834 3.66699 18.501 11s13.167 14.666 16.5 21.999z
" />
    <glyph glyph-name="afii10019" unicode="&#x412;" 
d="M467 136c0 -23.333 -5.66699 -43.332 -17 -59.999c-4.66699 -6.66699 -13 -16.167 -25 -28.5s-21.333 -20.833 -28 -25.5c-20.667 -14.667 -44.667 -22 -72 -22h-281v598h281c26 0 50 -7.66699 72 -23c6.66699 -4.66699 16 -13.167 28 -25.5s20.333 -21.833 25 -28.5
c11.333 -16.667 17 -37.334 17 -62.001v-74c0 -32 -13 -61 -39 -87c26 -26 39 -54.667 39 -86v-76zM361 380.001c0.666992 1.33301 1.00195 3.66797 1.00195 7.00098v72l-1 5c-4.66699 8 -10.834 15.833 -18.501 23.5s-13.834 11.5 -18.501 11.5h-175v-152h176
c4.66699 0 11 3.66699 19 11s13.667 14.666 17 21.999zM361.002 133.003c0.666992 2 1.00195 4.33398 1.00195 7.00098v71l-1 5c-4.66699 8 -10.834 15.667 -18.501 23s-13.834 11 -18.501 11h-175v-150h176c4.66699 0 11 3.66699 19 11s13.667 14.666 17 21.999z" />
    <glyph glyph-name="afii10020" unicode="&#x413;" horiz-adv-x="480" 
d="M44 598h370v-100h-265v-498h-105v598z" />
    <glyph glyph-name="afii10021" unicode="&#x414;" horiz-adv-x="592" 
d="M68 146l52 452.002h359v-499h48l-20 -180h-105l9 81h-323v-81h-103v180h33c3.33301 -0.666992 12.5 6.16602 27.5 20.499s22.5 23.166 22.5 26.499zM215 498.002l-43.001 -361c-1.33301 -11.333 -7.66602 -24 -18.999 -38h222v399h-160z" />
    <glyph glyph-name="afii10022" unicode="&#x415;" horiz-adv-x="516" 
d="M420 0h-376v598h376v-100h-271v-151h255v-100h-255v-147h271v-100z" />
    <glyph glyph-name="afii10024" unicode="&#x416;" horiz-adv-x="817" 
d="M781 0h-129.002l-194 250h-24v-250h-105v250h-24l-194 -250h-129c24.667 29.333 63.5 79.333 116.5 150s91.833 120.667 116.5 150l-232 298h129c22.667 -26.667 54.834 -68 96.501 -124s74.167 -97.667 97.5 -125h23v249h105v-249h23c23.333 27.333 55.833 69 97.5 125
s73.834 97.333 96.501 124h129l-232 -298c24.667 -29.333 63.5 -79.333 116.5 -150s91.833 -120.667 116.5 -150z" />
    <glyph glyph-name="afii10025" unicode="&#x417;" horiz-adv-x="526" 
d="M333 134v81.0059c0 2 -0.333008 3.66699 -1 5c-4 7.33301 -9.83301 14.666 -17.5 21.999s-13.834 11 -18.501 11h-1h-140v99h140h1c4.66699 0 10.834 3.66699 18.501 11s13.5 14.666 17.5 21.999l1 5v72l-1 5c-4.66699 8 -10.834 15.5 -18.501 22.5
s-13.834 10.5 -18.501 10.5h-127c-1.33301 0 -2.66602 -0.333008 -3.99902 -1c-8.66699 -4 -18.167 -10.833 -28.5 -20.5s-17.166 -19.834 -20.499 -30.501l-102 28c8.66699 18 16.667 32.333 24 43c43.333 54.667 86 82 128 82h131c26 0 49.333 -7.33301 70 -22
c20.667 -15.333 38.667 -33.666 54 -54.999c12 -18 18 -38.333 18 -61v-75c0 -30 -13.333 -58.333 -40 -85c26.667 -26.667 40 -55.334 40 -86.001v-84c0 -22.667 -6 -43 -18 -61c-4.66699 -6.66699 -13.167 -16.334 -25.5 -29.001s-21.833 -21.334 -28.5 -26.001
c-20.667 -14.667 -44 -22 -70 -22h-131c-43.333 0 -86 27.333 -128 82c-12.667 17.333 -21 31.666 -25 42.999l102 27c7.33301 -10.667 15.833 -21.167 25.5 -31.5s17.5 -16.833 23.5 -19.5c1.33301 -0.666992 3 -1 5 -1h127c4 0 10 3.66699 18 11s14.333 15 19 23
c0.666992 1.33301 1 3 1 5z" />
    <glyph glyph-name="afii10026" unicode="&#x418;" horiz-adv-x="567" 
d="M155 0h-111v598h105v-402l205 402h113v-598h-105v397z" />
    <glyph glyph-name="afii10027" unicode="&#x419;" horiz-adv-x="567" 
d="M155 0h-111v598h105v-402l205 402h113v-598h-105v397zM305 762h57.999c0 -28.667 -10.167 -53.167 -30.5 -73.5s-44.5 -30.5 -72.5 -30.5s-52.5 10.167 -73.5 30.5s-31.5 44.833 -31.5 73.5h58c0 -13.333 4.66699 -24.666 14 -33.999s20.333 -14 33 -14
s23.334 4.66699 32.001 14s13 20.666 13 33.999z" />
    <glyph glyph-name="afii10028" unicode="&#x41a;" horiz-adv-x="532" 
d="M496 0h-129.001l-194 250h-24v-250h-105v598h105v-249h23c23.333 27.333 55.833 69 97.5 125s73.834 97.333 96.501 124h129l-232 -298c24.667 -29.333 63.5 -79.333 116.5 -150s91.833 -120.667 116.5 -150z" />
    <glyph glyph-name="afii10029" unicode="&#x41b;" horiz-adv-x="607" 
d="M199 141c0 -20.667 -5.66797 -39.665 -17.001 -56.998c-7.33301 -10 -18.666 -23 -33.999 -39s-27.666 -26.667 -36.999 -32c-20.667 -12 -41.334 -18 -62.001 -18h-73v100h68c3.33301 -0.666992 12.5 6.16602 27.5 20.499s22.5 23.166 22.5 26.499v456h413v-598h-105
v497h-203v-356z" />
    <glyph glyph-name="afii10030" unicode="&#x41c;" horiz-adv-x="661" 
d="M561 0h-105v409l-119 -262h-69l-119 261v-408h-105v598h120l140 -295l138 295h119v-598z" />
    <glyph glyph-name="afii10031" unicode="&#x41d;" horiz-adv-x="572" 
d="M472 0h-105v247h-218v-247h-105v598h105v-251h218v251h105v-598z" />
    <glyph glyph-name="afii10032" unicode="&#x41e;" horiz-adv-x="589" 
d="M499 142c0 -22 -5.33301 -40.998 -16 -56.998c-8 -10.667 -19.833 -24 -35.5 -40s-28.167 -26.667 -37.5 -32c-19.333 -12 -40 -18 -62 -18h-152c-22 0 -42.667 6 -62 18c-9.33301 5.33301 -22.166 16.166 -38.499 32.499s-27.833 29.5 -34.5 39.5
c-10.667 16 -16 35 -16 57v313c0 22 5.33301 41 16 57c6.66699 10 18.167 23.167 34.5 39.5s29.166 27.166 38.499 32.499c19.333 12 40 18 62 18h152c22 0 42.667 -6 62 -18c9.33301 -5.33301 21.833 -16 37.5 -32s27.5 -29.333 35.5 -40c10.667 -16 16 -35 16 -57v-313z
M150 452.002l0.000976562 -309.001c0 -2 0.333008 -3.33301 1 -4c13.333 -20 28 -34.333 44 -43c1.33301 -0.666992 3 -1 5 -1h144c2 0 3.66699 0.333008 5 1c16 8.66699 30.667 23 44 43l1 4v309c0 2.66699 -0.333008 4.33398 -1 5.00098
c-14 20.667 -28.667 35.334 -44 44.001c-1.33301 0.666992 -3 1 -5 1h-144c-2.66699 0 -4.33398 -0.333008 -5.00098 -1c-15.333 -8.66699 -30 -23.334 -44 -44.001z" />
    <glyph glyph-name="afii10033" unicode="&#x41f;" horiz-adv-x="559" 
d="M459 0h-105v498h-205v-498h-105v598h415v-598z" />
    <glyph glyph-name="afii10034" unicode="&#x420;" horiz-adv-x="537" 
d="M468 372c0 -22.667 -6 -42.9971 -18 -60.9971c-4.66699 -6.66699 -13 -15.834 -25 -27.501s-21.667 -20.167 -29 -25.5c-20.667 -14.667 -44.334 -22 -71.001 -22h-176v-236h-105v598h281c26.667 0 50.334 -7.33301 71.001 -22
c6.66699 -4.66699 16.167 -13.334 28.5 -26.001s20.833 -22.334 25.5 -29.001c12 -18 18 -38.333 18 -61v-88zM363 373.003v86.0029c0 3.33301 -0.333008 5.66602 -1 6.99902c-11.333 20 -22 30.667 -32 32h-5h-176v-162h176c4.66699 0 11 3.66699 19 11
s14 14.666 18 21.999c0.666992 1.33301 1 2.66602 1 3.99902z" />
    <glyph glyph-name="afii10035" unicode="&#x421;" horiz-adv-x="553" 
d="M468 116c-6.66699 -15.333 -13.668 -28 -21.001 -38c-41.333 -55.333 -83.666 -83 -126.999 -83h-125c-22 0 -42.667 6 -62 18c-10 6 -23 17 -39 33s-27.333 28.667 -34 38c-10.667 16 -16 35 -16 57v315c0 21.333 5.33301 40 16 56c6.66699 10 18.167 23.167 34.5 39.5
s29.166 27.166 38.499 32.499c21.333 12 42 18 62 18h125c42.667 0 85 -27.667 127 -83c4 -5.33301 11 -17 21 -35l-102 -29c-20 24.667 -35 40 -45 46c-0.666992 0.666992 -2 1 -4 1h-118l-4 -1c-17.333 -9.33301 -32.333 -24 -45 -44c-0.666992 -1.33301 -1 -5 -1 -11
v-304c0 -5.33301 5.5 -13.166 16.5 -23.499s20.833 -17.833 29.5 -22.5c0.666992 -0.666992 3 -1 7 -1h114c2 0 3.66699 0.333008 5 1c6 2.66699 12.833 8 20.5 16s13.834 15.333 18.501 22l6 9z" />
    <glyph glyph-name="afii10036" unicode="&#x422;" horiz-adv-x="499" 
d="M436 498h-162v-498h-105v498h-162v100h429v-100z" />
    <glyph glyph-name="afii10037" unicode="&#x423;" horiz-adv-x="525" 
d="M474 598l-247 -598h-102l63 159h-21l-177 439h112l129 -329l135 329h108z" />
    <glyph glyph-name="afii10038" unicode="&#x424;" horiz-adv-x="619" 
d="M315 -83l-58 0.00195312v78h-61c-22 0 -42.667 6 -62 18c-9.33301 5.33301 -22.166 16.166 -38.499 32.499s-27.833 29.5 -34.5 39.5c-10.667 16 -16 35 -16 57v313c0 22 5.33301 41 16 57c6.66699 10 18.167 23.167 34.5 39.5s29.166 27.166 38.499 32.499
c19.333 12 40 18 62 18h61v69h58v-69h63c22 0 42.667 -6 62 -18c9.33301 -5.33301 21.833 -16 37.5 -32s27.5 -29.333 35.5 -40c10.667 -16 16 -35 16 -57v-313c0 -22 -5.33301 -41 -16 -57c-8 -10.667 -19.833 -24 -35.5 -40s-28.167 -26.667 -37.5 -32
c-19.333 -12 -40 -18 -62 -18h-63v-78zM374 502.002l-59 -0.00195312v-407h59c2 0 3.66699 0.333008 5 1c16 8.66699 30.667 23 44 43l1 4v309c0 2.66699 -0.333008 4.33398 -1 5.00098c-14 20.667 -28.667 35.334 -44 44.001c-1.33301 0.666992 -3 1 -5 1zM150 452
l0.000976562 -308.999c0 -2 0.333008 -3.33301 1 -4c13.333 -20 28 -34.333 44 -43c1.33301 -0.666992 3 -1 5 -1h57v407h-57c-2.66699 0 -4.33398 -0.333008 -5.00098 -1c-15.333 -8.66699 -30 -23.334 -44 -44.001z" />
    <glyph glyph-name="afii10039" unicode="&#x425;" horiz-adv-x="532" 
d="M479 598l-181 -292l191 -306h-117l-132 213l-131 -213h-117l190 306l-180 292h116l122 -199l123 199h116z" />
    <glyph glyph-name="afii10040" unicode="&#x426;" horiz-adv-x="572" 
d="M459 99h48l-21 -178h-105l10 79h-347v598h105v-499h205v499h105v-499z" />
    <glyph glyph-name="afii10041" unicode="&#x427;" horiz-adv-x="550" 
d="M450 0l-105.001 0.000976562v247h-172c-22 0 -42.667 6 -62 18c-9.33301 5.33301 -22.166 16.166 -38.499 32.499s-27.833 29.5 -34.5 39.5c-10.667 16 -16 35 -16 57v204h105v-203c0 -2 0.333008 -3.33301 1 -4c13.333 -20 28 -34.333 44 -43l2 -1h171v251h105v-598z
" />
    <glyph glyph-name="afii10042" unicode="&#x428;" horiz-adv-x="661" 
d="M44 598h105v-499h102v499h104v-499h101v499h105v-598h-517v598z" />
    <glyph glyph-name="afii10043" unicode="&#x429;" horiz-adv-x="674" 
d="M44 598h105v-499h102v499h104v-499h101v499h105v-499h48l-21 -178h-105l10 79h-449v598z" />
    <glyph glyph-name="afii10044" unicode="&#x42a;" horiz-adv-x="585" 
d="M179 598v-250.999h178c24.667 0 48 -7.33301 70 -22c8 -5.33301 18.167 -14.333 30.5 -27s19.833 -21.667 22.5 -27c11.333 -16.667 17 -36.667 17 -60v-75c0 -23.333 -5.66699 -43.333 -17 -60c-4 -6 -12 -15.333 -24 -28s-21.667 -21.334 -29 -26.001
c-20 -14.667 -43.333 -22 -70 -22h-283v498h-92v100h197zM391 133.001c0.666992 2 0.999023 4.33398 0.999023 7.00098v71l-1 5c-4.66699 8 -10.667 15.667 -18 23s-13.333 11 -18 11h-176v-150h177c4.66699 0 10.834 3.66699 18.501 11s13.167 14.666 16.5 21.999z" />
    <glyph glyph-name="afii10045" unicode="&#x42b;" horiz-adv-x="771" 
d="M450 271c11.333 -16.667 17 -36.666 17 -59.999v-75c0 -23.333 -5.66699 -43.333 -17 -60c-4 -6 -12 -15.333 -24 -28s-21.667 -21.334 -29 -26.001c-20 -14.667 -43.333 -22 -70 -22h-283v598h105v-251h178c24.667 0 48 -7.33301 70 -22
c8 -5.33301 18.167 -14.333 30.5 -27s19.833 -21.667 22.5 -27zM361 132.001c0.666992 2 0.999023 4.33398 0.999023 7.00098v72l-1 5c-4.66699 8 -10.667 15.667 -18 23s-13.333 11 -18 11h-176v-151h177c4.66699 0 10.834 3.66699 18.501 11s13.167 14.666 16.5 21.999z
M670.999 0.00195312h-105v598h105v-598z" />
    <glyph glyph-name="afii10046" unicode="&#x42c;" 
d="M450 271c11.333 -16.667 17 -36.666 17 -59.999v-75c0 -23.333 -5.66699 -43.333 -17 -60c-4 -6 -12 -15.333 -24 -28s-21.667 -21.334 -29 -26.001c-20 -14.667 -43.333 -22 -70 -22h-283v598h105v-251h178c24.667 0 48 -7.33301 70 -22
c8 -5.33301 18.167 -14.333 30.5 -27s19.833 -21.667 22.5 -27zM361 132.001c0.666992 2 0.999023 4.33398 0.999023 7.00098v72l-1 5c-4.66699 8 -10.667 15.667 -18 23s-13.333 11 -18 11h-176v-151h177c4.66699 0 10.834 3.66699 18.501 11s13.167 14.666 16.5 21.999z
" />
    <glyph glyph-name="afii10047" unicode="&#x42d;" horiz-adv-x="526" 
d="M333 134l0.000976562 119.003h-178v99h178v110l-1 5c-4.66699 8 -10.834 15.5 -18.501 22.5s-13.834 10.5 -18.501 10.5h-127l-4 -1c-8.66699 -4 -18.167 -10.833 -28.5 -20.5s-17.166 -19.834 -20.499 -30.501l-102 28c8.66699 18 16.667 32.333 24 43
c43.333 54.667 86 82 128 82h131c26 0 49.333 -7.33301 70 -22c20.667 -15.333 38.667 -33.666 54 -54.999c12 -18 18 -38.333 18 -61v-330c0 -22.667 -6 -43 -18 -61c-4.66699 -6.66699 -13.167 -16.334 -25.5 -29.001s-21.833 -21.334 -28.5 -26.001
c-20.667 -14.667 -44 -22 -70 -22h-131c-43.333 0 -86 27.333 -128 82c-12.667 17.333 -21 31.666 -25 42.999l102 27c7.33301 -10.667 15.833 -21.167 25.5 -31.5s17.5 -16.833 23.5 -19.5c1.33301 -0.666992 3 -1 5 -1h127c4 0 10 3.66699 18 11s14.333 15 19 23
c0.666992 1.33301 1 3 1 5z" />
    <glyph glyph-name="afii10048" unicode="&#x42e;" horiz-adv-x="785" 
d="M695 142c0 -22 -5.33301 -40.998 -16 -56.998c-8 -10.667 -19.833 -24 -35.5 -40s-28.167 -26.667 -37.5 -32c-19.333 -12 -40 -18 -62 -18h-152c-22 0 -42.667 6 -62 18c-9.33301 5.33301 -22.166 16.166 -38.499 32.499s-27.833 29.5 -34.5 39.5
c-10.667 16 -16 35 -16 57v105h-92v-247h-105v598h105v-251h92v108c0 22 5.33301 41 16 57c6.66699 10 18.167 23.167 34.5 39.5s29.166 27.166 38.499 32.499c19.333 12 40 18 62 18h152c22 0 42.667 -6 62 -18c9.33301 -5.33301 21.833 -16 37.5 -32
s27.5 -29.333 35.5 -40c10.667 -16 16 -35 16 -57v-313zM346 452.002l0.000976562 -309.001c0 -2 0.333008 -3.33301 1 -4c13.333 -20 28 -34.333 44 -43c1.33301 -0.666992 3 -1 5 -1h144c2 0 3.66699 0.333008 5 1c16 8.66699 30.667 23 44 43l1 4v309
c0 2.66699 -0.333008 4.33398 -1 5.00098c-14 20.667 -28.667 35.334 -44 44.001c-1.33301 0.666992 -3 1 -5 1h-144c-2.66699 0 -4.33398 -0.333008 -5.00098 -1c-15.333 -8.66699 -30 -23.334 -44 -44.001z" />
    <glyph glyph-name="afii10049" unicode="&#x42f;" horiz-adv-x="553" 
d="M29 372v87.9961c0 22.667 6 43 18 61c4.66699 6.66699 13.167 16.334 25.5 29.001s21.833 21.334 28.5 26.001c20.667 14.667 44.334 22 71.001 22h281v-598h-105v236h-114l-121 -236h-115l129 244c-8.66699 2.66699 -17.334 7.33398 -26.001 14.001
c-7.33301 5.33301 -17 13.833 -29 25.5s-20.333 20.834 -25 27.501c-12 18 -18 38.333 -18 61zM134 458.996v-86.001l1 -4c4 -7.33301 10 -14.666 18 -21.999s14.333 -11 19 -11h176v162h-181c-10 -1.33301 -20.667 -12 -32 -32z" />
    <glyph glyph-name="afii10065" unicode="&#x430;" horiz-adv-x="479" 
d="M292 271l-0.00195312 33.999c0 2.66699 -0.333008 4.33398 -1 5.00098c-6.66699 11.333 -17.334 21.333 -32.001 30c-2.66699 1.33301 -4.66699 2 -6 2h-88c-5.33301 0 -12.166 -3.66699 -20.499 -11s-14.833 -14 -19.5 -20l-94 28c4.66699 10.667 14.334 24 29.001 40
s26.667 27.333 36 34c23.333 16 47.333 24 72 24h86c28 0 52.333 -7.33301 73 -22c22 -16 38 -31.667 48 -47c11.333 -15.333 17 -36 17 -62v-218l10 -88h-99l-5 20c-23.333 -16.667 -44 -25 -62 -25h-82c-27.333 0 -51.333 7.33301 -72 22c-18 13.333 -33.667 29 -47 47
c-12 16.667 -18 37 -18 61v18c0 24 6 44.333 18 61c10.667 15.333 26.334 30.333 47.001 45s44.667 22 72 22h138zM291.998 129.999v52h-137c-2.66699 0 -5 -0.666992 -7 -2c-12 -7.33301 -22 -18 -30 -32c-0.666992 -1.33301 -1 -2.33301 -1 -3v-19l1 -3
c8.66699 -14.667 19 -25 31 -31c2.66699 -1.33301 4.66699 -2 6 -2h78c4.66699 0 14.5 5.33301 29.5 16s24.833 18.667 29.5 24z" />
    <glyph glyph-name="afii10066" unicode="&#x431;" horiz-adv-x="487" 
d="M193 437h76.999c28 0 52.333 -7.33301 73 -22c20.667 -15.333 36.667 -31.333 48 -48c11.333 -15.333 17 -35.666 17 -60.999v-180c0 -25.333 -5.66699 -45.666 -17 -60.999c-12 -18 -28 -34.333 -48 -49c-20 -14 -44.333 -21 -73 -21h-97c-28 0 -52 7 -72 21
c-7.33301 5.33301 -16.333 13.333 -27 24s-18 19 -22 25c-11.333 15.333 -17 35.666 -17 60.999v337c0 22.667 6 43 18 61c4.66699 6.66699 13.334 16.167 26.001 28.5s22.334 21.166 29.001 26.499c20 14.667 43 22 69 22h131l-7 -23l-14 -47.5
c-4.66699 -15.667 -6.66699 -23.5 -6 -23.5h-107c-2.66699 0 -7 -2.5 -13 -7.5s-11.333 -10.167 -16 -15.5l-7 -7c-2 -2 -3 -5.66699 -3 -11v-62c23.333 22 42.666 33 57.999 33zM134.999 296v-175.001c0 -7.33301 11 -17.333 33 -30c1.33301 -0.666992 3.33301 -1 6 -1h95
c1.33301 0 3.33301 0.666992 6 2c21.333 12 32.333 21.667 33 29v182c0 2 -0.333008 4 -1 6c-8 13.333 -19 24 -33 32c-1.33301 0.666992 -3 1 -5 1h-73c-8 0 -13.333 -1 -16 -3c-24 -17.333 -39 -31.666 -45 -42.999z" />
    <glyph glyph-name="afii10067" unicode="&#x432;" horiz-adv-x="473" 
d="M382 236c-2.66699 -4.66699 -7.66602 -11.001 -14.999 -19.001c5.33301 -5.33301 10.666 -12 15.999 -20c11.333 -18 17 -38 17 -60v-17c-1.33301 -22.667 -7.33301 -42 -18 -58c-12.667 -18.667 -26.667 -33.667 -42 -45c-18 -14 -41 -21 -69 -21h-228v439h228
c28.667 -1.33301 51.667 -9 69 -23c16.667 -12 31 -26.667 43 -44c11.333 -17.333 17 -37.666 17 -60.999v-14c-1.33301 -22.667 -7.33301 -41.667 -18 -57zM269.001 341.999h-128v-80h129h2h1c14 11.333 23.667 22 29 32v15c-8.66699 16 -18.334 26.667 -29.001 32
c-1.33301 0.666992 -2.66602 1 -3.99902 1zM302.001 119.999v18.999c-7.33301 14.667 -17 25 -29 31c-1.33301 0.666992 -3 1 -5 1h-127v-83h131c14.667 10.667 24.667 21.334 30 32.001z" />
    <glyph glyph-name="afii10068" unicode="&#x433;" horiz-adv-x="398" 
d="M43 432h300v-95h-199v-337h-101v432z" />
    <glyph glyph-name="afii10069" unicode="&#x434;" horiz-adv-x="526" 
d="M428 93l51.001 -0.000976562l-21 -170h-95l8 77h-271v-77h-96v170c24 0 38 1 42 3c9.33301 4.66699 18.666 15 27.999 31c1.33301 2.66699 2.33301 5.33398 3 8.00098l41 297h310v-339zM174.001 130.999c-1.33301 -8.66699 -7.66699 -21.333 -19 -38h175v246h-126z" />
    <glyph glyph-name="afii10070" unicode="&#x435;" horiz-adv-x="481" 
d="M404 168l-271.001 0.00195312v-41l1 -5c4.66699 -7.33301 11.167 -14.5 19.5 -21.5s14.833 -10.5 19.5 -10.5h97c10 0 22.333 8.66699 37 26l3 4l93 -28c-4.66699 -11.333 -14.167 -24.833 -28.5 -40.5s-26.166 -26.834 -35.499 -33.501
c-22.667 -15.333 -46.667 -23 -72 -23h-94c-28.667 0 -53 7 -73 21c-18.667 14 -34.667 30 -48 48c-12.667 17.333 -19 38 -19 62v180c0 23.333 6.33301 43.666 19 60.999c13.333 18 29.333 34 48 48c20.667 14.667 45 22 73 22h92c28 0 52.333 -7.33301 73 -22
c20.667 -15.333 36.667 -31.333 48 -48c12 -16 18 -36.333 18 -61v-138zM303.999 257.002v47c0 3.33301 -0.333008 5.33301 -1 6c-7.33301 12 -18.333 22.333 -33 31c-1.33301 0.666992 -3.33301 1 -6 1h-91c-4.66699 0 -11.167 -3.5 -19.5 -10.5
s-14.833 -14.167 -19.5 -21.5l-1 -6v-47h171z" />
    <glyph glyph-name="afii10072" unicode="&#x436;" horiz-adv-x="765" 
d="M738 0h-134l-159 177h-32v-177h-100v177h-32l-159 -177h-134l206 223l-192 209h131l147 -161h33v161h100v-161h33l147 161h131l-192 -209z" />
    <glyph glyph-name="afii10073" unicode="&#x437;" horiz-adv-x="460" 
d="M387 291c-0.666992 -20.667 -6.66602 -39.002 -17.999 -55.002c-2.66699 -4.66699 -8.66699 -11 -18 -19c9.33301 -9.33301 15.333 -16 18 -20c12 -18 18 -38 18 -60v-11c0 -24 -6.33301 -44.667 -19 -62c-13.333 -18 -29.333 -34 -48 -48c-20 -14 -44.333 -21 -73 -21
h-94c-25.333 0 -49.333 7.66699 -72 23c-9.33301 6.66699 -21.166 17.834 -35.499 33.501s-23.833 29.167 -28.5 40.5l93 28c1.33301 -2 2.33301 -3.33301 3 -4c14.667 -17.333 27 -26 37 -26h97c4.66699 0 11.167 3.5 19.5 10.5s14.833 14.167 19.5 21.5
c0.666992 1.33301 1 3 1 5v13c-7.33301 14 -16.333 24 -27 30c-0.666992 0.666992 -2.33398 1 -5.00098 1h-101v90h106c13.333 10 22.333 20 27 30v12l-1 5c-4.66699 7.33301 -11.167 14.5 -19.5 21.5s-14.833 10.5 -19.5 10.5h-97c-10 0 -22.333 -8.66699 -37 -26l-3 -4
l-93 28c4.66699 11.333 14.167 24.833 28.5 40.5s26.166 26.834 35.499 33.501c22.667 15.333 46.667 23 72 23h94c28.667 0 53 -7 73 -21c18.667 -14 34.667 -30 48 -48c12.667 -17.333 19 -38 19 -62v-13z" />
    <glyph glyph-name="afii10074" unicode="&#x438;" horiz-adv-x="508" 
d="M325 432h100v-432h-100v266l-185 -266h-97v432h100v-262z" />
    <glyph glyph-name="afii10075" unicode="&#x439;" horiz-adv-x="508" 
d="M325 432h100v-432h-100v266l-185 -266h-97v432h100v-262zM283 596h57.999c0 -28.667 -10.167 -53.167 -30.5 -73.5s-44.5 -30.5 -72.5 -30.5s-52.5 10.167 -73.5 30.5s-31.5 44.833 -31.5 73.5h58c0 -13.333 4.66699 -24.666 14 -33.999s20.333 -14 33 -14
s23.334 4.66699 32.001 14s13 20.666 13 33.999z" />
    <glyph glyph-name="afii10076" unicode="&#x43a;" horiz-adv-x="495" 
d="M468 0h-134l-159 177h-32v-177h-100v432h100v-161h33l147 161h131l-192 -209z" />
    <glyph glyph-name="afii10077" unicode="&#x43b;" horiz-adv-x="526" 
d="M-9 84h43.999l6 1c14.667 9.33301 25.334 20.666 32.001 33.999c0.666992 2 1 3.66699 1 5v308h369v-432h-101v337h-167v-215c0 -24.667 -6 -45.667 -18 -63c-14 -19.333 -30.667 -35.666 -50 -48.999c-20 -14 -43.667 -21 -71 -21h-45v95z" />
    <glyph glyph-name="afii10078" unicode="&#x43c;" horiz-adv-x="538" 
d="M351 432h104v-432h-100v240l-40.5 -78l-32.5 -64h-65l-74 146v-244h-100v432h106l101 -194l54 104.5z" />
    <glyph glyph-name="afii10079" unicode="&#x43d;" horiz-adv-x="495" 
d="M311 432h101v-432h-101v179h-167v-179h-101v432h101v-158h167v158z" />
    <glyph glyph-name="afii10080" unicode="&#x43e;" horiz-adv-x="484" 
d="M405 126c0 -25.333 -5.66699 -45.666 -17 -60.999c-12 -18 -28 -34.333 -48 -49c-20 -14 -44.333 -21 -73 -21h-94c-28 0 -52 7 -72 21c-7.33301 5.33301 -16.333 13.333 -27 24s-18 19 -22 25c-11.333 15.333 -17 35.666 -17 60.999v180
c0 25.333 5.66699 45.666 17 60.999c10.667 16 27 32 49 48c20.667 14.667 44.667 22 72 22h94c28 0 52.333 -7.33301 73 -22c20.667 -15.333 36.667 -31.333 48 -48c11.333 -15.333 17 -35.666 17 -60.999v-180zM135 303v-181.999c0 -7.33301 11 -17.333 33 -30
c1.33301 -0.666992 3.33301 -1 6 -1h92c1.33301 0 3.33301 0.666992 6 2c21.333 12 32.333 21.667 33 29v182c0 2 -0.333008 4 -1 6c-8 13.333 -19 24 -33 32c-1.33301 0.666992 -3 1 -5 1h-92c-2 0 -3.66699 -0.333008 -5 -1c-14.667 -8.66699 -25.667 -19.334 -33 -32.001
z" />
    <glyph glyph-name="afii10081" unicode="&#x43f;" horiz-adv-x="495" 
d="M43 432h369v-432h-101v337h-167v-337h-101v432z" />
    <glyph glyph-name="afii10082" unicode="&#x440;" horiz-adv-x="491" 
d="M412 127c0 -24.667 -6 -45.334 -18 -62.001c-15.333 -21.333 -31.333 -37.666 -48 -48.999c-20 -14 -44 -21 -72 -21h-73c-17.333 0 -37 7.66699 -59 23v-181h-100v506l-9 89h99l4 -22c23.333 18 45 27 65 27h73c28 0 52 -7.33301 72 -22s36 -31 48 -49
c12 -17.333 18 -38 18 -62v-177zM312 129v172.999l-1 6c-7.33301 12.667 -18 23.334 -32 32.001c-2.66699 1.33301 -4.66699 2 -6 2h-69c-5.33301 0 -15.166 -5.5 -29.499 -16.5s-25.166 -20.5 -32.499 -28.5v-163c7.33301 -8 18.166 -17.333 32.499 -28
s24.166 -16 29.499 -16h69c2.66699 0 4.66699 0.333008 6 1c13.333 8.66699 24 19.667 32 33c0.666992 1.33301 1 3 1 5z" />
    <glyph glyph-name="afii10083" unicode="&#x441;" horiz-adv-x="469" 
d="M135 127c0 -2 0.666016 -3.99707 1.99902 -5.99707c6 -10.667 16.667 -20.334 32 -29.001c2.66699 -1.33301 4.66699 -2 6 -2h98c10 0 22.333 8.66699 37 26c0.666992 0.666992 1.66699 2 3 4l93 -28c-4.66699 -11.333 -14.167 -24.833 -28.5 -40.5
s-26.166 -26.834 -35.499 -33.501c-22.667 -15.333 -46.667 -23 -72 -23h-96c-28.667 0 -53 7 -73 21c-20 14.667 -36 31 -48 49c-12 16 -18 36.333 -18 61v180c0 24.667 6 45 18 61c12 18 28 34.333 48 49c20 14 44.333 21 73 21h95c25.333 0 49.333 -7.66699 72 -23
c11.333 -8 23.5 -19.167 36.5 -33.5s22.167 -27.833 27.5 -40.5l-93 -28l-3 4c-14.667 17.333 -27 26 -37 26h-97l-6 -2c-15.333 -8.66699 -26 -18.334 -32 -29.001l-2 -6v-178z" />
    <glyph glyph-name="afii10084" unicode="&#x442;" horiz-adv-x="433" 
d="M378 337h-134v-337h-100v337h-134v95h368v-95z" />
    <glyph glyph-name="afii10085" unicode="&#x443;" horiz-adv-x="427" 
d="M425 432l-212 -594h-101l60 162h-9l-159 432h112l101 -293l102 293h106z" />
    <glyph glyph-name="afii10086" unicode="&#x444;" horiz-adv-x="500" 
d="M257 -163h-58v158h-26c-28 0 -52 7 -72 21c-7.33301 5.33301 -16.333 13.333 -27 24s-18 19 -22 25c-11.333 15.333 -17 35.666 -17 60.999v180c0 25.333 5.66699 45.666 17 60.999c10.667 16 27 32 49 48c20.667 14.667 44.667 22 72 22h26v162h58v-162h26
c28 0 52.333 -7.33301 73 -22c20.667 -15.333 36.667 -31.333 48 -48c11.333 -15.333 17 -35.666 17 -60.999v-180c0 -25.333 -5.66699 -45.666 -17 -60.999c-12 -18 -28 -34.333 -48 -49c-20 -14 -44.333 -21 -73 -21h-26v-158zM135 303v-181.999
c0 -7.33301 11 -17.333 33 -30c1.33301 -0.666992 3.33301 -1 6 -1h25v252h-25c-2 0 -3.66699 -0.333008 -5 -1c-14.667 -8.66699 -25.667 -19.334 -33 -32.001zM282 342.001h-25v-252h25c1.33301 0 3.33301 0.666992 6 2c21.333 12 32.333 21.667 33 29v182l-1 6
c-8 13.333 -19 24 -33 32c-1.33301 0.666992 -3 1 -5 1z" />
    <glyph glyph-name="afii10087" unicode="&#x445;" horiz-adv-x="449" 
d="M413 0h-119l-91 136l-91 -136h-120l151 221l-146 211h122l84 -129l81 129h122l-144 -211z" />
    <glyph glyph-name="afii10088" unicode="&#x446;" horiz-adv-x="510" 
d="M412 93h51l-21 -170h-95l8 77h-312v432h100v-337h169v337h100v-339z" />
    <glyph glyph-name="afii10089" unicode="&#x447;" horiz-adv-x="474" 
d="M123 432v-128.999l1 -5c7.33301 -15.333 18 -27.333 32 -36c1.33301 -0.666992 2.66602 -1 3.99902 -1h130v171h100v-432h-100v168h-131c-27.333 0 -50.666 7 -69.999 21c-16.667 11.333 -32.667 27.666 -48 48.999c-12 17.333 -18 38.333 -18 63v131h100z" />
    <glyph glyph-name="afii10090" unicode="&#x448;" horiz-adv-x="582" 
d="M499 432v-432h-455v432h98v-339h79v339h98v-339h82v339h98z" />
    <glyph glyph-name="afii10091" unicode="&#x449;" horiz-adv-x="598" 
d="M500 93h51l-21 -170h-95l8 77h-399v432h98v-339h79v339h98v-339h82v339h98v-341z" />
    <glyph glyph-name="afii10092" unicode="&#x44a;" horiz-adv-x="516" 
d="M168 432v-159h138c27.333 0 51.333 -7.33301 72 -22c18 -13.333 33.667 -29 47 -47c12 -16.667 18 -37 18 -61v-18c0 -24 -6 -44.333 -18 -61c-13.333 -18 -29 -33.667 -47 -47c-20.667 -14.667 -44.667 -22 -72 -22h-238v343h-77v94h177zM168 179l-0.000976562 -89h137
l6 2c14 8.66699 24.333 19 31 31c0.666992 1.33301 1 2.33301 1 3v16l-1 3c-8 14 -18 24.667 -30 32c-1.33301 1.33301 -3.66602 2 -6.99902 2h-137z" />
    <glyph glyph-name="afii10093" unicode="&#x44b;" horiz-adv-x="668" 
d="M143 432v-159h138c27.333 0 51.333 -7.33301 72 -22c18 -13.333 33.667 -29 47 -47c12 -16.667 18 -37 18 -61v-18c0 -24 -6 -44.333 -18 -61c-13.333 -18 -29 -33.667 -47 -47c-20.667 -14.667 -44.667 -22 -72 -22h-238v437h100zM143 179l-0.000976562 -89h137l6 2
c14 8.66699 24.333 19 31 31c0.666992 1.33301 1 2.33301 1 3v16l-1 3c-8 14 -18 24.667 -30 32c-1.33301 1.33301 -3.66602 2 -6.99902 2h-137zM584.999 0h-100v432h100v-432z" />
    <glyph glyph-name="afii10094" unicode="&#x44c;" horiz-adv-x="491" 
d="M143 432v-159h138c27.333 0 51.333 -7.33301 72 -22c18 -13.333 33.667 -29 47 -47c12 -16.667 18 -37 18 -61v-18c0 -24 -6 -44.333 -18 -61c-13.333 -18 -29 -33.667 -47 -47c-20.667 -14.667 -44.667 -22 -72 -22h-238v437h100zM143 179l-0.000976562 -89h137l6 2
c14 8.66699 24.333 19 31 31c0.666992 1.33301 1 2.33301 1 3v16l-1 3c-8 14 -18 24.667 -30 32c-1.33301 1.33301 -3.66602 2 -6.99902 2h-137z" />
    </font>
</defs>
</svg>
