<svg width="214" height="61" viewBox="0 0 214 61" fill="none" xmlns="http://www.w3.org/2000/svg">
<path d="M212 1H17L1 17V60H196L212 44V1Z" fill="#FD4D7C" stroke="#FD4D7C" stroke-linecap="round" stroke-linejoin="round"/>
<path d="M11.5732 0.426777L0.426777 11.5732C0.269285 11.7307 0 11.6192 0 11.3964L0 0.25C0 0.111929 0.111928 0 0.25 0L11.3964 0C11.6192 0 11.7307 0.269285 11.5732 0.426777Z" fill="#FD4D7C"/>
<path d="M202.427 60.5732L213.573 49.4268C213.731 49.2693 214 49.3808 214 49.6036V60.75C214 60.8881 213.888 61 213.75 61H202.604C202.381 61 202.269 60.7307 202.427 60.5732Z" fill="#FD4D7C"/>
</svg>
