<svg width="213" height="61" viewBox="0 0 213 61" fill="none" xmlns="http://www.w3.org/2000/svg">
<path d="M212 1H17L1 17V60H196L212 44V1Z" stroke="#FD4D7C" stroke-linecap="round" stroke-linejoin="round"/>
<path d="M11.5732 0.426777L0.426777 11.5732C0.269285 11.7307 0 11.6192 0 11.3964L0 0.25C0 0.111929 0.111928 0 0.25 0L11.3964 0C11.6192 0 11.7307 0.269285 11.5732 0.426777Z" fill="#FD4D7C"/>
<path d="M6.74393 2.25607L2.25607 6.74393C2.16157 6.83843 2 6.7715 2 6.63787L2 2.15C2 2.06716 2.06716 2 2.15 2L6.63787 2C6.7715 2 6.83843 2.16157 6.74393 2.25607Z" fill="#0F0F0F"/>
<path d="M200.427 59.5732L211.573 48.4268C211.731 48.2693 212 48.3808 212 48.6036V59.75C212 59.8881 211.888 60 211.75 60H200.604C200.381 60 200.269 59.7307 200.427 59.5732Z" fill="#FD4D7C"/>
<path d="M205.256 57.7439L209.744 53.2561C209.838 53.1616 210 53.2285 210 53.3621V57.85C210 57.9328 209.933 58 209.85 58H205.362C205.228 58 205.162 57.8384 205.256 57.7439Z" fill="#0F0F0F"/>
</svg>
