<svg width="64" height="49" viewBox="0 0 64 49" fill="none" xmlns="http://www.w3.org/2000/svg">
<path d="M63 1H14L1 14V48H50.5L63 35.5V1Z" stroke="#FD4D7C"/>
<path d="M54.3402 48.2258L63.2258 39.3402C63.3514 39.2147 63.566 39.3036 63.566 39.4811V48.3667C63.566 48.4768 63.4768 48.566 63.3667 48.566H54.4811C54.3036 48.566 54.2147 48.3514 54.3402 48.2258Z" fill="#FD4D7C"/>
<path d="M58.1895 46.768L61.7671 43.1905C61.8424 43.1151 61.9712 43.1685 61.9712 43.275V46.8526C61.9712 46.9186 61.9177 46.9722 61.8516 46.9722H58.274C58.1675 46.9722 58.1142 46.8434 58.1895 46.768Z" fill="#0F0F0F"/>
<path d="M10.2262 1.34011L1.3406 10.2257C1.21505 10.3513 1.00039 10.2623 1.00039 10.0848L1.00039 1.19919C1.00039 1.08913 1.08961 0.9999 1.19968 0.9999L10.0853 0.9999C10.2628 0.9999 10.3517 1.21457 10.2262 1.34011Z" fill="#FD4D7C"/>
<path d="M6.37693 2.79788L2.79934 6.37546C2.72401 6.45079 2.59521 6.39744 2.59521 6.29091L2.59521 2.71332C2.59521 2.64728 2.64875 2.59375 2.71479 2.59375L6.29237 2.59375C6.3989 2.59375 6.45225 2.72255 6.37693 2.79788Z" fill="#0F0F0F"/>
</svg>
